<svg viewBox="0 0 40.570597081411734 50.00000000000001" xmlns="http://www.w3.org/2000/svg" xmlns:xlink="http://www.w3.org/1999/xlink" version="1.1" class="jsx-2263963463 artboard-inner" style="width: 41px; height: 50.5292px; max-height: 100%;"><g transform="translate(-10.964504169105277 -6.249758006596145) scale(0.6249962449299402)" id="lockup4-icon"><g fill="#232323"><path d="M67.338 26.206a.718.718 0 0 1 .996-.469c.113.036.11-.123.072-.263-.11-.403.189-.37.456-.4.52-.059.623.33.832.665.122.195.25.675.634.349.179-.153.232-.383.414-.049a3.039 3.039 0 0 0 2.825 1.484 11.484 11.484 0 0 1 2.98.348 4.228 4.228 0 0 1 2.351 3.4c-.01.128-.002.308-.079.374-.53.453-.209.931-.09 1.42.188.78-.11 1.169-.916 1.145a7.209 7.209 0 0 1-2.038-.453 1.082 1.082 0 0 0-.754-.102 3.966 3.966 0 0 0-2.2 3.923 10.445 10.445 0 0 0 .806 2.058c.713 1.705 1.534 3.426.626 5.339a.748.748 0 0 0 .006.504 2.905 2.905 0 0 1-.762 3.06.25.25 0 0 1-.333.083c-.321-.29.222-.757-.222-1.07-.435.319-.27.796-.378 1.188-.196.716.1 1.803-1.244 1.718-.228-.014-.279.299-.378.487-.123.233-.274.57-.54.498-1.05-.29-1.232.48-1.528 1.15a.537.537 0 0 1-.48.372c.081-.965.108-.86-.72-.646-.753.196-1.246 1.427-2.257.604-.08.101-.167.198-.238.305a4.112 4.112 0 0 1-.27.446c-.266.308-.551.551-1.014.33-.445-.212-.579-.442-.283-.906.16-.25-.01-.467-.324-.566-.891-.28-1.461.035-1.574.978-.104.86-.075 1.737-.182 2.597a9.867 9.867 0 0 1-.676 3.69 4.645 4.645 0 0 0-.71 1.81c-.038.463-.368.504-.735.568-.75.133-1.065.523-1.257 1.36a31.758 31.758 0 0 0-.466 5.839 3.555 3.555 0 0 0 1.722 3.556 2.164 2.164 0 0 1 1.024 1.611c.116.83-.486 1.623-1.11 1.365a8.38 8.38 0 0 0-3.716-.497 1.405 1.405 0 0 1-1.161-.739c-.325-.439.011-.706.15-1.053a6.366 6.366 0 0 0 .414-4.163c-.42-1.58-.585-3.235-1.154-4.782-.498-1.35-.664-2.926-2.264-3.647a4.475 4.475 0 0 0-1.151 1.19c-.361.506-.573 1.122-1.394.693-.22-.115-.406.116-.491.322-.606 1.454-1.677 2.65-2.27 4.109a6.053 6.053 0 0 0-.102 3.72 1.182 1.182 0 0 0 .726.852c.355.166.784.38.848.77.14.842.738 1.194 1.468 1.518-.455.262-.932-.437-1.245.122-.504.903-1.301.723-1.928.377a7.218 7.218 0 0 0-3.749-.827c-.917.016-1.316-.367-1.21-1.276.076-.637-.19-.841-.646-1.088a1.875 1.875 0 0 0-1.128-.24c-.66.074-1.157-.34-1.73-.524a.345.345 0 0 1-.208-.427.353.353 0 0 1 .483-.3c1.066.433 2.246.259 3.318.655.723.268.89.186 1.16-.514.856-2.229 1.887-4.387 2.563-6.689.18-.61.275-1.047-.255-1.508a3.307 3.307 0 0 1-1.058-2.703c.01-.741-.111-1.492-.027-2.221.075-.658-.693-.974-.524-1.626.016-.064-.17-.149-.321-.116a3.54 3.54 0 0 1-1.692-.419c-.763-.27-1.29-1.374-2.344-.727-.179.11-.259-.142-.382-.246a2.879 2.879 0 0 1-.665-.762c-.385-.656-.778-.606-1.194.072a4.19 4.19 0 0 1-.797 1.181 7.71 7.71 0 0 0-1.892 2.78 10.917 10.917 0 0 0-1.172 2.748c-.476 2.17.081 4.166.68 6.232a8.678 8.678 0 0 0 3.123 4.368 7.863 7.863 0 0 1 .706.581 6.948 6.948 0 0 1 1.629 2.017c.22.517.409 1.056-.033 1.452a1.41 1.41 0 0 1-1.707.238 10.868 10.868 0 0 0-3.053-1.114 1.41 1.41 0 0 1-1.22-1.461.934.934 0 0 0-.128-.661c-.92.071-1.822-.369-2.785-.237a.39.39 0 0 1-.475-.342.48.48 0 0 1 .481-.515 3.669 3.669 0 0 1 1.677-.044 1.224 1.224 0 0 0 1.133-.056c-1.223-2.619-3.165-4.752-4.481-7.381-.604.79-.42 1.574-.587 2.276a13.588 13.588 0 0 0 .208 5.183 1.406 1.406 0 0 0 .61.816c.83.7 1.642 1.421 2.457 2.139a1.376 1.376 0 0 1 .376 1.829c-.403.718-.985.283-1.499.213-.21-.029-.4-.195-.61-.222-.835-.109-1.411-.834-2.3-.871-1.13-.047-1.162-.228-1.464-1.26-.892-3.051-1.154-6.237-2.032-9.292a2.929 2.929 0 0 1 .7-3.338 1.833 1.833 0 0 0 .42-.657 18.003 18.003 0 0 0 1.617-7.994 1.326 1.326 0 0 0-.53-1.037 9.245 9.245 0 0 0-.251 3.23 4.09 4.09 0 0 1-.094 1.558.703.703 0 0 1-.85.613.653.653 0 0 1-.624-.7 16.283 16.283 0 0 1 .068-1.816 24.739 24.739 0 0 0 .016-5.073 14.507 14.507 0 0 1-.298-3.765 18.959 18.959 0 0 1 1.104-5.174 7.957 7.957 0 0 1 2.75-3.515c.733-.538 1.73-.806 2.204-1.58a40.805 40.805 0 0 1 2.738-3.116 3.316 3.316 0 0 1 1.967-1.434c1.867-.336 2.91-1.618 3.77-3.133a3.917 3.917 0 0 1 2.855-1.866 3.558 3.558 0 0 1 2.377.366 3.07 3.07 0 0 1 1.617 2.374c.036.6.103 1.206.122 1.813a4.198 4.198 0 0 0 .369 1.908.753.753 0 0 0 .733.454c.328-.02.4-.293.481-.538a6.637 6.637 0 0 0 .348-1.642 2.948 2.948 0 0 1 1.833-2.764 8.304 8.304 0 0 1 4.43-.72 3.985 3.985 0 0 1 3.618 3.375c.358 1.658.691 3.322 1.023 4.985a9.771 9.771 0 0 0 4.348 6.413 2.036 2.036 0 0 0 3.22-1.159 2.909 2.909 0 0 0 .128-1.547c-.494-1.544.009-3.006.27-4.467.237-1.315.346-1.295-.76-2.101a2.416 2.416 0 0 1-.772-3.18c.421-.753 1.076-.307 1.55-.458.21-.53-.463-.672-.348-1.103.31-.18.487.346.792.15.131-.427-.071-.85-.033-1.292a2.863 2.863 0 0 1 1.14.327zM33.786 71.935c-.175.425.265.72.644.846a13.002 13.002 0 0 0 1.385.31c-.279-.884-.207-.955.905-.87a27.805 27.805 0 0 1-3.095-3.047c-.13-.163-.317-.308-.55-.123a.408.408 0 0 0 .066-.475c-.668-1.287-.84-2.746-1.414-4.063a7.37 7.37 0 0 1 .081-5.476 14.584 14.584 0 0 1 2.785-4.812c1.398-1.64 1.356-1.951.742-3.574a19.01 19.01 0 0 0-1.957 3.386 31.803 31.803 0 0 1-4.074 5.866 2.016 2.016 0 0 0-.376 2.348 29.724 29.724 0 0 0 2.606 4.216 29.7 29.7 0 0 0 1.568 2.554c.468.912 1.165 1.744.684 2.914zm38.799-30.201a4.888 4.888 0 0 0-.135-.506c-.185-.462 1.03-.418.367-1.07-.312-.308-.344-.793-.532-1.178-.944-1.927-.281-3.445 1.139-4.798.314-.3.613-.615.932-.937-.307-.378-.718-.244-1.083-.263a.645.645 0 0 1-.672-.655c-.006-.455.392-.55.756-.504a5.515 5.515 0 0 1 2.299.865 2.925 2.925 0 0 0 1.669.67c.216-.008.465.01.572-.217a.569.569 0 0 0-.216-.692 3.567 3.567 0 0 0-2.078-.635 3.07 3.07 0 0 1-2.138-1.244c.473-.272.845.09 1.224.232a7.78 7.78 0 0 0 3.08.435c.482-.018.452-.3.264-.62-.254-.431-.723-.47-1.135-.567a9.42 9.42 0 0 0-1.294-.16c-.375-.035-.717-.116-.715-.58.003-.613-.381-.657-.86-.704a4.811 4.811 0 0 1-3.161-.986 1.437 1.437 0 0 0-1.584-.118 4.201 4.201 0 0 1-1.576.509.333.333 0 0 0-.354.306c-.144 1.396-.922 2.716-.5 4.179-.55 2.512-.006 5.13-.747 7.626-.704 2.368-2.47 2.685-4.249 1.702a9.781 9.781 0 0 1-5.119-7.592c-.187-1.28-.525-2.538-.804-3.85-.702.203-.136 1.19-.97 1.303-.071-.677.564-1.374-.005-2.068-.522.234-.117.843-.473 1.105-.727.005-.753-.63-.934-1.145-.474.272-.584 1.158-1.356.668-.044-.027-.325.32-.495.492-.126-.111-.07-.232-.022-.354.062-.16.159-.351-.055-.447-.218-.097-.291.072-.328.26-.04.203-.013.441-.35.608-.32-.281.08-1.017-.581-1.096-.306.245-.001.785-.522 1.062-.14-.45-.191-.963-.672-1.277-.23.269.031.551-.015.81-.036.202.013.497-.292.454-.263-.038-.11-.393-.279-.536a4.43 4.43 0 0 0-1.203 1.832 1.497 1.497 0 0 1-2.672.263 3.896 3.896 0 0 1-.754-2.187c-.01-.42-.066-.746-.573-.872-.541-.135-.793-.635-1.104-1.128-.301.59.048 1.287-.347 1.832-.641-.31.06-.837-.308-1.187-.292-.28-.205-.864-.806-1.033.034.79.479 1.52.204 2.292-1.282-.203-.239-1.63-1.176-2.101.06 1.079-.913 1.449-1.316 2.236-.437-.334-.16-.627-.136-.899.022-.246-.005-.438-.301-.447-.265-.008-.388.15-.406.4-.016.217-.013.436-.041.651-.118.881-.227.936-1.186.618-.259.383-.044.864-.262 1.26-.124.226-.178.51-.51.514-.363.006-.368-.266-.427-.531a5.603 5.603 0 0 0-.29-.78c-.584.213-.217.562-.285.815-.066.244-.15.482-.289.918l-.15-1.19a.356.356 0 0 0-.118.002c-.217.097.183.986-.638.42-.307-.21-.533.467-.469.86a3.091 3.091 0 0 1-.792 2.39c-.244-.872.663-1.485.337-2.314-1.161.525-.997 1.618-1.171 2.523a4.545 4.545 0 0 1-.53 1.803c-.382-.431.022-1.064-.467-1.462-.563.614-.002 1.435-.394 2.093-.31-.557.016-1.194-.3-1.826-.556.668-.414 1.44-.55 2.12-.076.383.013.792-.467 1.01-.12-.547-.245-1.112-.372-1.677-.067-.302-.248-.498-.551-.34-.293.154-.654.3-.656.726a.268.268 0 0 0 .146.19c1.293.542.57 1.617.713 2.462-.369-.505-.046-1.209-.594-1.69-.373.596.38 1.509-.519 2.03-.259-.813.07-1.613-.194-2.407-.607.063-.593.43-.522.913a7.981 7.981 0 0 1-.022 3.51 8.651 8.651 0 0 1-.303-2.864c-.353-.157-.34.146-.423.311-1.186 2.389-.888 4.876-.16 7.25.416 1.351 1.028 2.666 1.376 4.057a8.575 8.575 0 0 1 .097 4.104 26.163 26.163 0 0 1-1.444 4.596 1.803 1.803 0 0 1-.363.684c-.827.667-.697 1.473-.511 2.372.535 2.595 1.001 5.203 1.504 7.804a8 8 0 0 0 .308 1.132c.398 1.132.669 1.254 1.932.941.205-.05.42-.066.649-.1a1.416 1.416 0 0 0-.62-.825 4.116 4.116 0 0 1-1.683-3.174c-.388-2.578.26-5.018.741-7.487a4.048 4.048 0 0 1 .885-1.737c.931-1.149 1.71-2.417 2.75-3.48a1.915 1.915 0 0 0 .384-.524c.867-1.909 2.061-3.637 3.039-5.485a1.868 1.868 0 0 0 .165-1.738c-.71-1.594-.578-3.327-.854-4.992-.05-.301.018-.423.35-.633.315-.199.299-.922.463-1.549.34.52.814.492 1.366.454a2.276 2.276 0 0 0-.772.877c-.24.373-.228.359.257.912.34.387-.12.683-.155 1.022-.417.118-.344-.472-.686-.451-.121 1.59-.115 1.6 1.114 1.662-.357.735-.736 1.4.132 2.142.401.343.318 1.098.384 1.678.574-.108.194-.705.601-.825.25.294.031.691.222.998a.382.382 0 0 0 .422-.215c.28-.503-.13-1.025.062-1.607.842.998.241 2.385 1.065 3.313.598-.368.143-1.223.722-1.853l.012 2.197c.34.286.373-.295.636-.198.047.06.143.129.135.18a3.319 3.319 0 0 0-.17 1.539.514.514 0 0 0 .478.384c.293.022.32-.176.373-.407a3.028 3.028 0 0 0 .022-2.128c.59.104.522.52.646.809.215.499.383 1.026 1.057 1.101.628.07.861.428.675 1.045a.237.237 0 0 0 .164.323c.323-.122.31-.451.384-.726a1.124 1.124 0 0 1 .372-.754c.45.243 1.075.366.503 1.141-.134.182-.451.413-.144.652a.582.582 0 0 0 .898-.213c.313-.515.565-1.067.848-1.613.342.217.209.676.524.902.349.064.457-.322.727-.433.845-.346 1.377-.08 1.663.817a1.638 1.638 0 0 0 .449.654c.17-1.605.915-3.054 1.014-4.648a1.42 1.42 0 0 1 .233-.736.52.52 0 0 1 .67-.241.415.415 0 0 1 .24.532 14.82 14.82 0 0 1-.472 2.3 8.943 8.943 0 0 0-.366 4.385 2.364 2.364 0 0 0 .566 1.426c.416-.145.27-.755.722-.852 1.05.421.799 1.574 1.263 2.285.343.094.27-.163.306-.289.05-.166.063-.34.41-.374.107.909-.562 1.991.551 2.93.027-.887.013-1.593.08-2.29.058-.615.406-.757.806-.264.424.523.679.248 1.065-.08a7.549 7.549 0 0 0 .209 2.516.348.348 0 0 0 .355.31c.19.024.4-.058.426-.22.196-1.22.362-2.445.536-3.664 1.086.25 1.087.25.979 1.276-.03.289-.257.575.055.941a2.733 2.733 0 0 0 .378-2.035c-.017-.488-.252-1.069.642-.667.317.142.317-.185.377-.362a4.909 4.909 0 0 0 .2-1.81 10.31 10.31 0 0 1 .291-2.33c.22-1.188.72-1.475 1.956-1.272.215.035.43.079.645.108.383.05.595-.094.523-.507a1.459 1.459 0 0 1 .247-.99c.322-.573.428.01.619.21.135-.442.245-.799.352-1.157a.48.48 0 0 1 .459-.392.4.4 0 0 1 .423.407c.006.46.133.762.664.735.22-.41-.131-1.039.134-1.243a1.294 1.294 0 0 0 .58-1.466c-.052-.267.35-.373.61-.262a10.215 10.215 0 0 1 .99.541.5.5 0 0 0 .184-.607c-.066-.218.04-.303.25-.349.99-.216 1.053-.244.841-.942-.163-.537-.255-.663.472-.691.45-.018.849-.824 1.053-1.285.3-.68.611-.548 1.156-.259-.192-.681-.345-1.22-.495-1.759zM47.318 55.768c-.68.111-1.456.649-2.1-.178-.085-.11-.332-.005-.418.18a4.506 4.506 0 0 0-.135 2.795.392.392 0 0 0 .371.32c.705-.037.71.836 1.296.962.203.043.139.273.069.437l-.304.719a.262.262 0 0 0 .18.398c.23.064.325-.154.352-.293.073-.378.09-.766.139-1.255.452.318.165.761.352 1.077.526-.274.385-1.045 1.116-1.369-.174.74-.61 1.323-.461 2.097.598-.48.5-1.252.969-1.862a1.738 1.738 0 0 1-.34 1.646.278.278 0 0 0 .102.434.257.257 0 0 0 .328-.132 7.304 7.304 0 0 0 .456-.93c.113-.303.023-.752.609-.344.264.184.211-.244.222-.41a12.506 12.506 0 0 0-.549-3.756c-.031-.13-.064-.246-.21-.073-.071.085.049.416-.227.224-.114-.079-.1-.322-.18-.471a.554.554 0 0 0-.546-.286.514.514 0 0 0-.44.236c-.09.148-.156.313-.258.45a2.84 2.84 0 0 1-.356.365c-.026.025-.083.019-.219.045-.116-.42.499-.566.182-1.026zm8.727 13.83a9.559 9.559 0 0 1-.167 3.725c-.169.703.024.978.594.995.301.008.826.105.463-.52a.202.202 0 0 1 .098-.317c.858-.157.487-.57.221-.974a3.062 3.062 0 0 1-.472-1.6 26.754 26.754 0 0 1 .228-6.738 1.126 1.126 0 0 0-1.188-1.43c-.254-.001-.504.113-.741-.078-.177-.144-.382-.182-.779-.022a30.539 30.539 0 0 1 1.743 6.96zm-10.81 1.87c-.759-2.079-.086-3.92.934-5.704.13-.227.255-.458.4-.674.319-.474.72-.92.056-1.45-.213-.17.107-.624-.366-.783-.402 1.03-.864 2.04-1.192 3.092-.492 1.58-1.395 2.987-1.85 4.583a4.321 4.321 0 0 1-.735 1.068c-.521.76-.314 1.189.635 1.232a6.768 6.768 0 0 1 1.743.266c.084-.541-.466-.748-.47-1.164.232-.334.557.113.824-.088a.986.986 0 0 0 .022-.378zm20.862-41.62c-.002-.26-.187-.38-.362-.491-.3-.193-.64-.346-.943-.052-.303.295-.176.636.036.936a1.85 1.85 0 0 0 .952.877c.21-.626-.802-.659-.587-1.237.287-.387.616.295.904-.033zm-14.035 28.28c-.137 1.032-.137 1.032.512 2.2a1.96 1.96 0 0 0-.512-2.2zM50.22 27.674a.224.224 0 0 0-.292-.172c-.071.022-.181.085-.184.135-.032.568-.173 1.177.48 1.64a3.601 3.601 0 0 0-.004-1.603zm1.343.01c-.025-.28-.178-.528-.497-.448-.319.08-.13.342-.084.522a2.174 2.174 0 0 0 .503 1.17 2.78 2.78 0 0 0 .078-1.244zm-16.188 21.04a.695.695 0 0 0-.084-.584c-.078-.113-.28-.08-.275.024a1.915 1.915 0 0 0 .188.571c.012.03.069.04.102.059.024-.024.062-.043.07-.07zM76.437 29.13c.122.013.332.024.358-.032.114-.244-.144-.223-.263-.277-.104-.046-.25-.126-.335.064a.26.26 0 0 0 .24.245z"></path><path d="M72.27 75.047c.014.26.057.524.464.555a13.562 13.562 0 0 0-1.179-3.934c-.37.805.332 1.396.147 2.041-.285-.186-.313-.515-.426-.79-.225-.554.03-1.35-.539-1.679-.56-.324-1.265.114-1.917.001-.201-.035-.428.106-.64.097-1.048-.044-2.062.571-3.101.245-1.295-.406-2.663-.443-3.95-.892-.833-.29-.877-.527-.503-1.277.755-1.512 2.446-1.926 3.447-3.128a.888.888 0 0 1 .601-.206 3.142 3.142 0 0 0 2.16-1.076c.506-.5 1.287-1.025 1.818-.876.789.22 1.201-.223 1.781-.4a3.029 3.029 0 0 1 3.186.361 2.215 2.215 0 0 0 1.404.639 2.816 2.816 0 0 1 1.93.99 4.47 4.47 0 0 0 1.895 1.09c.453.157.915.288 1.365.452 1.68.61 2.154 2.071 2.24 3.64.046.832-.34 1.05-1.166.73a5.534 5.534 0 0 0-1.907-.36c-1.05-.027-2.09.049-3.134.118a3.046 3.046 0 0 1-1.655-.25 3.694 3.694 0 0 0-3.023.093c1.256.675 1.014 1.964 1.545 3.027.34-.612-.217-1.125.358-1.587.193.652.503.994 1.164.48a2.165 2.165 0 0 1 .987-.304c.26-.039.801-.132.682.252-.141.45.862.754.063 1.184-.25.135-.372.565-.617.635-.68.196-.57.545-.417 1.066.203.684.66.365 1.052.389.332.02.641-.29.997-.055-.062.523-.581.452-.86.68-.133.107-.29.182-.274.4.025.377.878 1.032 1.228 1.02.218-.008.283-.487.598-.175-.33.855-1.24.567-1.831.856.188.385.497.364.703.512.143.103.286.205.255.412-.033.224-.218.241-.386.263-.916.12-1.674.87-2.648.562-.224 1.046-.357 1.95.775 2.438a.338.338 0 0 1 .152.45 3.755 3.755 0 0 1-2.97-1.007 5.163 5.163 0 0 0-.745-.53 4.667 4.667 0 0 0-3.347-.766 16.21 16.21 0 0 1-3.258.171 4.084 4.084 0 0 1-3.146-1.376 1.365 1.365 0 0 1 1.428.061c1.654.699 3.356.237 5.038.22.13-.001.257-.21.386-.324l-.017.008a8.893 8.893 0 0 1 1.35.285 2.93 2.93 0 0 0 1.98-.027c.066.272-.424.42-.212.667a2.312 2.312 0 0 0 1.204.73.248.248 0 0 0 .28-.212 3.1 3.1 0 0 0 .048-.645c-.022-.33.107-.746-.289-.926-.397-.18-.443.326-.699.434a.955.955 0 0 1-.372-.001c-.024-.268.441-.341.266-.666-.416-.12-.824-.262-1.243-.35a.79.79 0 0 1-.744-.96 1.246 1.246 0 0 0-.744-1.24.64.64 0 0 1-.45-.664 17.222 17.222 0 0 0 2.403.781c-.611-.95-1.62-1.381-2.14-2.25a.555.555 0 0 1 .592-.041c.12.034.264.247.365-.076.218-.691.252-.695.707-.147.253.305.394.754.945.649-.091-.922-.998-1.396-1.097-2.31.607.129.491.81.968.92a.42.42 0 0 0 .092-.472 1.762 1.762 0 0 1 .597 1.375zm-8.089-6.413c-.074.06-.129.141-.184.142a1.564 1.564 0 0 1-.514-.05c-1.136-.39-1.226-.348-1.788.974a30.608 30.608 0 0 0 3.849.999 1.26 1.26 0 0 0 .77-.043 8.257 8.257 0 0 1 2.974-.32 12.185 12.185 0 0 0 2.459-.243 5.54 5.54 0 0 1 3.347.15 2.768 2.768 0 0 0 1.153.201c1.81-.049 3.623-.465 5.626.301-.609-1.508-1.147-2.507-2.645-2.895a6.11 6.11 0 0 1-3.06-1.656 2.16 2.16 0 0 0-1.255-.653 5.748 5.748 0 0 1-2.286-.919 2.06 2.06 0 0 0-2.344.065 1.642 1.642 0 0 1-1.203.394c-.797-.189-1.283.28-1.875.66-.72.464-1.24 1.262-2.293 1.23-.624-.02-.893.753-1.621 1.074zm9.31 8.26a.474.474 0 0 0 .402.618c.407.08.848.26 1.244-.319-.565-.395-1.124-.22-1.646-.3zM75.306 80c.073-.224-.118-.287-.275-.329a3.9 3.9 0 0 0-.746-.144c-.21-.012-.442.027-.433.33.012.358.264.198.45.218a3.936 3.936 0 0 1 .605.16.353.353 0 0 0 .399-.235zm-.826-1.31c-.215-.171-.332-.519-.688-.438-.118.027-.144.188-.106.313.132.426.44.432.864.306-.039-.105-.042-.158-.07-.18zm1.323-.573c.118-.006.26-.047.192-.203a.398.398 0 0 0-.25-.204c-.136-.027-.207.084-.205.225a.246.246 0 0 0 .263.182zM29.009 86.287a1.057 1.057 0 0 0-.7-1.31 4.094 4.094 0 0 1-1.316-.9 5.788 5.788 0 0 1 4.543-.307 19.566 19.566 0 0 1 4.477 1.781.73.73 0 0 0 .733.125.505.505 0 0 0 .235-.836 1.122 1.122 0 0 0-.418-.304 49.899 49.899 0 0 0-5.381-1.977 7.272 7.272 0 0 0-4.69.58 2.608 2.608 0 0 1-2.004.163 8.765 8.765 0 0 0-3.736-.4 3.85 3.85 0 0 0-3.047 1.758c-.096.147-.217.285-.134.471.112.251.326.236.55.19.289-.057.604.002.807-.321a.87.87 0 0 1 1.227-.317c.277.118.505.044.444-.4-.021-.158.364-.145.577-.177a8.997 8.997 0 0 1 2.344.092c.27.03.54.078.572.414.08.868.695.642 1.172.533.86-.196 1.148-.146 1.507.502.056.102-.124.401.14.359.711-.114 1.314.423 2.098.28zM58.13 18.895a2.786 2.786 0 0 1 .965-2.065 2.364 2.364 0 0 1 1.908-.557 2.755 2.755 0 0 1 3.002 3.08 2.72 2.72 0 0 1-2.904 2.388 2.935 2.935 0 0 1-2.972-2.846zm1.259-.992a1.195 1.195 0 0 0 .025 1.459 2.811 2.811 0 0 0 1.419 1.288 1.813 1.813 0 0 0 1.714-.339c.555-.43.47-.955.324-1.533a2.084 2.084 0 0 0-2.193-1.81c-.607-.094-.948.396-1.29.935zM49.627 87.66a1.14 1.14 0 0 1 .641 1.058c.014.53-.408.642-.756.773-1.696.64-3.364.84-4.93-.38-.71-.554-.753-.744-.527-1.668.167-.688.64-.74 1.183-.755.262-.007.523-.004.999-.006a6.146 6.146 0 0 1 3.39.978zm-3.532.385c-.41.237-.324.47.004.65a1.77 1.77 0 0 0 2.214-.255c-.798-.295-1.39-.874-2.218-.395zM60.658 85.277c-.952-.04-1.902-.131-2.851-.212a1.827 1.827 0 0 1-1.577-1.16c-.083-.517.381-1.128 1.104-1.439a3.932 3.932 0 0 1 4.244.69c.549.432 1.014.878.465 1.616-.384.516.246.47.386.7-.63.269-1.176-.17-1.77-.195zm-2.525-2.008c-.253.001-.369.205-.352.443.015.2.149.231.352.241a10.66 10.66 0 0 0 2.245.017c-.61-1.003-1.47-.706-2.245-.701zM36.466 79.229c-.665-.828-.5-1.412.53-1.72a7.112 7.112 0 0 1 4.209.196c.229.071.723-.093.697.525-.021.518-.026.92-.586 1.144a4.49 4.49 0 0 1-2.416.564 2.51 2.51 0 0 1-2.434-.71zm1.069-.882c.583.865.764.888 2.29.325a4.292 4.292 0 0 0-2.29-.325zM49.303 71.503a1.66 1.66 0 0 0 1.275-.05 3.647 3.647 0 0 1 2.786.006c.24.077.46.3.735.163.19-.093.406-.195.45-.433.05-.268-.145-.395-.358-.46a5.25 5.25 0 0 0-3.566-.215c-.706.274-1.464.021-2.185.184-.247.056-.552.028-.506.421a.425.425 0 0 0 .45.384c.347.018.695.001.919 0zM67.036 20.277a16.791 16.791 0 0 1 2.653-.048c.337-.035.739-.083.708-.575-.031-.483-.397-.474-.764-.486a21.128 21.128 0 0 0-3.126.029c-.331.039-.818.06-.82.48 0 .482.49.532.883.584.129.017.26.01.466.016zM54.94 18.738a10.069 10.069 0 0 0-2.34.117c-.253.044-.548.127-.535.455.012.303.29.408.541.49a1.046 1.046 0 0 0 .385.06 24.01 24.01 0 0 1 2.991-.022 1.183 1.183 0 0 0 .505-.115.424.424 0 0 0 .296-.507c-.049-.227-.155-.418-.41-.432-.477-.027-.956-.032-1.434-.046zM60.577 24.516a14.664 14.664 0 0 0 .103 2.438c.006.26.09.555.408.584.387.036.517-.277.579-.582a2.706 2.706 0 0 0 .043-.78 6.736 6.736 0 0 1 .018-2.075 2.373 2.373 0 0 0-.143-.892.428.428 0 0 0-.457-.374.475.475 0 0 0-.51.477c-.031.433-.031.869-.04 1.204z"></path><path d="M64.53 76.098a4.078 4.078 0 0 0-1.444.17 1.046 1.046 0 0 0-.737 1.109c.036.398.557.636.74.322.635-1.085 1.537-.693 2.408-.539a3.488 3.488 0 0 1 .623.185c.358.136.72.2.855-.255.124-.414-.118-.646-.536-.71a7.739 7.739 0 0 0-1.908-.282zM60.541 12.078c.035.69.05 1.381.114 2.068.023.246.129.528.454.549a.461.461 0 0 0 .49-.49c.038-1.207.058-2.415.035-3.622-.005-.274-.144-.607-.558-.582-.425.027-.44.34-.45.65-.017.475-.03.95-.043 1.426zM21.369 71.854c.224-.069.475-.131.715-.222.567-.214.867.222 1.25.483.264.18.61.266.824-.019a.56.56 0 0 0-.252-.87c-.6-.323-1.185-.755-1.94-.517a1.71 1.71 0 0 1-1.016.04c-.394-.11-.729.049-.762.463-.03.385.365.417.644.506.164.053.334.085.537.136zM55.997 14.865a1.44 1.44 0 0 0 .169.424 5.12 5.12 0 0 0 1.38 1.175.565.565 0 0 0 .721-.042.551.551 0 0 0 .118-.712 2.976 2.976 0 0 0-1.641-1.401c-.39-.126-.673.058-.747.556zM65.16 23.761a.463.463 0 0 0 .49-.676 3.402 3.402 0 0 0-1.43-1.626c-.351-.19-.703-.102-.774.363-.079.508 1.172 1.894 1.715 1.94zM65.227 14.311a2.497 2.497 0 0 0-1.602 1.695c.006.322.216.517.502.411a2.692 2.692 0 0 0 1.574-1.264.556.556 0 0 0-.474-.842zM56.853 23.062a.488.488 0 0 0 .732.425 2.361 2.361 0 0 0 1.26-1.081.49.49 0 0 0-.368-.787 1.708 1.708 0 0 0-1.624 1.443zM68.828 83.74c-.19-.528-.402-.573-.614-.633-.746-.212-1.537-.118-2.287-.394-.362-.132-.714.355-1.22.199.59 1.095 1.343.144 1.964.385.637.248 1.356.062 2.157.442zM35.508 87.698c-1.373-.719-2.844-.325-4.105-.916.551.609 2.23.967 4.105.916zM54.447 80.063c.169.355.471.342.688.466.185.106.448.193.49-.131.025-.183.01-.493-.273-.511-.283-.019-.606-.144-.905.176zM21.342 85.597a1.463 1.463 0 0 0 1.217.14 1.26 1.26 0 0 0-1.217-.14zM39.547 83.368c.65.249 1.026.449 1.337-.125zM54.01 80.266a1.981 1.981 0 0 0-1.27-.07 1.688 1.688 0 0 0 1.27.07zM42.911 76.67a.76.76 0 0 0 .962-.008 1.016 1.016 0 0 0-.962.007zM68.463 80.193c-.386-.128-.661-.61-1.199-.347a1.18 1.18 0 0 0 1.213.34zM47.99 80.246c.583.267.886.231 1.202-.04-.346-.386-.641-.062-1.202.04zM33.271 74.65a1.983 1.983 0 0 0 .428.209c.17.037.213-.072.125-.214a.409.409 0 0 0-.424-.186c-.04.005-.07.1-.129.19zM56.958 80.177a.717.717 0 0 0 .949.052.687.687 0 0 0-.95-.052zM45.268 81.268c.034.185.155.23.28.273.144.05.286.014.326-.12.055-.184-.123-.202-.243-.208a1.82 1.82 0 0 0-.363.055zM41.94 81.806c.112.174.277.143.441.116.134-.021.15-.073.053-.167-.12-.118-.25-.234-.427-.17-.043.016-.046.144-.067.22zM64.385 79.017c.033.23.227.221.387.25.12.021.309.015.3-.108-.014-.205-.257-.183-.405-.25-.115-.05-.24-.062-.282.108zM49.851 79.125c-.005.199.163.263.29.345.08.05.26.097.23-.06-.026-.134-.19-.25-.311-.35-.031-.026-.137.04-.209.065zM53.07 83.661a.744.744 0 0 0 .923.026.783.783 0 0 0-.923-.026zM64.648 85.428a2.506 2.506 0 0 0 .293.232c.123.072.268.085.306-.093.034-.157-.087-.233-.227-.258a.341.341 0 0 0-.372.12zM53.602 85.728a.669.669 0 0 0-.6.002c.206.051.4.132.6-.002zM70.116 30.33a1.472 1.472 0 0 0-.457-1.888c-.564-.501-.795-.323-1.129.001a2.556 2.556 0 0 0-.524 1.175c-.244.822.354.415.647.45-.125-.488-.054-.885.621-1.222a2.127 2.127 0 0 1-.654 1.191c.267.68.74.449 1.199.273l.297.02zM67.28 31.956c.738 1.251 1.193 2.824 3.05 2.916-1.444-.54-1.955-2.012-3.05-2.916z"></path><path d="M70.116 30.33l-.297-.02c-.082.233-.229.457-.109.722 1.507-.458 1.772-1.007 1.035-2.284-.167.581.068 1.288-.63 1.583zM40.883 37.36c.305-.048.392.226.704.296-.173-.35.07-.914-.606-.842-.52.056-.504.56-.484.91a4.873 4.873 0 0 0 .332 1.093c.041.133-.324.443.144.381.308-.04.428-.24.266-.56-.134-.265-.385-.478-.392-.801a4.433 4.433 0 0 1 .036-.477zM37.694 40.753a2.58 2.58 0 0 0-1.586-2.292c.553.88 1.181 1.517 1.587 2.292zM25.596 43.228a1.983 1.983 0 0 0-.28-1.592 1.538 1.538 0 0 0 .28 1.592zM44.246 49.506c.147.531.496.485.842.657a1.322 1.322 0 0 0-.842-.657zM35.504 39.3c.183-.295-.015-.48-.189-.665a.106.106 0 0 0-.19.058.66.66 0 0 0 .379.607zM76.247 67.81c-.493-.334-.964-.032-1.451-.007a1.782 1.782 0 0 0 1.451.006zM76.584 69.686c-.019-.086-.014-.138-.038-.165-.192-.213-.375-.473-.718-.277-.05.029-.1.164-.075.202a.634.634 0 0 0 .83.24zM72.31 65.77c.094.04.133.071.173.071.244-.001.514.106.703-.133.027-.033-.025-.168-.077-.218-.268-.256-.466.006-.683.11-.032.016-.047.067-.116.17zM79.642 69.406a.93.93 0 0 0-1.048-.094.864.864 0 0 0 1.048.094zM73 67.637a.374.374 0 0 0 .346.3c.065.005.136-.067.204-.104a4.538 4.538 0 0 0-.376-.295c-.09-.058-.16-.008-.174.1z"></path></g></g></svg>