<svg width="48" height="48" viewBox="0 0 48 48" fill="none" xmlns="http://www.w3.org/2000/svg">
    <path d="M24 46C20.2667 46 16.8333 45.15 13.7 43.45C10.5667 41.75 8 39.4833 6 36.65V42H2V30H14V34H9.05C10.65 36.4 12.7583 38.3333 15.375 39.8C17.9917 41.2667 20.8667 42 24 42C26.5 42 28.8417 41.525 31.025 40.575C33.2083 39.625 35.1083 38.3417 36.725 36.725C38.3417 35.1083 39.625 33.2083 40.575 31.025C41.525 28.8417 42 26.5 42 24H46C46 27.0333 45.425 29.8833 44.275 32.55C43.125 35.2167 41.55 37.55 39.55 39.55C37.55 41.55 35.2167 43.125 32.55 44.275C29.8833 45.425 27.0333 46 24 46ZM22.2 38V35.4C20.6333 35.0333 19.3583 34.3583 18.375 33.375C17.3917 32.3917 16.6667 31.1 16.2 29.5L19.5 28.2C19.9 29.5667 20.525 30.5917 21.375 31.275C22.225 31.9583 23.2 32.3 24.3 32.3C25.4 32.3 26.3417 32.0417 27.125 31.525C27.9083 31.0083 28.3 30.2 28.3 29.1C28.3 28.1333 27.8917 27.35 27.075 26.75C26.2583 26.15 24.8 25.4667 22.7 24.7C20.7333 24 19.2917 23.1667 18.375 22.2C17.4583 21.2333 17 19.9667 17 18.4C17 17.0333 17.475 15.7917 18.425 14.675C19.375 13.5583 20.6667 12.8333 22.3 12.5V10H25.8V12.5C27 12.6 28.0917 13.0833 29.075 13.95C30.0583 14.8167 30.7333 15.8333 31.1 17L27.9 18.3C27.6333 17.5333 27.2 16.8917 26.6 16.375C26 15.8583 25.1667 15.6 24.1 15.6C22.9333 15.6 22.0417 15.85 21.425 16.35C20.8083 16.85 20.5 17.5333 20.5 18.4C20.5 19.2667 20.8833 19.95 21.65 20.45C22.4167 20.95 23.8 21.5333 25.8 22.2C28.2 23.0667 29.8 24.0833 30.6 25.25C31.4 26.4167 31.8 27.7 31.8 29.1C31.8 30.0667 31.6333 30.9167 31.3 31.65C30.9667 32.3833 30.525 33.0083 29.975 33.525C29.425 34.0417 28.7833 34.4583 28.05 34.775C27.3167 35.0917 26.5333 35.3333 25.7 35.5V38H22.2ZM2 24C2 20.9667 2.575 18.1167 3.725 15.45C4.875 12.7833 6.45 10.45 8.45 8.45C10.45 6.45 12.7833 4.875 15.45 3.725C18.1167 2.575 20.9667 2 24 2C27.7333 2 31.1667 2.85 34.3 4.55C37.4333 6.25 40 8.51667 42 11.35V6H46V18H34V14H38.95C37.35 11.6 35.2417 9.66667 32.625 8.2C30.0083 6.73333 27.1333 6 24 6C21.5 6 19.1583 6.475 16.975 7.425C14.7917 8.375 12.8917 9.65833 11.275 11.275C9.65833 12.8917 8.375 14.7917 7.425 16.975C6.475 19.1583 6 21.5 6 24H2Z" fill="#8163BF"/>
</svg>