<svg width="25" height="24" viewBox="0 0 25 24" fill="none" xmlns="http://www.w3.org/2000/svg">
<path d="M11.5624 19H13.3853V17.75C14.2534 17.6 14.9999 17.275 15.6249 16.775C16.2499 16.275 16.5624 15.5333 16.5624 14.55C16.5624 13.85 16.3541 13.2083 15.9374 12.625C15.5208 12.0417 14.6874 11.5333 13.4374 11.1C12.3958 10.7667 11.6753 10.475 11.276 10.225C10.8767 9.975 10.677 9.63333 10.677 9.2C10.677 8.76667 10.8376 8.425 11.1588 8.175C11.48 7.925 11.9444 7.8 12.552 7.8C13.1076 7.8 13.5416 7.92917 13.8541 8.1875C14.1666 8.44583 14.3923 8.76667 14.5312 9.15L16.1978 8.5C16.0069 7.91667 15.6553 7.40833 15.1431 6.975C14.631 6.54167 14.0624 6.3 13.4374 6.25V5H11.6145V6.25C10.7464 6.43333 10.0694 6.8 9.58325 7.35C9.09714 7.9 8.85409 8.51667 8.85409 9.2C8.85409 9.98333 9.0928 10.6167 9.57023 11.1C10.0477 11.5833 10.7985 12 11.8228 12.35C12.9166 12.7333 13.6761 13.075 14.1015 13.375C14.5268 13.675 14.7395 14.0667 14.7395 14.55C14.7395 15.1 14.5355 15.5042 14.1275 15.7625C13.7195 16.0208 13.2291 16.15 12.6562 16.15C12.0833 16.15 11.5754 15.9792 11.1327 15.6375C10.69 15.2958 10.3645 14.7833 10.1562 14.1L8.43742 14.75C8.68047 15.55 9.05808 16.1958 9.57023 16.6875C10.0824 17.1792 10.7464 17.5167 11.5624 17.7V19ZM12.4999 22C11.0589 22 9.70478 21.7375 8.43742 21.2125C7.17006 20.6875 6.06763 19.975 5.13013 19.075C4.19263 18.175 3.45044 17.1167 2.90356 15.9C2.35669 14.6833 2.08325 13.3833 2.08325 12C2.08325 10.6167 2.35669 9.31667 2.90356 8.1C3.45044 6.88333 4.19263 5.825 5.13013 4.925C6.06763 4.025 7.17006 3.3125 8.43742 2.7875C9.70478 2.2625 11.0589 2 12.4999 2C13.9409 2 15.2951 2.2625 16.5624 2.7875C17.8298 3.3125 18.9322 4.025 19.8697 4.925C20.8072 5.825 21.5494 6.88333 22.0963 8.1C22.6431 9.31667 22.9166 10.6167 22.9166 12C22.9166 13.3833 22.6431 14.6833 22.0963 15.9C21.5494 17.1167 20.8072 18.175 19.8697 19.075C18.9322 19.975 17.8298 20.6875 16.5624 21.2125C15.2951 21.7375 13.9409 22 12.4999 22ZM12.4999 20C14.8263 20 16.7968 19.225 18.4114 17.675C20.026 16.125 20.8333 14.2333 20.8333 12C20.8333 9.76667 20.026 7.875 18.4114 6.325C16.7968 4.775 14.8263 4 12.4999 4C10.1735 4 8.20304 4.775 6.58846 6.325C4.97388 7.875 4.16659 9.76667 4.16659 12C4.16659 14.2333 4.97388 16.125 6.58846 17.675C8.20304 19.225 10.1735 20 12.4999 20Z" fill="black"/>
</svg>
