<svg width="16" height="10" viewBox="0 0 16 10" fill="none" xmlns="http://www.w3.org/2000/svg">
<path d="M2 10C1.45 10 0.979167 9.80417 0.5875 9.4125C0.195833 9.02083 0 8.55 0 8V0H2V8H5V0H7V8C7 8.55 6.80417 9.02083 6.4125 9.4125C6.02083 9.80417 5.55 10 5 10H2ZM11 10C10.45 10 9.97917 9.80417 9.5875 9.4125C9.19583 9.02083 9 8.55 9 8V7H11V8H14V6H11C10.45 6 9.97917 5.80417 9.5875 5.4125C9.19583 5.02083 9 4.55 9 4V2C9 1.45 9.19583 0.979167 9.5875 0.5875C9.97917 0.195833 10.45 0 11 0H14C14.55 0 15.0208 0.195833 15.4125 0.5875C15.8042 0.979167 16 1.45 16 2V3H14V2H11V4H14C14.55 4 15.0208 4.19583 15.4125 4.5875C15.8042 4.97917 16 5.45 16 6V8C16 8.55 15.8042 9.02083 15.4125 9.4125C15.0208 9.80417 14.55 10 14 10H11Z" fill="black"/>
</svg>
