<svg viewBox="-319.994 -262.431 639.987 362.431" xmlns="http://www.w3.org/2000/svg" xmlns:xlink="http://www.w3.org/1999/xlink" class="jsx-2263963463 artboard-inner" style="width:229px;height:129.685px;max-height:100%">
    <g fill="#88CCF1"><path d="M-319.994 94.95c9.849 3.366 20.076 5.05 30.682 5.05 9.849 0 17.445-2.02 22.79-6.06 5.346-4.041 8.018-9.891 8.018-17.551 0-6.06-1.6-11.027-4.798-14.9-3.198-3.871-8.544-6.523-16.035-7.954l-7.197-1.389c-3.115-.673-5.261-1.388-6.44-2.146-1.178-.758-1.767-1.852-1.767-3.283 0-2.693 2.104-4.04 6.313-4.04 2.189 0 3.851.442 4.987 1.326 1.137.883 1.705 2.167 1.705 3.85v1.263h19.192v-17.55c-7.24-3.536-16.12-5.303-26.642-5.303-9.427 0-16.919 2.02-22.474 6.06-5.556 4.04-8.334 9.722-8.334 17.046 0 12.626 6.608 20.118 19.824 22.474l6.313 1.137c3.283.589 5.576 1.305 6.881 2.146 1.305.842 1.957 2.105 1.957 3.788 0 3.115-2.273 4.672-6.818 4.672-5.135 0-7.702-2.02-7.702-6.06v-1.263h-20.455ZM-175.79 77.525l-12.12-16.793 10.732-11.995h5.176V28.03h-26.641L-214.3 51.263h-3.03V0h-34.596v20.707h5.556v56.818h-5.556v20.707h34.596V73.99h3.03l13.005 24.242h30.935V77.525ZM-90.171 77.525h-5.556V54.167c0-9.512-2.693-16.54-8.08-21.086-5.388-4.546-14.352-6.818-26.894-6.818-4.967 0-10.06.336-15.278 1.01-5.22.673-10.06 1.557-14.52 2.651v23.233c3.62-1.347 7.596-2.42 11.931-3.22 4.335-.8 8.397-1.2 12.185-1.2 4.63 0 7.912.526 9.848 1.579 1.936 1.052 3.03 3.009 3.283 5.87-27.02.422-40.53 8.587-40.53 24.496 0 6.145 1.81 10.9 5.429 14.267 3.62 3.367 8.586 5.051 14.899 5.051 4.798 0 8.86-1.052 12.184-3.157 3.325-2.104 5.914-4.503 7.766-7.197v8.586h33.333Zm-33.333-8.838v.757c0 3.367-.59 5.977-1.768 7.829-1.179 1.852-2.862 2.778-5.05 2.778-1.6 0-2.842-.442-3.725-1.326-.884-.884-1.326-2.041-1.326-3.472 0-2.357 1.031-4.04 3.093-5.051 2.063-1.01 4.988-1.515 8.776-1.515ZM43.934 77.525h-5.556V51.01c0-7.66-1.746-13.678-5.24-18.055-3.493-4.378-8.733-6.566-15.72-6.566-5.302 0-9.911 1.178-13.825 3.535-3.914 2.357-7.386 5.724-10.417 10.101-1.347-4.377-3.64-7.765-6.881-10.164-3.24-2.399-7.429-3.598-12.563-3.598-9.091 0-16.667 3.872-22.728 11.616V28.03H-83.59v20.707h5.555v28.788h-5.555v20.707h39.899V77.525h-5.304V56.818c0-5.387 2.526-8.08 7.576-8.08 2.357 0 4.125.652 5.303 1.956 1.179 1.305 1.768 3.346 1.768 6.124v20.707h-5.303v20.707H-.006V77.525h-5.303V56.818c0-5.387 2.526-8.08 7.576-8.08 2.357 0 4.125.652 5.303 1.956C8.75 52 9.338 54.04 9.338 56.818v20.707H4.035v20.707h39.899ZM93.252 96.843c3.325 2.105 7.133 3.157 11.426 3.157 8.586 0 15.047-3.199 19.382-9.596 4.335-6.397 6.502-15.488 6.502-27.273 0-11.784-2.167-20.875-6.502-27.272-4.335-6.398-10.796-9.596-19.382-9.596-4.293 0-8.101 1.052-11.426 3.156-3.325 2.105-6.04 4.504-8.144 7.197V0H50.512v20.707h5.555v56.818h-5.555v20.707h34.596v-8.586c2.104 2.694 4.819 5.093 8.144 7.197Zm4.671-21.275c-1.22 1.305-3.051 1.957-5.492 1.957s-4.272-.652-5.493-1.957c-1.22-1.305-1.83-3.346-1.83-6.124V56.818c0-2.778.61-4.819 1.83-6.124 1.221-1.304 3.052-1.957 5.493-1.957 2.441 0 4.272.653 5.492 1.957 1.22 1.305 1.831 3.346 1.831 6.124v12.626c0 2.778-.61 4.82-1.83 6.124ZM146.231 90.593c6.734 6.271 16.078 9.407 28.03 9.407 11.953 0 21.297-3.136 28.03-9.407 6.735-6.27 10.102-15.425 10.102-27.462 0-11.868-3.325-20.98-9.975-27.336-6.65-6.355-16.035-9.532-28.157-9.532-11.952 0-21.296 3.135-28.03 9.406-6.734 6.271-10.1 15.425-10.1 27.462 0 12.037 3.366 21.191 10.1 27.462Zm33.523-15.025c-1.22 1.305-3.052 1.957-5.493 1.957-2.44 0-4.272-.652-5.492-1.957-1.22-1.305-1.83-3.346-1.83-6.124V56.818c0-2.778.61-4.819 1.83-6.124 1.22-1.304 3.051-1.957 5.492-1.957s4.272.653 5.493 1.957c1.22 1.305 1.83 3.346 1.83 6.124v12.626c0 2.778-.61 4.82-1.83 6.124ZM228.567 90.593c6.734 6.271 16.077 9.407 28.03 9.407s21.296-3.136 28.03-9.407c6.734-6.27 10.101-15.425 10.101-27.462 0-11.868-3.325-20.98-9.975-27.336-6.65-6.355-16.035-9.532-28.156-9.532-11.953 0-21.296 3.135-28.03 9.406-6.734 6.271-10.101 15.425-10.101 27.462 0 12.037 3.367 21.191 10.1 27.462Zm33.522-15.025c-1.22 1.305-3.051 1.957-5.492 1.957s-4.272-.652-5.493-1.957c-1.22-1.305-1.83-3.346-1.83-6.124V56.818c0-2.778.61-4.819 1.83-6.124 1.221-1.304 3.052-1.957 5.493-1.957 2.44 0 4.272.653 5.492 1.957 1.22 1.305 1.831 3.346 1.831 6.124v12.626c0 2.778-.61 4.82-1.83 6.124ZM300.296 98.232h19.697V77.525h-19.697Z"/></g><g fill="#88CCF1"><path d="m72.877-209.038 1.914-13.115 2.311-.035-1.955-5.903.786.162a24.15 24.15 0 0 0 1.052-5.156 12.952 12.952 0 0 1 2.536-9.661 9.153 9.153 0 0 0 3.163-7.997c-.34-2.208 1.35-3.035 4.128-2.436 3.021.647 6.028 1.398 9.077 1.858a3.014 3.014 0 0 0 2.581-1.042 6.166 6.166 0 0 1 7.562-3.446 36.608 36.608 0 0 1 9.235 2.498 58.02 58.02 0 0 0 15.576 4.564 28.202 28.202 0 0 0 7.045-1.176 26.76 26.76 0 0 1 3.945-.232c2.021-.007 4.052.235 6.056.087a9.309 9.309 0 0 1 8.52 5.93 9.35 9.35 0 0 0 1.474 3.254c2.979 3.789 2.917 4.726-.872 8.685a12.7 12.7 0 0 1 1.356 4.063 3.737 3.737 0 0 1-1.876 2.844c-3.01 1.1-6.176 1.775-9.284 2.61-5.599 1.498-11.187 3.045-16.807 4.456a52.855 52.855 0 0 1-5.51.814 26.714 26.714 0 0 1 1.489 16.662c-1.035 4.135-1.447 8.422-2.343 12.595a51.875 51.875 0 0 1-2.478 8.68c-2.595 6.373-5.443 12.644-8.235 18.931a14.029 14.029 0 0 1-1.488 2.076 16.89 16.89 0 0 0-2.949 4.46 11.866 11.866 0 0 1-13.288 9.94 3.796 3.796 0 0 0-2.346.67 5.028 5.028 0 0 1-5.73.537 17.292 17.292 0 0 0-3.869-.675c-1.751-.346-3.492-.761-5.502-1.211-2.886 2.973-6.603 2.858-10.198-.54-1.038-.98-2.516-1.512-3.495-2.533a22.458 22.458 0 0 1-2.388-3.633.401.401 0 0 1 .139-.166 88.884 88.884 0 0 1 9.599 1.965 6.526 6.526 0 0 0 5.8.63 43.584 43.584 0 0 1 10.007-1.402 28.722 28.722 0 0 0 17.361-10.305c3.419-4.1 6.488-8.495 9.921-12.582a8.035 8.035 0 0 0 2.049-7.25 6.135 6.135 0 0 1-.243-3.162c2.88-7.236-1.245-13.461-2.778-20.036-.914-3.907-2.125-7.738-3.16-11.44-8.962-1.582-12.928-9.015-18.063-14.987a11.399 11.399 0 0 1-1.343-3.129l.762-.72a18.326 18.326 0 0 1 2.149 1.82c3.522 4.015 6.913 8.147 10.512 12.092a8.741 8.741 0 0 0 8.302 1.574c6.45-.778 12.893-1.62 19.309-2.658a94.525 94.525 0 0 0 9.215-2.3c2.986-.8 6.007-1.523 8.907-2.568a45.259 45.259 0 0 0 5.772-3.132 12.613 12.613 0 0 0-3.322-.702 21.046 21.046 0 0 1-13.288-3.565 6.104 6.104 0 0 1-1.356-1.927 5.33 5.33 0 0 1 2.543-.194 14.402 14.402 0 0 0 12.586 1.637 16.015 16.015 0 0 0 3.512-2.585 14.164 14.164 0 0 0-3.543-2.83 52.9 52.9 0 0 0-6.236-1.195c-1.685-.39-3.876-.221-4.218-3.114 2.007-.325 3.99-.56 5.924-1.007a4.993 4.993 0 0 0 1.602-1.315 5.243 5.243 0 0 0-2.052-1.163c-5.38.045-10.866-1.425-16.108.98a2.377 2.377 0 0 1-1.44-.07 96.574 96.574 0 0 1-16.046-4.796 30.466 30.466 0 0 0-9.886-2.374 6.782 6.782 0 0 0-4.62 2.354 4.81 4.81 0 0 1-5.076 1.865 55.786 55.786 0 0 0-7.298-.862c-2.326-.176-3.039 1.848-2.014 3.98a71.776 71.776 0 0 1 8.599-.021 7.987 7.987 0 0 1 2.955 2.318l-.356.672-1.513.131a10.35 10.35 0 0 1-2.422 4.236 7.845 7.845 0 0 1-3.903-1.8c-.83-.443-1.613-.979-3.004-1.834a12.07 12.07 0 0 0 .277 1.644c.488 1 1 1.986 1.502 2.976a34.812 34.812 0 0 1-3.295-1.353 25.386 25.386 0 0 1-2.854-2.208 31.933 31.933 0 0 0-1.409 5.675c-.19 3.689.09 7.399-.076 11.087a15.665 15.665 0 0 1-1.176 5.983 13.343 13.343 0 0 0 .249 9.7 23.254 23.254 0 0 1-.035 5.018c.01 1.097.218 2.19.263 3.287.049 1.246.01 2.492.01 3.737-1.861-.366-4.024.782-5.512-1.48-1.474-2.243-3.274-4.27-4.914-6.378a11.662 11.662 0 0 0-1.98.771 8.582 8.582 0 0 1-7.425.782 30.23 30.23 0 0 1-13.766-7.197 71.285 71.285 0 0 1-6.322-7.233c-3.948-4.82-7.983-9.585-11.69-14.585-2.36-3.184-4.072-6.835-6.318-10.108a11.717 11.717 0 0 0-3.426-2.481c-1.024-.675-2.1-1.27-3.222-1.942l-3.854.606-2.111 2.274-2.267-3.949a4.253 4.253 0 0 0-.9 1.031c-1.135 2.471-1.83 5.201-5.35 5.575a4.36 4.36 0 0 0-2.041 2.7c-1.869 5.065-6.17 6.768-10.745 8.436a22.32 22.32 0 0 1-17.471-1.544 3.91 3.91 0 0 1-.803-.35q-7.378-5.653-14.731-11.335a5.63 5.63 0 0 0-.817-.817c-2.318-1.038-4.665-2.024-6.907-2.99l-1.107 2.768-4.481-4.01c-1.322 1.09-3.06 2.647-4.956 3.98a2.087 2.087 0 0 1-1.951-.606 15.79 15.79 0 0 1-.727-3.807c-1.751 2.648-3.08 4.938-4.7 7.011a67.413 67.413 0 0 1-6.145 7c-6.153 5.952-12.337 11.88-18.707 17.593-4.623 4.142-9.69 7.797-14.313 11.939-2.37 2.121-4.152 4.893-6.325 7.253a10.018 10.018 0 0 1-2.499 1.336 3.557 3.557 0 0 0-.76.737c2.477 2.623-1.198 3.737-1.41 5.685-.068.658-.601 1.277-.646 1.931-.187 2.848-3.222 2.492-4.489 4.094l-.584-.893a161.875 161.875 0 0 0-6.354 21.503c-2.066 6.928-.678 13.724-1.128 20.545a171.824 171.824 0 0 0 1.128 17.845 12.7 12.7 0 0 1-1.318 5.834c-4.232 8.651-8.713 17.181-12.966 25.822a3.644 3.644 0 0 0 .183 3.298c4.928 4.792 6.471 11.222 8.478 17.354 2.678 8.18 4.949 16.499 7.347 24.773.609 2.093 1.027 4.246 1.515 6.305l14.098 1.014.093-.267a30.936 30.936 0 0 1-4.003-1.232 3.682 3.682 0 0 1-1.627-1.754 3.447 3.447 0 0 1 1.433-1.38 8.122 8.122 0 0 1 2.893-1.004c1.398-1.384-2.827-3.426.716-4.973-2.145-3.675-4.09-7.52-6.52-11.035-2.439-3.537-3.84-7.807-7.522-10.52-1.322-.98-1.502-2.384 1.166-2.623a27.282 27.282 0 0 1-3.218-18.738 49.519 49.519 0 0 1 3.44-10.07c.55-1.63.934-3.322 1.346-4.993a6.142 6.142 0 0 1 .207-1.71c3.194-4.8 3.104-10.592 4.949-15.752a10.907 10.907 0 0 1 5.564-5.851c3.927-1.547 5.869-4.907 8.713-7.406a6.765 6.765 0 0 0 1.838-3.533 46.411 46.411 0 0 1-4.533 3.315 3.443 3.443 0 0 1-2.918.343 3.606 3.606 0 0 1-.609-2.851 15.212 15.212 0 0 1 13.4-12.389 21.96 21.96 0 0 1 3.702.616c2.792-5.685 6.16-11.454 8.495-17.61 2.308-6.083 3.575-12.561 5.295-18.866l1.062.253a18.4 18.4 0 0 1-.187 4.187 125.773 125.773 0 0 1-5.727 18.817 8.859 8.859 0 0 0 .505 9.396 16.658 16.658 0 0 0 2.924 3.252c3.326 3.073 6.579 6.246 10.115 9.06a85.666 85.666 0 0 0 8.537 5.516 119.71 119.71 0 0 0 29.383 11.81 50.678 50.678 0 0 0 24.126 1.827 173.049 173.049 0 0 0 17.506-5.139c.813-.242 1.671-.339 2.633-.529-1.578-3.786-3.149-7.405-4.599-11.077a91.476 91.476 0 0 1-2.436-7.125 4.038 4.038 0 0 1 .38-1.747 5.433 5.433 0 0 1 1.752 1.052 9.796 9.796 0 0 1 .785 2.19c2.409 6 4.835 11.994 7.43 18.416 2.865-3.266-.028-7.786 4.142-10.689l-.962 12.638.917.187 3.1-4.298c2.295 3.993 5.669 6.54 3.14 11.004l1.003.048c.8-1.446 1.62-2.886 2.394-4.346a7.353 7.353 0 0 1 1-2.087 18.454 18.454 0 0 1 2.97-1.82 18.849 18.849 0 0 1 .266 3.45 64.682 64.682 0 0 1-1.142 7.627 9.26 9.26 0 0 1-1.74 2.675 6.052 6.052 0 0 1-1.177-2.689 49 49 0 0 0 1.356-7.1l-5.239 9.758c-2.886-2.661-.522-5.315-1.44-7.572l-2.667 7.226-.97-.09-.096-6.253-.71-.073-2.47 8.409-1.028-.125 1.062-10.139-.633-.145a7.533 7.533 0 0 0-.744 1.612c-.498 2.482-.765 5.018-1.394 7.461-2.703 10.485-1.163 20.88.245 31.338.737 5.467.71 11.039 1.19 16.544.52 5.9 1.125 11.8 1.932 17.662.21 1.557 1.626 2.931 1.903 4.492a18.95 18.95 0 0 1-2.398 10.98c-.222.508-.38 1.048-.509 1.39l22.867-1.293.235-.98c-1.152-.443-2.305-.875-3.45-1.332-2.326-.93-4.706-1.744-6.945-2.855-1.42-.706-1.443-1.9.135-2.557 2.626-1.094 5.318-2.031 8.235-3.132-2.85-4.253-3.747-9.81-8.045-14.063a21.71 21.71 0 0 1-5.924-17.382c.11-1.557.294-3.107.346-4.66a81.7 81.7 0 0 1 5.363-26.134 70.835 70.835 0 0 1 6.174-10.194 8.343 8.343 0 0 0 .727-2.921c.415-2.63.685-5.284 1.176-7.9a2.495 2.495 0 0 1 1.312-1.758c4.104-.74 5.419-4.481 7.837-7.021a85.261 85.261 0 0 0 5.932-6.264 16.011 16.011 0 0 0 2.446-5.221 3.29 3.29 0 0 1 3.983-2.89 2.56 2.56 0 0 0 3.184-2.27c.491-2.765.605-5.595 1.117-8.353a19.091 19.091 0 0 1 1.571-3.8l.817.29a41.41 41.41 0 0 0-1.817-7.84 61.353 61.353 0 0 0-4.73-7.458 14.264 14.264 0 0 1-.969-2.387 6.492 6.492 0 0 1 2.665.674c4.879 4.315 5.657 10.465 7.017 16.327a2.547 2.547 0 0 1-.342 1.972c-2.883 3.287-2.333 7.495-2.928 11.309a4.98 4.98 0 0 1-4.44 4.131 4.817 4.817 0 0 0-2.906 1.776c-1.06 5.453-5.686 8.045-8.952 11.717-1.987 2.235-4.05 4.401-5.97 6.689a5.319 5.319 0 0 0-1.609 2.993c.332 5.467-2.886 9.582-5.658 13.496a34.57 34.57 0 0 0-5.453 10.793 128.33 128.33 0 0 0-3.201 18.063 29.39 29.39 0 0 0 3.689 21.032c4.613 6.78 8.758 13.908 13.807 20.334 1.63 2.07 2.467 4.395 3.865 6.47a3.052 3.052 0 0 1-1.46 2.26 40.387 40.387 0 0 1-6.845 1.16c-8.222.81-16.447.868-24.68 2.45a30.296 30.296 0 0 1-19.357-2.744 36.428 36.428 0 0 0-6.71-1.983c1.118-6.526 2.502-12.894 3.232-19.334.938-8.294 1.353-16.651 1.997-24.984a2.007 2.007 0 0 0 .062-.865c-2.934-6.125.685-11.073 3.595-15.561a110.689 110.689 0 0 0 10.638-25.185c.903-2.637 1.951-5.226 3.176-8.482a19.818 19.818 0 0 0-3.384.56c-11.575 4.385-23.44 7.08-35.722 3.99a197.801 197.801 0 0 1-25.586-8.173 118.679 118.679 0 0 1-16.455-9.385 2.585 2.585 0 0 0-4.228.776 100.595 100.595 0 0 1-10.437 11.824 13.264 13.264 0 0 0-4.049 9.872c-.17 4.264-.664 8.516-.74 12.776a52.553 52.553 0 0 1 .495 8.437c-1.243 6.505 2.11 11.315 5.329 16.101 3.84 5.724 8.443 10.935 12.136 16.745a79.244 79.244 0 0 1 6.336 13.392 16.312 16.312 0 0 0 10.388 9.468 12.859 12.859 0 0 1 2.848 2.592l7.855 4.823a8.741 8.741 0 0 1-8.35 3.437c-5.855-.236-11.728.02-17.586-.122a34.59 34.59 0 0 1-8.945-.979 5.807 5.807 0 0 1-4.55-5.896 56.882 56.882 0 0 0-3.295-12.347 83.009 83.009 0 0 0-13.028-27.88c-1.776-2.312-2.97-5.06-4.672-7.44a21.136 21.136 0 0 0-4.187-4.427 9.793 9.793 0 0 1-3.544-10.294c1.37-7.433 2.291-14.956 3.319-22.452.3-2.197.325-4.429.474-6.616a6.267 6.267 0 0 0-7.412 4.277c-2.547 8.554-4.648 17.278-7.752 25.625a27.164 27.164 0 0 0-2.055 15.565 33.708 33.708 0 0 0 3.052 8.678 119.01 119.01 0 0 0 7.786 12.558c2.851 4.039 6.097 7.807 9.219 11.655 3.18 3.92 6.484 7.744 9.592 11.72 1.194 1.526.114 2.499-1.422 2.457-7.762-.207-15.524-.54-23.282-.844-.481-.02-.952-.242-1.433-.263a11.118 11.118 0 0 1-5.294-.38 9.713 9.713 0 0 1-1.79-5.029c-1.529-6.128-2.646-12.388-4.56-18.388-2.447-7.672-5.502-15.15-8.35-22.694a5.72 5.72 0 0 0-1.298-1.574c-3.443-3.748-3.554-3.803-1.304-8.202 3.53-6.893 7.225-13.703 10.841-20.551a47.525 47.525 0 0 0 2.63-5.19 6.689 6.689 0 0 0 .526-3.956c-2.215-7.128-.052-14.399-.9-21.555a20.26 20.26 0 0 0-1.218-5.786c-1.8 4.084-3.426 8.26-5.443 12.236-2.53 4.994-2.453 10.5-3.595 15.763-.962 4.44-1.97 8.872-2.862 13.322-.46 2.284-.633 4.62-1.107 6.897a11.274 11.274 0 0 1-1.267 2.581l-1.803-1.903-1.142-1.2a6.46 6.46 0 0 1-.623 1.556c-.768.92-1.62 1.769-2.436 2.648a11.073 11.073 0 0 1-2.616-3.8 27.279 27.279 0 0 1 2.748-14.09c2.81-7.022 6.689-13.61 7.983-21.275a106.18 106.18 0 0 1 4.402-17.469 114.845 114.845 0 0 1 13.703-28.42 82.168 82.168 0 0 1 6.056-8.783 66.322 66.322 0 0 1 15.97-13.495 7.855 7.855 0 0 0 2.045-1.613c6.131-6.993 14.232-11.696 20.935-18.011a190.739 190.739 0 0 0 11.973-12.42 7.98 7.98 0 0 0 1.537-4.796 17.326 17.326 0 0 1 7.682-12.423 4.734 4.734 0 0 0 1.592-1.221c1.716-1.987 3.53-1.412 5.917-1.236 4.232.312 6.038 4.471 9.866 4.92a1.806 1.806 0 0 1 .854 1.119 24.804 24.804 0 0 0 10.555 12.388 46.716 46.716 0 0 1 3.543 4.488 16.517 16.517 0 0 0 4.343 1.966c1.377.602 2.73 1.26 4.121 1.82 3.021 1.218 5.803 3.502 9.447 1.778 1.291-.609 2.907-.512 4.212-1.096a13.15 13.15 0 0 0 6.92-5.987c1.561-3.097 3.606-5.945 5.25-9.004 1.782-3.315 3.273-6.79 5.031-10.118a17.814 17.814 0 0 1 2.859-3.976 2.858 2.858 0 0 1 3.83-.146c6.087 2.931 8.288 8.029 9.783 14.174a51.377 51.377 0 0 0 5.398 12.544 42.09 42.09 0 0 0 6.108 7.381c5.89 6.43 10.225 14.368 17.831 19.098a44.037 44.037 0 0 0 8.087 2.679 6.056 6.056 0 0 0 6.814-.329 3.855 3.855 0 0 0 1.062-.948c1.291-2.782 1.27-2.793 4.343-1.872zm50.765 9.942-3.658-.63 1.959 5 1.664-4.408 1.564-5.859-6.755-3.204c1.308 2.12 2.471 3.941 3.558 5.803.623 1.062 1.117 2.197 1.668 3.298zM-82.191-70.292c-4.097-6.029-8.063-11.79-11.922-17.624a6.353 6.353 0 0 1-1.017-3.288c-.028-6.893.094-13.786.149-20.68.007-1.252-.087-2.505-.107-3.76-.104-5.825-1.782-12.123 4.758-15.978a1.422 1.422 0 0 0 .19-.633c-3.024-3.25-.758-6.215.851-9 2.232-3.866 5.27-6.516 10.485-4.762L-91.63-159.17c-.755 1.055-1.654 2.287-2.527 3.543-2.823 4.07-5.592 8.177-8.46 12.212-3.457 4.859-9.817 8.208-8.063 15.738a1.768 1.768 0 0 1-.062.582c-1.17 9.118-2.499 18.226-3.385 27.372a7.706 7.706 0 0 0 1.997 5.938c6.173 4.903 9.125 12.077 13.634 18.132a49.114 49.114 0 0 1 6.959 15.112c1.734 5.554 3.744 11.021 5.537 16.558a11.177 11.177 0 0 1 .612 4.038 3.71 3.71 0 0 0 3.54 4.177 24.202 24.202 0 0 0 4.928.498c5.104-.01 10.208-.134 15.309-.214a69.444 69.444 0 0 0-7.724-4.038 15.683 15.683 0 0 1-4.869-3.99 8.834 8.834 0 0 1-.443-4.125c1.142.263 2.298.474 3.42.806a9.08 9.08 0 0 1 1.698 1.035l-3.277 1.595 5.212 3.038c1.086-3.813-1.793-6.93-3.945-10.104-3.703-5.468-7.637-10.78-11.454-16.167-1.038-1.46-1.454-2.768.803-2.858zm91.33-57.637a30.829 30.829 0 0 0-1.75 3.384c-1.92 5.201-3.575 10.513-5.703 15.624-1.672 4.02-3.935 7.796-5.862 11.713a463.89 463.89 0 0 0-5.34 11.288 3.509 3.509 0 0 0-.08 1.689 76.455 76.455 0 0 1 .946 10.277c-.322 7.665-1.052 15.32-1.7 22.97a46.813 46.813 0 0 1-1.038 6.506c-.567 2.464-1.366 4.876-2.024 7.167 7.035 2.959 13.42 5.606 21.143 4.049l-10.599-9.153c2.145-1.64 3.959-2.883 5.557-4.36a3.01 3.01 0 0 0 .177-2.274 49.875 49.875 0 0 1-1.44-6.125A106.685 106.685 0 0 0 .77-69.375 17.465 17.465 0 0 1 5.703-85.92a4.706 4.706 0 0 0 1.398-5.273c-2.124-4.873-.982-9.883-.709-14.735.415-7.24 1.754-14.426 2.748-22.001zm2.956 85.714a393.212 393.212 0 0 1-4.277-42.262 13.32 13.32 0 0 0-4.824 13.835c.685 5.886.415 11.921 1.523 17.707a14.05 14.05 0 0 0 7.578 10.72zm-142.11-140.828c-5.761 5.252-19.69 41.2-17.513 48.072 6.97-15.839 13.918-31.4 17.51-48.072zm236.922 23.126a10.011 10.011 0 0 0-1.488 3.287 5.824 5.824 0 0 1-2.934 6.312c-1.146.53-2.264 1.124-3.426 1.612-1.049.44-2.139.772-3.727 1.333 4.336 2.93 6.426-.464 8.79-1.904a10.89 10.89 0 0 0 2.785-10.64zm16.5-50.02c-.492-6.109-4.645-8.361-9.998-5.686zm-271.066 81.433c-2.723.416-5.364 3.475-4.205 4.582 2.734 2.616.786 5.357 1.087 8.115a27.088 27.088 0 0 0 3.114-12.697zm59.37-7.004 7.634-7.163-.156-.934a6.367 6.367 0 0 0-3.08.121 8.52 8.52 0 0 0-4.394 7.976zm-16.886-13.277-.405-.37a12.022 12.022 0 0 0-4.222 1.557 14.824 14.824 0 0 0-2.343 4.266l1.004.696zm.91 3.986 4.263-5.848-.419-.806-4.055.062c3.951 2.578-1.724 4.218.21 6.592zm51.882-108.041 3.086 4.914.724-.457a3.45 3.45 0 0 0-3.807-4.457zm-102 135.718-.654-.305-2.467 7.499 1.149.346zm241.586-29.404.07-1.003-5.904-.319c1.765 3.132 3.91.603 5.834 1.322zm28.653-62.093a7.187 7.187 0 0 0-.353 2.494 12.028 12.028 0 0 0 1.536 2.651 2.267 2.267 0 0 0 .928-.335 17.603 17.603 0 0 0-.706-2.855 11.378 11.378 0 0 0-1.405-1.955z"/><path d="M109.703-243.577a9.274 9.274 0 0 1 10.322-3.557c1.668.502 3.385.872 4.99 1.523 1.848.747 2.084 2.574.582 3.367a48.401 48.401 0 0 1-9.62 3.668 5.26 5.26 0 0 1-3.19-1.741 34.992 34.992 0 0 1-3.08-3.26z"/></g>
</svg>