<svg width="488" height="200" viewBox="0 0 488 200" fill="none" xmlns="http://www.w3.org/2000/svg">
<g clip-path="url(#clip0_360_48)">
<path d="M196.242 112.049C199.071 114.683 202.995 116 208.015 116C210.808 116 213.398 115.726 215.784 115.178C218.17 114.63 219.982 114.02 221.22 113.348V104.864C219.77 105.359 218.073 105.765 216.129 106.083C214.184 106.401 212.134 106.561 209.977 106.561C208.174 106.561 206.884 106.251 206.106 105.633C205.328 105.014 204.939 104.05 204.939 102.742V102.424H222.121V98.606C222.121 94.7525 221.016 91.5265 218.807 88.928C216.597 86.3295 213 85.0303 208.015 85.0303C202.995 85.0303 199.071 86.3472 196.242 88.981C193.414 91.6149 192 95.4596 192 100.515C192 105.571 193.414 109.415 196.242 112.049ZM211.091 96.5909H204.939V95.9545C204.939 94.7879 205.196 93.9305 205.708 93.3825C206.221 92.8346 206.99 92.5606 208.015 92.5606C209.04 92.5606 209.809 92.8257 210.322 93.356C210.835 93.8863 211.091 94.7525 211.091 95.9545V96.5909Z" fill="#80655B"/>
<path d="M224.948 113.879C229.084 115.293 233.38 116 237.834 116C241.971 116 245.161 115.151 247.406 113.455C249.651 111.758 250.774 109.3 250.774 106.083C250.774 103.538 250.102 101.452 248.759 99.8257C247.415 98.1995 245.17 97.0858 242.024 96.4848L239.001 95.9015C237.693 95.6187 236.791 95.3182 236.296 95C235.802 94.6818 235.554 94.2222 235.554 93.6212C235.554 92.4899 236.438 91.9242 238.206 91.9242C239.125 91.9242 239.823 92.1098 240.3 92.481C240.778 92.8522 241.016 93.3914 241.016 94.0985V94.6288H249.077V87.2575C246.036 85.7727 242.307 85.0303 237.887 85.0303C233.928 85.0303 230.781 85.8788 228.448 87.5757C226.115 89.2727 224.948 91.6591 224.948 94.7348C224.948 100.038 227.723 103.184 233.274 104.174L235.925 104.651C237.304 104.899 238.267 105.199 238.815 105.553C239.363 105.907 239.637 106.437 239.637 107.144C239.637 108.452 238.683 109.106 236.774 109.106C234.617 109.106 233.539 108.258 233.539 106.561V106.03H224.948V113.879Z" fill="#80655B"/>
<path d="M257.736 112.049C260.565 114.683 264.507 116 269.562 116C271.895 116 274.149 115.788 276.323 115.364C278.498 114.939 280.186 114.462 281.388 113.932V105.606C277.499 106.242 274.087 106.561 271.153 106.561C268.007 106.561 266.433 105.182 266.433 102.424V97.8636C266.433 95.601 267.459 94.4697 269.509 94.4697C270.57 94.4697 271.347 94.7437 271.842 95.2916C272.337 95.8396 272.585 96.6969 272.585 97.8636V98.8182H281.706V88.3182C280.469 87.4697 278.736 86.7096 276.509 86.0378C274.282 85.3661 271.948 85.0303 269.509 85.0303C264.489 85.0303 260.565 86.3472 257.736 88.981C254.908 91.6149 253.494 95.4596 253.494 100.515C253.494 105.571 254.908 109.415 257.736 112.049Z" fill="#80655B"/>
<path d="M315.661 106.561H313.328V96.75C313.328 92.755 312.197 89.803 309.934 87.8939C307.671 85.9848 303.906 85.0303 298.639 85.0303C296.553 85.0303 294.414 85.1717 292.222 85.4545C290.03 85.7373 287.997 86.1086 286.123 86.5682V96.3257C287.644 95.7601 289.314 95.3093 291.135 94.9735C292.955 94.6376 294.661 94.4697 296.252 94.4697C298.197 94.4697 299.575 94.6906 300.389 95.1325C301.202 95.5745 301.661 96.3964 301.767 97.5985C290.419 97.7752 284.745 101.205 284.745 107.886C284.745 110.467 285.505 112.465 287.025 113.879C288.545 115.293 290.631 116 293.283 116C295.298 116 297.003 115.558 298.4 114.674C299.796 113.79 300.884 112.783 301.661 111.651V115.258H315.661V106.561ZM301.661 102.848V103.167C301.661 104.581 301.414 105.677 300.919 106.455C300.424 107.232 299.717 107.621 298.798 107.621C298.126 107.621 297.604 107.436 297.233 107.064C296.862 106.693 296.676 106.207 296.676 105.606C296.676 104.616 297.11 103.909 297.976 103.485C298.842 103.061 300.07 102.848 301.661 102.848Z" fill="#80655B"/>
<path d="M349.51 106.561H347.177V96.75C347.177 92.755 346.046 89.803 343.783 87.8939C341.521 85.9848 337.755 85.0303 332.488 85.0303C330.402 85.0303 328.263 85.1717 326.071 85.4545C323.879 85.7373 321.846 86.1086 319.973 86.5682V96.3257C321.493 95.7601 323.163 95.3093 324.984 94.9735C326.805 94.6376 328.51 94.4697 330.101 94.4697C332.046 94.4697 333.425 94.6906 334.238 95.1325C335.051 95.5745 335.51 96.3964 335.616 97.5985C324.268 97.7752 318.594 101.205 318.594 107.886C318.594 110.467 319.354 112.465 320.874 113.879C322.394 115.293 324.48 116 327.132 116C329.147 116 330.853 115.558 332.249 114.674C333.646 113.79 334.733 112.783 335.51 111.651V115.258H349.51V106.561ZM335.51 102.848V103.167C335.51 104.581 335.263 105.677 334.768 106.455C334.273 107.232 333.566 107.621 332.647 107.621C331.975 107.621 331.454 107.436 331.082 107.064C330.711 106.693 330.526 106.207 330.526 105.606C330.526 104.616 330.959 103.909 331.825 103.485C332.691 103.061 333.92 102.848 335.51 102.848Z" fill="#80655B"/>
<path d="M406.004 106.561H403.67V95.4242C403.67 92.207 402.937 89.6793 401.47 87.8409C400.002 86.0025 397.802 85.0833 394.867 85.0833C392.64 85.0833 390.704 85.5783 389.061 86.5682C387.417 87.5581 385.958 88.9722 384.686 90.8106C384.12 88.9722 383.157 87.5492 381.795 86.5416C380.434 85.5341 378.675 85.0303 376.519 85.0303C372.701 85.0303 369.519 86.6565 366.973 89.9091V85.7727H352.443V94.4697H354.776V106.561H352.443V115.258H369.201V106.561H366.973V97.8636C366.973 95.601 368.034 94.4697 370.155 94.4697C371.145 94.4697 371.888 94.7437 372.383 95.2916C372.877 95.8396 373.125 96.6969 373.125 97.8636V106.561H370.898V115.258H387.549V106.561H385.322V97.8636C385.322 95.601 386.383 94.4697 388.504 94.4697C389.494 94.4697 390.236 94.7437 390.731 95.2916C391.226 95.8396 391.473 96.6969 391.473 97.8636V106.561H389.246V115.258H406.004V106.561Z" fill="#80655B"/>
<path d="M426.887 114.674C428.284 115.558 429.884 116 431.687 116C435.293 116 438.006 114.657 439.827 111.97C441.648 109.283 442.558 105.465 442.558 100.515C442.558 95.5657 441.648 91.7475 439.827 89.0606C438.006 86.3737 435.293 85.0303 431.687 85.0303C429.884 85.0303 428.284 85.4722 426.887 86.3561C425.491 87.2399 424.351 88.2475 423.467 89.3788V74H408.937V82.697H411.27V106.561H408.937V115.258H423.467V111.652C424.351 112.783 425.491 113.79 426.887 114.674ZM428.85 105.739C428.337 106.287 427.568 106.561 426.543 106.561C425.517 106.561 424.749 106.287 424.236 105.739C423.723 105.191 423.467 104.333 423.467 103.167V97.8636C423.467 96.697 423.723 95.8396 424.236 95.2917C424.749 94.7437 425.517 94.4697 426.543 94.4697C427.568 94.4697 428.337 94.7437 428.85 95.2917C429.362 95.8396 429.618 96.697 429.618 97.8636V103.167C429.618 104.333 429.362 105.191 428.85 105.739Z" fill="#80655B"/>
<path d="M449.308 112.049C452.136 114.683 456.061 116 461.081 116C466.101 116 470.025 114.683 472.854 112.049C475.682 109.415 477.096 105.571 477.096 100.515C477.096 95.5303 475.7 91.7033 472.907 89.0341C470.114 86.3649 466.172 85.0303 461.081 85.0303C456.061 85.0303 452.136 86.3472 449.308 88.981C446.48 91.6149 445.066 95.4596 445.066 100.515C445.066 105.571 446.48 109.415 449.308 112.049ZM463.388 105.739C462.875 106.287 462.106 106.561 461.081 106.561C460.056 106.561 459.287 106.287 458.774 105.739C458.261 105.191 458.005 104.333 458.005 103.167V97.8636C458.005 96.6969 458.261 95.8396 458.774 95.2916C459.287 94.7437 460.056 94.4697 461.081 94.4697C462.106 94.4697 462.875 94.7437 463.388 95.2916C463.9 95.8396 464.157 96.6969 464.157 97.8636V103.167C464.157 104.333 463.9 105.191 463.388 105.739Z" fill="#80655B"/>
<path d="M479.605 115.258H487.877V106.561H479.605V115.258Z" fill="#80655B"/>
<path d="M124.486 40.5156C124.553 40.2618 124.674 40.0258 124.842 39.8241C125.01 39.6224 125.22 39.4599 125.457 39.3481C125.695 39.2363 125.954 39.1779 126.216 39.1771C126.478 39.1762 126.738 39.2329 126.976 39.3431C127.258 39.4331 127.251 39.0356 127.156 38.6856C126.881 37.6781 127.628 37.7606 128.296 37.6856C129.596 37.5381 129.853 38.5106 130.376 39.3481C130.681 39.8356 131.001 41.0356 131.961 40.2206C132.408 39.8381 132.541 39.2631 132.996 40.0981C133.713 41.3105 134.754 42.2995 136.001 42.9547C137.248 43.6098 138.653 43.9053 140.058 43.8081C142.569 43.7711 145.074 44.0636 147.508 44.6781C149.134 45.4733 150.528 46.6725 151.557 48.1608C152.586 49.6491 153.216 51.3766 153.386 53.178C153.361 53.498 153.381 53.948 153.188 54.113C151.863 55.2455 152.666 56.4405 152.963 57.663C153.433 59.613 152.688 60.5855 150.673 60.5255C148.929 60.3972 147.213 60.0157 145.578 59.393C145.002 59.0826 144.332 58.992 143.693 59.138C141.891 60.0236 140.401 61.4354 139.419 63.1867C138.437 64.9379 138.009 66.9461 138.193 68.9454C138.681 70.7269 139.357 72.4515 140.208 74.0904C141.991 78.3529 144.043 82.6554 141.773 87.4378C141.632 87.8469 141.638 88.2922 141.788 88.6978C142.241 90.021 142.302 91.4467 141.964 92.8038C141.626 94.1608 140.904 95.3914 139.883 96.3478C139.797 96.4821 139.663 96.5784 139.508 96.6169C139.354 96.6555 139.19 96.6335 139.051 96.5553C138.248 95.8303 139.606 94.6628 138.496 93.8803C137.408 94.6778 137.821 95.8703 137.551 96.8503C137.061 98.6403 137.801 101.358 134.441 101.145C133.871 101.11 133.743 101.893 133.496 102.363C133.188 102.945 132.811 103.788 132.146 103.608C129.521 102.883 129.066 104.808 128.326 106.483C128.243 106.741 128.084 106.968 127.87 107.134C127.656 107.3 127.396 107.397 127.126 107.413C127.328 105 127.396 105.263 125.326 105.798C123.443 106.288 122.211 109.365 119.684 107.308C119.484 107.56 119.266 107.803 119.089 108.07C118.887 108.456 118.662 108.828 118.414 109.185C117.749 109.955 117.036 110.563 115.879 110.01C114.766 109.48 114.431 108.905 115.171 107.745C115.571 107.12 115.146 106.578 114.361 106.33C112.134 105.63 110.709 106.418 110.426 108.775C110.166 110.925 110.239 113.118 109.971 115.268C110.003 118.422 109.429 121.554 108.281 124.493C107.377 125.859 106.772 127.401 106.506 129.018C106.411 130.175 105.586 130.278 104.669 130.438C102.794 130.77 102.006 131.745 101.526 133.838C100.689 138.657 100.299 143.544 100.361 148.435C100.119 150.176 100.399 151.951 101.165 153.533C101.931 155.116 103.15 156.435 104.666 157.325C105.372 157.756 105.97 158.343 106.414 159.041C106.858 159.739 107.136 160.53 107.226 161.352C107.516 163.427 106.011 165.41 104.451 164.765C101.488 163.654 98.3119 163.23 95.1612 163.522C94.5595 163.489 93.9765 163.302 93.4682 162.978C92.9599 162.655 92.5434 162.206 92.2587 161.675C91.4462 160.577 92.2862 159.91 92.6337 159.042C94.1413 155.789 94.506 152.122 93.6687 148.635C92.6187 144.685 92.2062 140.547 90.7837 136.68C89.5387 133.305 89.1237 129.365 85.1237 127.563C83.9879 128.367 83.012 129.376 82.2462 130.538C81.3437 131.803 80.8137 133.343 78.7613 132.27C78.2113 131.983 77.7463 132.56 77.5338 133.075C76.0188 136.71 73.3413 139.7 71.8588 143.347C70.7993 146.344 70.7101 149.598 71.6038 152.647C71.7068 153.125 71.9264 153.569 72.2432 153.941C72.5599 154.313 72.9638 154.6 73.4188 154.777C74.3063 155.192 75.3788 155.727 75.5388 156.702C75.8888 158.807 77.3838 159.687 79.2088 160.497C78.0713 161.152 76.8788 159.405 76.0963 160.802C74.8363 163.06 72.8438 162.61 71.2763 161.745C68.3961 160.222 65.1574 159.508 61.9039 159.677C59.6114 159.717 58.6139 158.76 58.8789 156.487C59.0689 154.895 58.4039 154.385 57.2639 153.767C56.4103 153.276 55.4236 153.066 54.4439 153.167C52.7939 153.352 51.5514 152.317 50.1189 151.857C49.912 151.78 49.7427 151.626 49.646 151.427C49.5492 151.229 49.5324 151.001 49.5989 150.79C49.6098 150.652 49.653 150.519 49.7249 150.4C49.7968 150.282 49.8955 150.183 50.0131 150.11C50.1306 150.037 50.2636 149.992 50.4014 149.98C50.5392 149.968 50.678 149.989 50.8064 150.04C53.4714 151.122 56.4214 150.687 59.1014 151.677C60.9089 152.347 61.3264 152.142 62.0014 150.392C64.1413 144.82 66.7188 139.425 68.4088 133.67C68.8588 132.145 69.0963 131.053 67.7713 129.9C66.8456 129.049 66.1261 127.998 65.6678 126.827C65.2094 125.656 65.0243 124.396 65.1263 123.143C65.1513 121.29 64.8488 119.413 65.0588 117.59C65.2463 115.945 63.3263 115.155 63.7488 113.525C63.7888 113.365 63.3238 113.153 62.9463 113.235C61.4711 113.244 60.017 112.884 58.7164 112.188C56.8089 111.513 55.4914 108.753 52.8564 110.37C52.4089 110.645 52.2089 110.015 51.9014 109.755C51.2392 109.223 50.6763 108.578 50.2389 107.85C49.2764 106.21 48.2939 106.335 47.2539 108.03C46.7632 109.121 46.0893 110.119 45.2614 110.983C43.1926 112.923 41.5776 115.296 40.5315 117.933C39.2446 120.078 38.2587 122.389 37.6015 124.803C36.4115 130.228 37.804 135.218 39.3015 140.383C40.6841 144.756 43.4174 148.579 47.1089 151.302C47.7249 151.752 48.3143 152.237 48.8739 152.755C50.5358 154.165 51.9173 155.876 52.9464 157.797C53.4964 159.09 53.9689 160.437 52.8639 161.427C52.3185 161.985 51.6038 162.345 50.8317 162.453C50.0595 162.56 49.2734 162.409 48.5964 162.022C46.2062 160.717 43.6333 159.778 40.964 159.237C40.0912 159.12 39.2942 158.679 38.7297 158.003C38.1652 157.327 37.8742 156.465 37.914 155.585C38.0165 155.013 37.9024 154.424 37.594 153.932C35.294 154.11 33.039 153.01 30.6315 153.34C30.4966 153.371 30.3566 153.373 30.2209 153.345C30.0853 153.318 29.957 153.262 29.8447 153.181C29.7323 153.1 29.6385 152.996 29.5694 152.876C29.5003 152.756 29.4576 152.623 29.444 152.485C29.432 152.32 29.4542 152.154 29.5092 151.998C29.5642 151.842 29.6509 151.699 29.7639 151.578C29.8768 151.457 30.0135 151.361 30.1654 151.296C30.3173 151.23 30.4811 151.197 30.6465 151.197C32.0168 150.837 33.4518 150.8 34.839 151.087C35.2874 151.294 35.7792 151.39 36.2725 151.365C36.7657 151.341 37.2457 151.198 37.6715 150.947C34.614 144.4 29.759 139.068 26.4691 132.495C24.9591 134.47 25.4191 136.43 25.0016 138.185C24.3412 142.497 24.5178 146.897 25.5216 151.142C25.757 151.989 26.3011 152.717 27.0466 153.182C29.1215 154.932 31.1515 156.735 33.189 158.53C33.892 159.034 34.3791 159.785 34.5533 160.632C34.7275 161.48 34.576 162.362 34.129 163.102C33.1215 164.897 31.6665 163.81 30.3815 163.635C29.8565 163.562 29.3815 163.147 28.8566 163.08C26.7691 162.807 25.3291 160.995 23.1066 160.902C20.2816 160.785 20.2016 160.332 19.4466 157.752C17.2166 150.125 16.5616 142.16 14.3666 134.523C13.7505 133.123 13.5879 131.566 13.9017 130.069C14.2156 128.572 14.9901 127.212 16.1166 126.178C16.5804 125.712 16.9385 125.152 17.1666 124.535C20.0252 118.27 21.4082 111.433 21.2091 104.55C21.2001 104.046 21.0761 103.55 20.8464 103.101C20.6168 102.651 20.2877 102.261 19.8841 101.958C19.2013 104.591 18.9888 107.325 19.2566 110.033C19.429 111.334 19.3492 112.656 19.0216 113.928C18.9957 114.174 18.9182 114.411 18.7942 114.625C18.6701 114.839 18.5024 115.024 18.3018 115.169C18.1012 115.314 17.8724 115.414 17.6303 115.465C17.3881 115.515 17.1381 115.513 16.8966 115.46C16.6782 115.451 16.4637 115.398 16.2661 115.305C16.0685 115.211 15.8917 115.079 15.7462 114.915C15.6007 114.752 15.4895 114.561 15.4191 114.354C15.3487 114.147 15.3207 113.928 15.3366 113.71C15.3087 112.195 15.3655 110.679 15.5066 109.17C15.9545 104.955 15.9679 100.705 15.5466 96.4878C14.8892 93.3962 14.6388 90.2319 14.8016 87.0753C15.1126 82.6559 16.0416 78.3019 17.5616 74.1404C18.9681 70.6154 21.3536 67.5663 24.4366 65.353C26.2691 64.008 28.7615 63.338 29.9465 61.403C32.0947 58.692 34.3793 56.092 36.7915 53.613C37.9169 51.8379 39.6746 50.5564 41.709 50.0281C46.3764 49.1881 48.9839 45.9831 51.1339 42.1956C51.8949 40.9302 52.9322 39.8533 54.1682 39.0455C55.4042 38.2376 56.8069 37.7198 58.2714 37.5306C60.2984 37.1366 62.3993 37.4601 64.2138 38.4456C65.3205 39.0303 66.2674 39.8767 66.972 40.9112C67.6766 41.9456 68.1175 43.1367 68.2563 44.3806C68.3463 45.8806 68.5138 47.3956 68.5613 48.9131C68.4915 50.5533 68.8075 52.1871 69.4838 53.683C69.6363 54.0371 69.8938 54.3358 70.2215 54.5388C70.5492 54.7418 70.9314 54.8392 71.3163 54.818C72.1363 54.768 72.3163 54.0855 72.5188 53.473C72.9813 52.147 73.2737 50.7677 73.3888 49.3681C73.3713 47.8895 73.7989 46.4399 74.6162 45.2076C75.4334 43.9752 76.6024 43.0173 77.9713 42.4581C81.4277 40.8529 85.2593 40.2302 89.0462 40.6581C91.284 40.8395 93.395 41.7716 95.0367 43.3031C96.6785 44.8346 97.7548 46.8757 98.0911 49.0956C98.9861 53.2405 99.8186 57.4005 100.649 61.558C101.272 64.8303 102.557 67.9406 104.427 70.6977C106.296 73.4548 108.709 75.8004 111.519 77.5904C112.195 78.1072 112.99 78.4462 113.831 78.5764C114.672 78.7066 115.532 78.6237 116.333 78.3355C117.134 78.0472 117.85 77.5628 118.415 76.9264C118.98 76.2901 119.377 75.5221 119.569 74.6929C120.024 73.4565 120.134 72.1198 119.889 70.8254C118.654 66.9655 119.911 63.3105 120.563 59.658C121.156 56.3705 121.429 56.4205 118.664 54.4055C117.403 53.5641 116.505 52.2797 116.148 50.8071C115.79 49.3344 115.999 47.7812 116.734 46.4556C117.786 44.5731 119.424 45.6881 120.609 45.3106C121.134 43.9856 119.451 43.6306 119.739 42.5531C120.514 42.1031 120.956 43.4181 121.718 42.9281C122.046 41.8606 121.541 40.8031 121.636 39.6981C122.633 39.7687 123.603 40.0472 124.486 40.5156ZM40.6065 154.837C40.169 155.9 41.269 156.637 42.2165 156.952C43.3557 157.274 44.5115 157.532 45.6789 157.727C44.9814 155.517 45.1615 155.34 47.9414 155.552C45.1676 153.219 42.5806 150.672 40.204 147.935C39.879 147.527 39.4115 147.165 38.829 147.627C38.9783 147.472 39.0747 147.274 39.1044 147.061C39.134 146.847 39.0954 146.63 38.994 146.44C37.324 143.222 36.894 139.575 35.459 136.283C33.7656 131.863 33.8381 126.961 35.6615 122.593C37.1894 118.173 39.5532 114.089 42.624 110.563C46.1189 106.463 46.0139 105.685 44.479 101.628C42.5614 104.274 40.922 107.11 39.5865 110.093C36.7529 115.348 33.3364 120.267 29.4015 124.758C28.6428 125.51 28.1429 126.484 27.9739 127.539C27.805 128.594 27.9757 129.676 28.4616 130.628C30.336 134.316 32.5152 137.842 34.9765 141.168C36.1749 143.36 37.4832 145.491 38.8965 147.552C40.0665 149.832 41.809 151.912 40.6065 154.837ZM137.603 79.3354C137.514 78.908 137.401 78.4857 137.266 78.0704C136.803 76.9154 139.841 77.0254 138.183 75.3954C137.403 74.6254 137.323 73.4129 136.853 72.4504C134.493 67.6329 136.151 63.838 139.701 60.4555C140.486 59.7055 141.233 58.918 142.031 58.113C141.263 57.168 140.236 57.503 139.323 57.4555C139.104 57.4647 138.885 57.429 138.68 57.3505C138.474 57.2721 138.287 57.1525 138.13 56.9992C137.973 56.8458 137.849 56.662 137.765 56.4588C137.681 56.2557 137.64 56.0377 137.643 55.818C137.628 54.6805 138.623 54.443 139.533 54.558C141.587 54.8376 143.552 55.5768 145.281 56.7205C146.461 57.7032 147.921 58.2892 149.453 58.3955C149.993 58.3755 150.616 58.4205 150.883 57.853C151.008 57.5468 151.023 57.2066 150.924 56.8909C150.826 56.5751 150.62 56.3036 150.343 56.123C148.819 55.0665 147.003 54.5116 145.148 54.5355C144.09 54.4162 143.069 54.0781 142.149 53.5427C141.229 53.0073 140.43 52.2863 139.803 51.4255C140.986 50.7455 141.916 51.6505 142.863 52.0055C145.331 52.8827 147.95 53.2526 150.563 53.093C151.768 53.048 151.693 52.343 151.223 51.543C150.588 50.4656 149.416 50.3681 148.386 50.1256C147.318 49.9177 146.237 49.784 145.151 49.7256C144.213 49.6381 143.358 49.4356 143.363 48.2756C143.371 46.7431 142.411 46.6331 141.213 46.5156C138.371 46.6548 135.57 45.7814 133.311 44.0506C132.753 43.6176 132.08 43.3587 131.375 43.3062C130.671 43.2538 129.967 43.4101 129.351 43.7556C128.135 44.437 126.796 44.8696 125.411 45.0281C125.192 45.0136 124.977 45.0858 124.811 45.2289C124.646 45.3721 124.543 45.5748 124.526 45.7931C124.166 49.2831 122.221 52.583 123.276 56.2405C121.901 62.5205 123.261 69.0654 121.409 75.3054C119.649 81.2254 115.234 82.0179 110.786 79.5604C107.266 77.681 104.26 74.9688 102.029 71.6605C99.7985 68.3521 98.4113 64.5482 97.9886 60.5805C97.5211 57.3805 96.6761 54.2355 95.9787 50.9555C94.2237 51.463 95.6386 53.9305 93.5537 54.213C93.3762 52.5205 94.9637 50.7781 93.5412 49.0431C92.2362 49.6281 93.2487 51.1505 92.3587 51.8055C90.5412 51.818 90.4762 50.2306 90.0237 48.9431C88.8387 49.6231 88.5637 51.838 86.6337 50.6131C86.5237 50.5456 85.8212 51.413 85.3962 51.843C85.0812 51.5655 85.2212 51.263 85.3412 50.958C85.4962 50.558 85.7387 50.0806 85.2037 49.8406C84.6587 49.5981 84.4762 50.0206 84.3837 50.4905C84.2837 50.998 84.3512 51.593 83.5087 52.0105C82.7087 51.308 83.7087 49.4681 82.0562 49.2706C81.2912 49.8831 82.0537 51.233 80.7512 51.9255C80.4012 50.8006 80.2737 49.5181 79.0713 48.7331C78.4963 49.4056 79.1488 50.1106 79.0338 50.758C78.9438 51.263 79.0663 52.0005 78.3038 51.893C77.6463 51.798 78.0288 50.9106 77.6063 50.5531C76.236 51.8037 75.2018 53.3786 74.5988 55.133C74.3526 55.7866 73.9284 56.3582 73.3743 56.7832C72.8202 57.2082 72.1582 57.4697 71.4632 57.5381C70.7682 57.6065 70.0679 57.4791 69.4415 57.1703C68.8152 56.8614 68.2877 56.3835 67.9188 55.7905C66.7514 54.2009 66.0941 52.2944 66.0338 50.3231C66.0088 49.2731 65.8688 48.4581 64.6013 48.1431C63.2488 47.8056 62.6188 46.5556 61.8413 45.3231C61.0889 46.7981 61.9613 48.5406 60.9739 49.9031C59.3714 49.1281 61.1239 47.8106 60.2039 46.9356C59.4739 46.2356 59.6914 44.7756 58.1889 44.3531C58.2739 46.3281 59.3864 48.1531 58.6989 50.0831C55.4939 49.5756 58.1014 46.0081 55.7589 44.8306C55.9089 47.5281 53.4764 48.4531 52.4689 50.4206C51.3764 49.5856 52.0689 48.8531 52.1289 48.1731C52.1839 47.5581 52.1164 47.0781 51.3764 47.0556C50.7139 47.0356 50.4064 47.4306 50.3614 48.0556C50.3214 48.5981 50.3289 49.1456 50.2589 49.6831C49.9639 51.8855 49.6914 52.023 47.2939 51.228C46.6464 52.1855 47.1839 53.388 46.6389 54.378C46.3289 54.943 46.1939 55.653 45.3639 55.663C44.4565 55.678 44.444 54.998 44.2965 54.3355C44.1035 53.6685 43.8611 53.0167 43.5715 52.3855C42.1115 52.918 43.029 53.7905 42.859 54.423C42.694 55.033 42.484 55.628 42.1365 56.718L41.7615 53.743C41.6635 53.7283 41.5638 53.73 41.4665 53.748C40.924 53.9905 41.924 56.213 39.8715 54.798C39.104 54.273 38.539 55.9655 38.699 56.948C38.8067 58.0271 38.6861 59.1168 38.3449 60.1462C38.0038 61.1757 37.4498 62.1217 36.719 62.923C36.109 60.743 38.3765 59.2105 37.5615 57.138C34.659 58.4505 35.069 61.183 34.634 63.4455C34.5112 65.0239 34.0599 66.5592 33.309 67.9529C32.354 66.8755 33.364 65.293 32.1415 64.298C30.734 65.833 32.1365 67.8854 31.1565 69.5304C30.3815 68.1379 31.1965 66.5455 30.4065 64.9655C29.0165 66.6355 29.3715 68.5654 29.0315 70.2654C28.8416 71.2229 29.064 72.2454 27.8641 72.7904C27.5641 71.4229 27.2516 70.0104 26.9341 68.5979C26.7666 67.8429 26.3141 67.3529 25.5566 67.7479C24.8241 68.1329 23.9216 68.4979 23.9166 69.5629C23.9364 69.665 23.9797 69.7611 24.043 69.8435C24.1064 69.9259 24.1881 69.9925 24.2816 70.0379C27.5141 71.3929 25.7066 74.0804 26.0641 76.1929C25.1416 74.9304 25.9491 73.1704 24.5791 71.9679C23.6466 73.4579 25.5291 75.7404 23.2816 77.0429C22.6341 75.0104 23.4566 73.0104 22.7966 71.0254C21.2791 71.1829 21.3141 72.1004 21.4916 73.3079C22.1247 76.2007 22.1059 79.1982 21.4366 82.0829C20.7858 79.7553 20.5298 77.3351 20.6791 74.9229C19.7966 74.5304 19.8291 75.2879 19.6216 75.7004C16.6566 81.6729 17.4016 87.8903 19.2216 93.8253C20.2616 97.2028 21.7916 100.49 22.6616 103.968C23.5719 107.318 23.6551 110.839 22.9041 114.228C22.0567 118.161 20.8482 122.007 19.2941 125.718C19.119 126.347 18.8094 126.93 18.3866 127.428C16.3191 129.095 16.6441 131.11 17.1091 133.358C18.4466 139.845 19.6116 146.365 20.8691 152.867C21.0562 153.828 21.3135 154.774 21.6391 155.697C22.6341 158.527 23.3116 158.832 26.4691 158.05C26.9816 157.925 27.5191 157.885 28.0916 157.8C27.8527 156.942 27.2993 156.205 26.5416 155.737C25.2861 154.819 24.2552 153.628 23.5264 152.253C22.7976 150.879 22.39 149.357 22.3341 147.802C21.3641 141.358 22.9841 135.258 24.1866 129.085C24.5593 127.479 25.3188 125.988 26.3991 124.743C28.7266 121.87 30.674 118.7 33.274 116.043C33.6663 115.664 33.991 115.221 34.234 114.733C36.4015 109.96 39.3865 105.64 41.8315 101.02C42.2489 100.384 42.5046 99.6562 42.5765 98.8989C42.6484 98.1417 42.5343 97.3783 42.244 96.6753C40.469 92.6903 40.799 88.3578 40.109 84.1954C39.984 83.4429 40.154 83.1379 40.984 82.6129C41.7715 82.1154 41.7315 80.3079 42.1415 78.7404C42.9915 80.0404 44.1765 79.9704 45.5564 79.8754C44.7333 80.4258 44.068 81.1815 43.6265 82.0679C43.0265 83.0004 43.0565 82.9654 44.269 84.3478C45.1189 85.3153 43.969 86.0553 43.8815 86.9028C42.839 87.1978 43.0215 85.7228 42.1665 85.7753C41.864 89.7503 41.879 89.7753 44.9514 89.9303C44.059 91.7678 43.1115 93.4303 45.2814 95.2853C46.2839 96.1428 46.0764 98.0303 46.2414 99.4803C47.6764 99.2103 46.7264 97.7178 47.7439 97.4178C48.3689 98.1528 47.8214 99.1453 48.2989 99.9128C48.5096 99.9549 48.7283 99.9248 48.9198 99.8272C49.1112 99.7297 49.2642 99.5705 49.3539 99.3753C50.0539 98.1178 49.0289 96.8128 49.5089 95.3578C51.6139 97.8528 50.1114 101.32 52.1714 103.64C53.6664 102.72 52.5289 100.583 53.9764 99.0078L54.0064 104.5C54.8564 105.215 54.9389 103.763 55.5964 104.005C55.7139 104.155 55.9539 104.328 55.9339 104.455C55.4909 105.686 55.3452 107.005 55.5089 108.303C55.5785 108.57 55.7323 108.807 55.9476 108.98C56.1628 109.153 56.428 109.252 56.7039 109.263C57.4364 109.318 57.5039 108.823 57.6364 108.245C58.2978 106.537 58.3173 104.647 57.6914 102.925C59.1664 103.185 58.9964 104.225 59.3064 104.948C59.8439 106.195 60.2639 107.513 61.9489 107.7C63.5188 107.875 64.1013 108.77 63.6363 110.313C63.6028 110.392 63.5869 110.478 63.5899 110.564C63.5929 110.65 63.6147 110.735 63.6538 110.812C63.6928 110.889 63.7482 110.956 63.816 111.009C63.8838 111.063 63.9624 111.1 64.0463 111.12C64.8538 110.815 64.8213 109.993 65.0063 109.305C65.0608 108.58 65.3942 107.905 65.9363 107.42C67.0613 108.028 68.6238 108.335 67.1938 110.273C66.8588 110.728 66.0663 111.305 66.8338 111.903C67.0068 112.043 67.2099 112.142 67.4273 112.192C67.6446 112.242 67.8705 112.241 68.0875 112.189C68.3045 112.138 68.5067 112.037 68.6786 111.895C68.8505 111.753 68.9874 111.574 69.0788 111.37C69.8613 110.083 70.4913 108.703 71.1988 107.338C72.0538 107.88 71.7213 109.028 72.5088 109.593C73.3813 109.753 73.6513 108.788 74.3263 108.51C76.4388 107.645 77.7688 108.31 78.4838 110.553C78.7183 111.181 79.1038 111.743 79.6062 112.188C80.0312 108.175 81.8937 104.553 82.1412 100.568C82.1618 99.9124 82.3634 99.2755 82.7237 98.7278C82.8739 98.4331 83.1307 98.2068 83.4419 98.0949C83.7531 97.9829 84.0953 97.9938 84.3987 98.1253C84.6537 98.2233 84.8597 98.418 84.972 98.667C85.0843 98.916 85.0939 99.1992 84.9987 99.4553C84.7581 101.4 84.3635 103.323 83.8187 105.205C82.6055 108.726 82.291 112.494 82.9037 116.168C82.9659 117.48 83.4638 118.735 84.3187 119.733C85.3587 119.37 84.9937 117.845 86.1237 117.603C88.7487 118.655 88.1212 121.538 89.2812 123.315C90.1387 123.55 89.9562 122.908 90.0462 122.593C90.1712 122.178 90.2037 121.743 91.0712 121.658C91.3387 123.93 89.6662 126.635 92.4487 128.983C92.5162 126.765 92.4812 125 92.6487 123.258C92.7937 121.72 93.6637 121.365 94.6637 122.598C95.7237 123.905 96.3611 123.218 97.3261 122.398C97.146 124.509 97.3226 126.635 97.8486 128.688C97.8724 128.905 97.9768 129.105 98.1412 129.248C98.3056 129.392 98.518 129.468 98.7361 129.463C99.2111 129.523 99.7361 129.318 99.8011 128.913C100.291 125.863 100.706 122.8 101.141 119.753C103.856 120.378 103.859 120.378 103.589 122.943C103.514 123.665 102.946 124.38 103.726 125.295C104.696 123.789 105.035 121.962 104.671 120.208C104.629 118.988 104.041 117.535 106.276 118.54C107.069 118.895 107.069 118.078 107.219 117.635C107.666 116.171 107.836 114.636 107.719 113.11C107.738 111.147 107.983 109.193 108.446 107.285C108.996 104.315 110.246 103.598 113.336 104.105C113.874 104.193 114.411 104.303 114.949 104.375C115.906 104.5 116.436 104.14 116.256 103.108C116.157 102.235 116.377 101.357 116.874 100.633C117.679 99.2003 117.944 100.658 118.421 101.158C118.759 100.053 119.034 99.1603 119.301 98.2653C119.351 97.9953 119.493 97.7507 119.701 97.5723C119.91 97.394 120.174 97.2927 120.448 97.2853C120.586 97.2773 120.724 97.2979 120.853 97.3457C120.982 97.3935 121.1 97.4675 121.2 97.563C121.299 97.6585 121.377 97.7736 121.43 97.9009C121.483 98.0282 121.509 98.165 121.506 98.3028C121.521 99.4528 121.838 100.208 123.166 100.14C123.716 99.1153 122.838 97.5428 123.501 97.0328C124.113 96.6669 124.586 96.1093 124.849 95.4466C125.111 94.7839 125.147 94.0531 124.951 93.3678C124.821 92.7003 125.826 92.4353 126.476 92.7128C127.325 93.1177 128.152 93.5692 128.951 94.0653C129.191 93.9046 129.368 93.6655 129.452 93.3888C129.536 93.1121 129.522 92.8149 129.411 92.5478C129.246 92.0028 129.511 91.7903 130.036 91.6753C132.511 91.1353 132.668 91.0653 132.138 89.3203C131.731 87.9778 131.501 87.6628 133.318 87.5928C134.443 87.5478 135.441 85.5328 135.951 84.3803C136.701 82.6804 137.478 83.0104 138.841 83.7329C138.361 82.0304 137.978 80.6829 137.603 79.3354ZM74.4363 114.42C72.7363 114.698 70.7963 116.043 69.1863 113.975C68.9738 113.7 68.3563 113.963 68.1413 114.425C67.2901 116.659 67.1719 119.107 67.8038 121.413C67.8446 121.631 67.9586 121.83 68.1272 121.975C68.2958 122.121 68.5088 122.204 68.7313 122.213C70.4938 122.12 70.5063 124.303 71.9713 124.618C72.4788 124.725 72.3188 125.3 72.1438 125.71L71.3838 127.508C71.3263 127.599 71.2923 127.704 71.285 127.811C71.2776 127.919 71.2971 128.027 71.3416 128.126C71.3862 128.224 71.4545 128.31 71.5403 128.376C71.6262 128.442 71.727 128.485 71.8338 128.503C72.4088 128.663 72.6463 128.118 72.7138 127.77C72.8963 126.825 72.9388 125.855 73.0613 124.633C74.1913 125.428 73.4738 126.535 73.9413 127.325C75.2563 126.64 74.9038 124.713 76.7313 123.903C76.2963 125.753 75.2063 127.21 75.5788 129.145C77.0738 127.945 76.8288 126.015 78.0013 124.49C78.2191 125.192 78.2554 125.938 78.1068 126.657C77.9581 127.377 77.6294 128.047 77.1513 128.605C77.0816 128.688 77.0322 128.786 77.007 128.891C76.9819 128.996 76.9817 129.106 77.0065 129.212C77.0312 129.317 77.0803 129.415 77.1497 129.498C77.2191 129.581 77.307 129.647 77.4063 129.69C77.5592 129.75 77.7295 129.75 77.882 129.688C78.0346 129.627 78.1578 129.51 78.2263 129.36C78.6608 128.613 79.0418 127.836 79.3662 127.035C79.6487 126.278 79.4237 125.155 80.8887 126.175C81.5487 126.635 81.4162 125.565 81.4437 125.15C81.4667 121.969 81.0039 118.802 80.0712 115.76C79.9937 115.435 79.9112 115.145 79.5462 115.578C79.3687 115.79 79.6687 116.618 78.9787 116.138C78.6937 115.94 78.7288 115.333 78.5288 114.96C78.3976 114.719 78.1979 114.523 77.9549 114.395C77.7119 114.268 77.4365 114.216 77.1638 114.245C76.9454 114.242 76.7298 114.294 76.5373 114.398C76.3448 114.501 76.1819 114.651 76.0638 114.835C75.8388 115.205 75.6738 115.618 75.4188 115.96C75.1501 116.29 74.8522 116.596 74.5288 116.873C74.4638 116.935 74.3213 116.92 73.9813 116.985C73.6913 115.935 75.2288 115.57 74.4363 114.42ZM96.2536 148.995C96.7271 152.096 96.5853 155.261 95.8361 158.307C95.4136 160.065 95.8961 160.752 97.3211 160.795C98.0736 160.815 99.3861 161.057 98.4786 159.495C98.4284 159.431 98.3945 159.355 98.3797 159.275C98.365 159.195 98.3698 159.112 98.3939 159.035C98.418 158.957 98.4605 158.886 98.518 158.828C98.5754 158.77 98.6459 158.727 98.7236 158.702C100.869 158.31 99.9411 157.277 99.2761 156.267C98.5202 155.069 98.1117 153.684 98.0961 152.267C97.5751 146.651 97.7666 140.991 98.6661 135.423C98.7917 134.982 98.8081 134.518 98.7137 134.07C98.6193 133.622 98.417 133.204 98.1244 132.851C97.8318 132.499 97.4577 132.224 97.0346 132.049C96.6115 131.874 96.152 131.805 95.6961 131.848C95.0611 131.845 94.4362 132.13 93.8437 131.653C93.4012 131.293 92.8887 131.198 91.8962 131.598C94.0273 137.206 95.4899 143.044 96.2536 148.995ZM69.2288 153.67C67.3313 148.472 69.0138 143.87 71.5638 139.41C71.8888 138.843 72.2013 138.265 72.5638 137.725C73.3613 136.54 74.3638 135.425 72.7038 134.1C72.1713 133.675 72.9713 132.54 71.7888 132.143C70.7838 134.718 69.6288 137.243 68.8088 139.873C67.5788 143.822 65.3213 147.34 64.1838 151.33C63.7091 152.307 63.0896 153.207 62.3463 154C61.0439 155.9 61.5614 156.972 63.9338 157.08C65.4091 157.111 66.874 157.334 68.2913 157.745C68.5013 156.392 67.1263 155.875 67.1163 154.835C67.6963 154 68.5088 155.117 69.1763 154.615C69.2555 154.306 69.2717 153.986 69.2288 153.67ZM121.383 49.6206C121.378 48.9706 120.916 48.6706 120.479 48.3931C119.729 47.9106 118.879 47.5281 118.121 48.2631C117.364 49.0006 117.681 49.8531 118.211 50.603C118.714 51.5966 119.56 52.3751 120.591 52.7955C121.116 51.2305 118.586 51.148 119.124 49.7031C119.841 48.7356 120.663 50.4406 121.383 49.6206ZM86.2962 120.32C85.9537 122.9 85.9537 122.9 87.5762 125.82C87.9563 124.883 88.0373 123.852 87.8082 122.867C87.579 121.883 87.0509 120.993 86.2962 120.32ZM81.6912 44.1856C81.6768 44.1065 81.6455 44.0315 81.5995 43.9656C81.5535 43.8997 81.4938 43.8445 81.4246 43.8037C81.3553 43.7629 81.2781 43.7375 81.1981 43.7292C81.1182 43.7209 81.0374 43.7299 80.9612 43.7556C80.7837 43.8106 80.5087 43.9681 80.5012 44.0931C80.4212 45.5131 80.0687 47.0356 81.7012 48.1931C81.999 46.8735 81.9956 45.5037 81.6912 44.1856ZM85.0487 44.2106C84.9862 43.5106 84.6037 42.8906 83.8062 43.0906C83.0087 43.2906 83.4812 43.9456 83.5962 44.3956C83.714 45.4742 84.152 46.493 84.8537 47.3206C85.1533 46.312 85.2199 45.2486 85.0487 44.2106ZM44.579 96.8103C44.6532 96.5664 44.6729 96.3092 44.6366 96.0569C44.6003 95.8046 44.5089 95.5633 44.369 95.3503C44.174 95.0678 43.669 95.1503 43.6815 95.4103C43.762 95.9079 43.9206 96.3897 44.1515 96.8378C44.1815 96.9128 44.324 96.9378 44.4065 96.9853C44.4665 96.9253 44.559 96.8778 44.579 96.8103ZM147.233 47.8256C147.538 47.8581 148.063 47.8856 148.128 47.7456C148.413 47.1356 147.768 47.1881 147.471 47.0531C147.211 46.9381 146.846 46.7381 146.633 47.2131C146.642 47.3706 146.708 47.5196 146.818 47.6323C146.928 47.745 147.076 47.8137 147.233 47.8256Z" fill="#80655B"/>
<path d="M136.816 162.617C136.851 163.267 136.958 163.927 137.976 164.005C137.498 160.596 136.504 157.28 135.028 154.17C134.103 156.182 135.858 157.66 135.396 159.272C134.683 158.807 134.613 157.985 134.331 157.297C133.768 155.912 134.406 153.922 132.983 153.1C131.583 152.29 129.821 153.385 128.191 153.102C127.688 153.015 127.121 153.367 126.591 153.345C123.971 153.235 121.436 154.772 118.839 153.957C115.601 152.942 112.181 152.85 108.964 151.727C106.881 151.002 106.771 150.41 107.706 148.535C109.594 144.755 113.821 143.72 116.324 140.715C116.744 140.364 117.279 140.18 117.826 140.2C118.859 140.13 119.868 139.856 120.795 139.394C121.721 138.932 122.548 138.292 123.226 137.51C124.491 136.26 126.443 134.947 127.771 135.32C129.743 135.87 130.773 134.762 132.223 134.32C133.503 133.71 134.927 133.471 136.335 133.631C137.743 133.79 139.078 134.342 140.188 135.222C141.129 136.158 142.375 136.725 143.698 136.82C144.626 136.893 145.531 137.149 146.359 137.574C147.187 137.999 147.923 138.584 148.523 139.295C149.853 140.581 151.48 141.518 153.261 142.02C154.393 142.412 155.548 142.74 156.673 143.15C160.873 144.675 162.058 148.327 162.273 152.25C162.388 154.33 161.423 154.875 159.358 154.075C157.835 153.496 156.221 153.192 154.591 153.175C151.966 153.107 149.366 153.297 146.756 153.47C145.345 153.652 143.912 153.435 142.618 152.845C141.414 152.348 140.117 152.112 138.815 152.152C137.512 152.192 136.233 152.508 135.061 153.077C138.201 154.765 137.596 157.987 138.923 160.645C139.773 159.115 138.381 157.832 139.818 156.677C140.301 158.307 141.076 159.162 142.728 157.877C143.478 157.429 144.324 157.168 145.196 157.117C145.846 157.02 147.198 156.787 146.901 157.747C146.548 158.872 149.056 159.632 147.058 160.707C146.433 161.045 146.128 162.12 145.516 162.295C143.816 162.785 144.091 163.657 144.473 164.96C144.981 166.67 146.123 165.872 147.103 165.932C147.933 165.982 148.706 165.207 149.596 165.795C149.441 167.102 148.143 166.925 147.446 167.495C147.113 167.762 146.721 167.95 146.761 168.495C146.823 169.437 148.956 171.075 149.831 171.045C150.376 171.025 150.538 169.827 151.326 170.607C150.501 172.745 148.226 172.025 146.748 172.747C147.218 173.71 147.991 173.657 148.506 174.027C148.863 174.285 149.221 174.54 149.143 175.057C149.061 175.617 148.598 175.66 148.178 175.715C145.888 176.015 143.993 177.89 141.558 177.12C140.998 179.735 140.666 181.995 143.496 183.215C143.694 183.315 143.846 183.489 143.917 183.699C143.988 183.91 143.973 184.14 143.876 184.34C142.53 184.48 141.17 184.328 139.888 183.893C138.606 183.459 137.434 182.752 136.451 181.822C135.87 181.326 135.247 180.883 134.588 180.497C132.144 178.819 129.152 178.134 126.221 178.582C123.527 178.998 120.798 179.141 118.076 179.01C116.594 179.042 115.123 178.751 113.764 178.156C112.406 177.562 111.194 176.68 110.211 175.57C110.762 175.263 111.387 175.114 112.018 175.141C112.648 175.168 113.258 175.369 113.781 175.722C117.916 177.47 122.171 176.315 126.376 176.272C126.701 176.27 127.018 175.747 127.341 175.462L127.298 175.482C128.44 175.632 129.569 175.87 130.673 176.195C132.281 176.747 134.031 176.723 135.623 176.127C135.788 176.807 134.563 177.177 135.093 177.795C135.883 178.701 136.935 179.339 138.103 179.62C138.184 179.631 138.266 179.626 138.345 179.606C138.424 179.585 138.498 179.549 138.563 179.5C138.628 179.451 138.683 179.389 138.724 179.319C138.765 179.248 138.792 179.171 138.803 179.09C138.9 178.558 138.94 178.017 138.923 177.477C138.868 176.652 139.191 175.612 138.201 175.162C137.208 174.712 137.093 175.977 136.453 176.247C136.146 176.307 135.83 176.307 135.523 176.245C135.463 175.575 136.626 175.392 136.188 174.58C135.148 174.28 134.128 173.925 133.081 173.705C132.791 173.695 132.507 173.621 132.25 173.489C131.992 173.357 131.766 173.17 131.588 172.941C131.411 172.712 131.286 172.446 131.222 172.164C131.159 171.881 131.158 171.588 131.221 171.305C131.272 170.659 131.12 170.013 130.787 169.457C130.453 168.902 129.955 168.464 129.361 168.205C129.012 168.098 128.711 167.875 128.506 167.573C128.302 167.271 128.206 166.908 128.236 166.545C130.188 167.342 132.196 167.994 134.243 168.497C132.716 166.122 130.193 165.045 128.893 162.872C129.105 162.717 129.357 162.625 129.619 162.607C129.881 162.588 130.142 162.645 130.373 162.77C130.673 162.855 131.033 163.387 131.286 162.58C131.831 160.852 131.916 160.842 133.053 162.212C133.686 162.975 134.038 164.097 135.416 163.835C135.188 161.53 132.921 160.345 132.673 158.06C134.191 158.382 133.901 160.085 135.093 160.36C135.248 160.21 135.353 160.017 135.394 159.806C135.435 159.595 135.41 159.376 135.323 159.18C135.81 159.608 136.195 160.138 136.453 160.732C136.711 161.326 136.835 161.97 136.816 162.617ZM116.594 146.585C116.409 146.735 116.271 146.937 116.134 146.94C115.701 146.97 115.267 146.927 114.849 146.815C112.009 145.84 111.784 145.945 110.379 149.25C113.529 150.29 116.743 151.124 120.001 151.747C120.638 151.914 121.311 151.876 121.926 151.64C124.335 150.923 126.855 150.652 129.361 150.84C131.425 150.846 133.485 150.643 135.508 150.232C138.269 149.491 141.192 149.622 143.876 150.607C144.79 150.978 145.773 151.15 146.758 151.11C151.283 150.987 155.816 149.947 160.823 151.862C159.301 148.092 157.956 145.595 154.211 144.625C151.313 144.015 148.656 142.577 146.561 140.485C145.728 139.604 144.623 139.029 143.423 138.852C141.375 138.509 139.425 137.725 137.708 136.555C136.831 135.983 135.8 135.692 134.753 135.721C133.706 135.75 132.693 136.098 131.848 136.717C131.437 137.072 130.96 137.342 130.443 137.511C129.927 137.68 129.382 137.745 128.841 137.702C126.848 137.23 125.633 138.402 124.153 139.352C122.353 140.512 121.054 142.507 118.421 142.427C116.861 142.377 116.189 144.31 114.369 145.112L116.594 146.585ZM139.868 167.235C139.814 167.403 139.797 167.581 139.821 167.756C139.844 167.931 139.906 168.099 140.002 168.247C140.098 168.395 140.227 168.52 140.377 168.612C140.528 168.704 140.698 168.762 140.873 168.78C141.891 168.98 142.993 169.43 143.983 167.982C142.571 166.995 141.173 167.435 139.868 167.235ZM144.406 175C144.588 174.44 144.111 174.282 143.718 174.177C143.11 173.997 142.485 173.876 141.853 173.817C141.328 173.787 140.748 173.885 140.771 174.642C140.801 175.537 141.431 175.137 141.896 175.187C142.41 175.28 142.916 175.414 143.408 175.587C143.618 175.626 143.834 175.588 144.017 175.48C144.2 175.372 144.338 175.201 144.406 175ZM142.341 171.725C141.803 171.297 141.511 170.427 140.621 170.63C140.326 170.697 140.261 171.1 140.356 171.412C140.686 172.477 141.456 172.492 142.516 172.177C142.418 171.915 142.411 171.78 142.341 171.725ZM145.648 170.292C145.943 170.277 146.298 170.175 146.128 169.785C146.066 169.661 145.978 169.551 145.87 169.464C145.762 169.376 145.637 169.311 145.503 169.275C145.163 169.207 144.986 169.485 144.991 169.837C145.028 169.979 145.115 170.103 145.236 170.186C145.356 170.27 145.503 170.307 145.648 170.292ZM28.6641 190.717C28.8617 190.051 28.7888 189.333 28.4612 188.72C28.1337 188.107 27.5778 187.648 26.9141 187.442C25.6806 186.915 24.5627 186.151 23.6241 185.192C25.367 184.303 27.272 183.777 29.2242 183.645C31.1763 183.513 33.1349 183.778 34.9815 184.425C38.8815 185.442 42.6408 186.938 46.1739 188.877C46.4234 189.089 46.7251 189.229 47.0474 189.284C47.3698 189.339 47.701 189.307 48.0064 189.19C48.2179 189.133 48.4111 189.022 48.5669 188.868C48.7226 188.714 48.8357 188.523 48.895 188.312C48.9542 188.101 48.9576 187.878 48.9049 187.666C48.8521 187.453 48.7449 187.258 48.5939 187.1C48.3095 186.768 47.9517 186.508 47.5489 186.34C43.1632 184.436 38.6717 182.786 34.0965 181.397C30.1358 180.562 26.0095 181.072 22.3716 182.847C21.605 183.243 20.7675 183.483 19.9075 183.553C19.0475 183.623 18.1821 183.522 17.3616 183.255C14.3572 182.25 11.1707 181.909 8.02168 182.255C6.49412 182.329 5.00635 182.767 3.68164 183.531C2.35693 184.296 1.23343 185.365 0.404223 186.65C0.164224 187.017 -0.138276 187.362 0.0692231 187.827C0.349221 188.455 0.884221 188.417 1.44422 188.302C2.16671 188.16 2.95421 188.307 3.4617 187.5C3.60453 187.239 3.7991 187.011 4.03341 186.829C4.26773 186.647 4.53685 186.515 4.8242 186.441C5.11154 186.366 5.41105 186.352 5.70426 186.398C5.99748 186.443 6.27822 186.549 6.52919 186.707C7.22168 187.002 7.79168 186.817 7.63918 185.707C7.58668 185.312 8.54918 185.345 9.08167 185.265C11.0367 185.085 13.0067 185.163 14.9416 185.495C15.6166 185.57 16.2916 185.69 16.3716 186.53C16.5716 188.7 18.1091 188.135 19.3016 187.862C21.4516 187.372 22.1716 187.497 23.0691 189.117C23.2091 189.372 22.7591 190.12 23.4191 190.015C25.1966 189.73 26.7041 191.075 28.6641 190.717ZM101.466 22.2381C101.482 21.2562 101.704 20.2886 102.12 19.3989C102.536 18.5092 103.135 17.7174 103.879 17.0757C104.525 16.5112 105.286 16.0942 106.11 15.8537C106.934 15.6133 107.8 15.5551 108.649 15.6832C109.676 15.5828 110.713 15.7147 111.683 16.0691C112.652 16.4235 113.53 16.9914 114.25 17.7307C114.971 18.47 115.516 19.3618 115.846 20.3402C116.175 21.3186 116.28 22.3586 116.154 23.3831C115.945 25.1215 115.073 26.7123 113.721 27.8244C112.369 28.9365 110.64 29.484 108.894 29.3531C106.97 29.3782 105.113 28.6466 103.723 27.3157C102.333 25.9849 101.524 24.1614 101.466 22.2381ZM104.614 19.7581C104.22 20.2876 104.012 20.9327 104.023 21.5925C104.035 22.2524 104.264 22.8899 104.676 23.4056C105.445 24.8613 106.7 26.0009 108.224 26.6256C108.951 26.8567 109.726 26.9002 110.475 26.7521C111.224 26.6039 111.924 26.2689 112.509 25.7781C113.896 24.7031 113.684 23.3906 113.319 21.9456C113.148 20.6374 112.486 19.4427 111.469 18.6029C110.451 17.763 109.153 17.3405 107.836 17.4207C106.319 17.1857 105.469 18.4107 104.614 19.7581ZM80.2087 194.15C80.7021 194.39 81.1157 194.767 81.4 195.236C81.6842 195.705 81.827 196.246 81.8112 196.795C81.8462 198.12 80.7912 198.4 79.9212 198.727C75.6813 200.327 71.5113 200.827 67.5963 197.777C65.8213 196.392 65.7138 195.917 66.2788 193.607C66.6963 191.887 67.8788 191.757 69.2363 191.72C69.8913 191.702 70.5438 191.71 71.7338 191.705C74.737 191.674 77.6834 192.524 80.2087 194.15ZM71.3788 195.112C70.3538 195.705 70.5688 196.287 71.3888 196.737C72.2447 197.281 73.2616 197.515 74.2692 197.399C75.2768 197.283 76.214 196.824 76.9238 196.1C74.9288 195.362 73.4488 193.915 71.3788 195.112ZM107.786 188.192C105.406 188.092 103.031 187.865 100.659 187.662C99.7941 187.603 98.9643 187.298 98.2662 186.785C97.5681 186.271 97.0305 185.57 96.7161 184.762C96.5086 183.47 97.6686 181.942 99.4761 181.165C101.221 180.391 103.154 180.142 105.038 180.448C106.922 180.755 108.676 181.603 110.086 182.89C111.459 183.97 112.621 185.085 111.249 186.93C110.289 188.22 111.864 188.105 112.214 188.68C110.639 189.352 109.271 188.255 107.786 188.192ZM101.474 183.172C100.841 183.175 100.551 183.685 100.594 184.28C100.631 184.78 100.966 184.857 101.474 184.882C103.338 185.094 105.219 185.108 107.086 184.925C105.561 182.417 103.411 183.16 101.474 183.172ZM47.3064 173.072C45.6439 171.002 46.0564 169.542 48.6314 168.772C52.1079 167.869 55.7764 168.04 59.1539 169.262C59.7264 169.44 60.9614 169.03 60.8964 170.575C60.8439 171.87 60.8314 172.875 59.4314 173.435C57.5904 174.463 55.4972 174.951 53.3914 174.845C52.3109 175.116 51.1777 175.094 50.1083 174.782C49.0389 174.47 48.0719 173.882 47.3064 173.072ZM49.9789 170.867C51.4364 173.03 51.8889 173.087 55.7039 171.68C53.9059 170.89 51.9256 170.609 49.9789 170.867ZM79.3988 153.757C79.912 153.948 80.4579 154.035 81.005 154.013C81.552 153.992 82.0894 153.862 82.5862 153.632C84.8184 152.715 87.323 152.721 89.5512 153.647C90.1512 153.84 90.7012 154.397 91.3887 154.055C91.8637 153.822 92.4037 153.567 92.5137 152.972C92.6387 152.302 92.1512 151.985 91.6187 151.822C88.8012 150.607 85.6468 150.416 82.7037 151.285C80.9387 151.97 79.0437 151.337 77.2413 151.745C76.6238 151.885 75.8613 151.815 75.9763 152.797C76.0023 153.072 76.1343 153.326 76.3443 153.505C76.5543 153.684 76.8258 153.775 77.1013 153.757C77.9688 153.802 78.8388 153.76 79.3988 153.757ZM123.731 25.6931C125.935 25.4782 128.153 25.4381 130.363 25.5731C131.206 25.4856 132.211 25.3656 132.133 24.1356C132.056 22.9281 131.141 22.9506 130.223 22.9206C127.62 22.7518 125.008 22.776 122.409 22.9931C121.581 23.0906 120.363 23.1431 120.358 24.1931C120.358 25.3981 121.583 25.5231 122.566 25.6531C122.888 25.6956 123.216 25.6781 123.731 25.6931ZM93.4912 21.8456C91.5364 21.7152 89.5732 21.8133 87.6412 22.1381C87.0087 22.2481 86.2712 22.4556 86.3037 23.2756C86.3337 24.0331 87.0287 24.2956 87.6562 24.5006C87.9648 24.6105 88.2913 24.6613 88.6187 24.6506C91.1076 24.4769 93.6049 24.4585 96.0961 24.5956C96.533 24.5942 96.9642 24.496 97.3586 24.3081C97.6217 24.2331 97.8456 24.0594 97.9835 23.8232C98.1214 23.5869 98.1627 23.3066 98.0986 23.0406C97.9761 22.4731 97.7111 21.9956 97.0736 21.9606C95.8812 21.8931 94.6862 21.8806 93.4912 21.8456ZM107.584 36.2905C107.5 38.3258 107.586 40.3645 107.841 42.3855C107.856 43.0355 108.066 43.773 108.861 43.8455C109.829 43.9355 110.154 43.153 110.309 42.3905C110.439 41.7491 110.475 41.0923 110.416 40.4405C110.163 38.7194 110.178 36.9695 110.461 35.2531C110.486 34.4937 110.364 33.7366 110.104 33.0231C110.07 32.7503 109.932 32.501 109.719 32.327C109.507 32.1529 109.235 32.0673 108.961 32.0881C108.798 32.076 108.633 32.0979 108.479 32.1525C108.324 32.207 108.182 32.293 108.062 32.4051C107.943 32.5171 107.847 32.6527 107.783 32.8034C107.718 32.9541 107.685 33.1166 107.686 33.2806C107.609 34.3631 107.606 35.4531 107.584 36.2905Z" fill="#80655B"/>
<path d="M117.466 165.245C116.247 165.169 115.024 165.313 113.856 165.67C113.275 165.846 112.773 166.219 112.437 166.725C112.1 167.231 111.951 167.838 112.014 168.442C112.104 169.437 113.406 170.032 113.864 169.247C115.451 166.535 117.706 167.515 119.884 167.9C120.416 168.005 120.937 168.16 121.441 168.362C122.336 168.702 123.241 168.862 123.578 167.725C123.888 166.69 123.284 166.11 122.239 165.95C120.684 165.517 119.079 165.28 117.466 165.245ZM107.494 5.19579C107.581 6.92078 107.619 8.64827 107.779 10.3658C107.836 10.9808 108.101 11.6857 108.914 11.7382C109.077 11.7489 109.241 11.7245 109.395 11.6667C109.548 11.609 109.688 11.5191 109.803 11.4031C109.919 11.2872 110.009 11.1478 110.067 10.9944C110.125 10.8409 110.149 10.6769 110.139 10.5133C110.234 7.49577 110.284 4.47579 110.226 1.45831C110.214 0.773314 109.866 -0.0591805 108.831 0.00331916C107.769 0.0708188 107.731 0.853313 107.706 1.62831C107.664 2.8158 107.631 4.00329 107.599 5.19329L107.494 5.19579ZM9.56418 154.635C10.1242 154.462 10.7517 154.307 11.3517 154.08C12.7692 153.545 13.5192 154.635 14.4767 155.287C15.1366 155.737 16.0016 155.952 16.5366 155.24C16.672 155.065 16.7642 154.861 16.8057 154.645C16.8472 154.428 16.8368 154.204 16.7754 153.992C16.714 153.78 16.6032 153.585 16.4522 153.424C16.3013 153.263 16.1143 153.14 15.9066 153.065C14.4067 152.257 12.9442 151.177 11.0567 151.772C10.2397 152.063 9.35391 152.097 8.51669 151.872C7.5317 151.597 6.6942 151.995 6.6117 153.03C6.5367 153.992 7.5242 154.072 8.22169 154.295C8.63169 154.427 9.05668 154.507 9.56418 154.635ZM96.1337 12.1632C96.2172 12.5368 96.3599 12.8946 96.5562 13.2232C97.5223 14.3998 98.6906 15.3945 100.006 16.1607C100.272 16.3564 100.597 16.453 100.926 16.4338C101.256 16.4146 101.568 16.2809 101.809 16.0557C102.064 15.8441 102.234 15.5477 102.288 15.2207C102.342 14.8938 102.277 14.5583 102.104 14.2757C101.222 12.6362 99.7586 11.3864 98.0012 10.7733C97.0262 10.4583 96.3187 10.9183 96.1337 12.1632ZM119.041 34.4031C119.256 34.4422 119.477 34.4197 119.679 34.3384C119.882 34.2571 120.057 34.1203 120.185 33.9436C120.313 33.767 120.389 33.5577 120.403 33.34C120.417 33.1223 120.37 32.905 120.266 32.7131C119.549 31.0049 118.294 29.5776 116.691 28.6481C115.814 28.1731 114.934 28.3931 114.756 29.5556C114.559 30.8256 117.686 34.2906 119.044 34.4056L119.041 34.4031ZM119.209 10.7783C118.246 11.1053 117.379 11.6622 116.681 12.4007C115.983 13.1391 115.476 14.0368 115.204 15.0157C115.219 15.8207 115.744 16.3082 116.459 16.0432C118.13 15.5402 119.541 14.4071 120.394 12.8832C120.52 12.6728 120.588 12.4327 120.591 12.1874C120.595 11.942 120.533 11.7002 120.413 11.4864C120.292 11.2725 120.118 11.0944 119.906 10.97C119.695 10.8457 119.454 10.7795 119.209 10.7783ZM98.2737 32.6556C98.2726 32.8703 98.3282 33.0814 98.4349 33.2677C98.5415 33.454 98.6954 33.6089 98.8811 33.7166C99.0667 33.8244 99.2775 33.8813 99.4922 33.8816C99.7068 33.8818 99.9177 33.8254 100.104 33.7181C101.446 33.2283 102.565 32.2681 103.254 31.0156C103.39 30.8377 103.474 30.626 103.498 30.4034C103.522 30.1808 103.485 29.9559 103.39 29.7531C103.295 29.5503 103.146 29.3773 102.96 29.2531C102.774 29.1288 102.557 29.0579 102.334 29.0481C101.343 29.085 100.397 29.465 99.6562 30.1232C98.9155 30.7814 98.4267 31.6766 98.2737 32.6556ZM128.211 184.35C127.736 183.03 127.206 182.917 126.676 182.767C124.811 182.237 122.834 182.472 120.959 181.782C120.054 181.452 119.174 182.67 117.909 182.28C119.384 185.017 121.266 182.64 122.818 183.242C124.411 183.862 126.208 183.4 128.211 184.35ZM44.9115 194.245C41.479 192.447 37.8015 193.432 34.649 191.955C36.0265 193.477 40.224 194.372 44.9115 194.245ZM92.2587 175.157C92.6812 176.045 93.4362 176.012 93.9787 176.322C94.4412 176.587 95.0987 176.805 95.2037 175.995C95.2662 175.537 95.2287 174.762 94.5212 174.717C93.8137 174.67 93.0062 174.357 92.2587 175.157ZM9.49668 188.992C9.94838 189.267 10.4543 189.441 10.9795 189.501C11.5048 189.561 12.0369 189.507 12.5392 189.342C12.1037 189.03 11.5957 188.834 11.0633 188.773C10.5309 188.711 9.99171 188.787 9.49668 188.992ZM55.0089 183.42C56.6339 184.042 57.5739 184.542 58.3514 183.107L55.0089 183.42ZM91.1662 175.665C90.1559 175.259 89.04 175.198 87.9912 175.49C88.9862 175.96 90.1255 176.023 91.1662 175.665ZM63.4189 166.675C63.7605 166.949 64.1866 167.097 64.6249 167.094C65.0632 167.09 65.4868 166.935 65.8238 166.655C65.4527 166.459 65.0388 166.358 64.6191 166.361C64.1995 166.364 63.7871 166.473 63.4189 166.675ZM127.298 175.482C126.333 175.162 125.646 173.957 124.301 174.615C124.675 175.028 125.158 175.328 125.694 175.478C126.231 175.629 126.799 175.624 127.333 175.465L127.298 175.482ZM76.1163 175.615C77.5738 176.282 78.3313 176.192 79.1213 175.515C78.2563 174.55 77.5188 175.36 76.1163 175.615ZM39.319 161.625C39.6534 161.841 40.0126 162.017 40.389 162.147C40.814 162.24 40.9215 161.967 40.7015 161.612C40.5925 161.437 40.4329 161.298 40.2436 161.215C40.0544 161.132 39.8445 161.109 39.6415 161.147C39.5415 161.16 39.4665 161.4 39.319 161.625ZM98.5361 175.442C98.8475 175.75 99.2607 175.933 99.6978 175.957C100.135 175.981 100.566 175.844 100.909 175.572C100.606 175.248 100.19 175.054 99.7473 175.03C99.3046 175.005 98.8723 175.153 98.5361 175.442ZM69.3113 178.17C69.3963 178.632 69.6988 178.745 70.0113 178.852C70.3713 178.977 70.7263 178.887 70.8263 178.552C70.9638 178.092 70.5188 178.047 70.2188 178.032C69.9125 178.047 69.6084 178.093 69.3113 178.17ZM60.9914 179.515C61.2714 179.95 61.6839 179.872 62.0939 179.805C62.4289 179.752 62.4689 179.622 62.2264 179.387C61.9264 179.092 61.6014 178.802 61.1589 178.962C61.0514 179.002 61.0439 179.325 60.9914 179.515ZM117.104 172.542C117.186 173.117 117.671 173.095 118.071 173.167C118.371 173.22 118.844 173.205 118.821 172.897C118.786 172.385 118.179 172.44 117.809 172.272C117.521 172.147 117.209 172.117 117.104 172.542ZM80.7688 172.812C80.7563 173.31 81.1762 173.47 81.4937 173.675C81.6937 173.8 82.1437 173.917 82.0687 173.525C82.0037 173.19 81.5938 172.9 81.2913 172.65C81.2138 172.585 80.9488 172.75 80.7688 172.812ZM88.8162 184.152C89.1373 184.421 89.5398 184.574 89.9586 184.586C90.3774 184.598 90.788 184.468 91.1237 184.217C90.7956 183.963 90.3953 183.82 89.9805 183.808C89.5658 183.797 89.1581 183.917 88.8162 184.152ZM117.761 188.57C117.99 188.781 118.235 188.975 118.494 189.15C118.801 189.33 119.164 189.362 119.259 188.917C119.344 188.525 119.041 188.335 118.691 188.272C118.524 188.221 118.345 188.222 118.179 188.276C118.012 188.329 117.867 188.43 117.761 188.57ZM90.1462 189.32C89.913 189.204 89.656 189.144 89.3956 189.145C89.1352 189.145 88.8786 189.207 88.6462 189.325C89.1612 189.452 89.6462 189.655 90.1462 189.32ZM131.431 50.8255C131.846 50.0342 131.959 49.1188 131.749 48.2503C131.539 47.3818 131.019 46.6194 130.288 46.1055C128.878 44.853 128.301 45.298 127.466 46.108C126.786 46.9595 126.335 47.9707 126.156 49.0455C125.546 51.1005 127.041 50.083 127.773 50.1705C127.461 48.9505 127.638 47.958 129.326 47.1155C129.121 48.2601 128.547 49.306 127.691 50.093C128.358 51.793 129.541 51.2155 130.688 50.7755L131.431 50.8255ZM124.341 54.8905C126.186 58.018 127.323 61.9505 131.966 62.1805C128.356 60.8305 127.078 57.1505 124.341 54.8905Z" fill="#80655B"/>
<path d="M131.431 50.8255L130.688 50.7755C130.483 51.358 130.116 51.918 130.416 52.5805C134.183 51.4355 134.846 50.063 133.003 46.8705C132.586 48.323 133.173 50.0905 131.428 50.828L131.431 50.8255ZM58.3489 68.4004C59.1114 68.2804 59.3289 68.9653 60.1089 69.1403C59.6764 68.2654 60.2838 66.8554 58.5939 67.0354C57.2939 67.1754 57.3339 68.4354 57.3839 69.3103C57.5525 70.2506 57.831 71.1677 58.2139 72.0428C58.3164 72.3753 57.4039 73.1503 58.5739 72.9953C59.3439 72.8953 59.6439 72.3953 59.2389 71.5953C58.9039 70.9328 58.2764 70.4003 58.2589 69.5929C58.2674 69.194 58.2974 68.7959 58.3489 68.4004ZM50.3764 76.8828C50.3336 75.6483 49.9371 74.4521 49.2343 73.4363C48.5314 72.4206 47.5516 71.628 46.4114 71.1528C47.7939 73.3528 49.3614 74.9453 50.3764 76.8828ZM20.1316 83.0703C20.3009 82.3949 20.3261 81.6915 20.2055 81.0057C20.0849 80.32 19.8212 79.6673 19.4316 79.0903C19.1674 79.7533 19.0929 80.4767 19.2166 81.1797C19.3402 81.8826 19.657 82.5372 20.1316 83.0703ZM66.7563 98.7652C67.1238 100.093 67.9963 99.9777 68.8613 100.408C68.644 100.003 68.3445 99.6472 67.982 99.3644C67.6196 99.0816 67.2021 98.8775 66.7563 98.7652ZM44.9014 73.2503C45.3589 72.5128 44.8639 72.0503 44.4289 71.5878C44.3961 71.5449 44.351 71.5131 44.2995 71.4965C44.2481 71.48 44.1928 71.4796 44.1411 71.4954C44.0894 71.5112 44.0438 71.5424 44.0103 71.5848C43.9769 71.6272 43.9572 71.6789 43.9539 71.7328C43.9493 72.0501 44.0361 72.362 44.2042 72.6311C44.3722 72.9003 44.6143 73.1153 44.9014 73.2503ZM146.758 144.525C145.526 143.69 144.348 144.445 143.131 144.507C143.701 144.764 144.318 144.898 144.943 144.901C145.568 144.903 146.186 144.777 146.758 144.525ZM147.601 149.215C147.553 149 147.566 148.87 147.506 148.802C147.026 148.27 146.568 147.62 145.711 148.11C145.586 148.182 145.461 148.52 145.523 148.615C145.729 148.959 146.058 149.212 146.443 149.323C146.828 149.434 147.243 149.396 147.601 149.215ZM136.916 139.425C137.151 139.525 137.248 139.602 137.348 139.602C137.958 139.6 138.633 139.867 139.106 139.27C139.173 139.187 139.043 138.85 138.913 138.725C138.243 138.085 137.748 138.74 137.206 139C137.126 139.04 137.088 139.167 136.916 139.425ZM155.246 148.515C154.884 148.216 154.44 148.033 153.972 147.991C153.505 147.949 153.035 148.05 152.626 148.28C152.976 148.602 153.422 148.8 153.896 148.842C154.37 148.885 154.844 148.77 155.246 148.515ZM138.641 144.092C138.682 144.296 138.789 144.48 138.945 144.615C139.102 144.751 139.299 144.831 139.506 144.842C139.668 144.855 139.846 144.675 140.016 144.582C139.716 144.32 139.402 144.074 139.076 143.845C138.851 143.7 138.676 143.822 138.641 144.092Z" fill="#80655B"/>
</g>
<defs>
<clipPath id="clip0_360_48">
<rect width="488" height="200" fill="white"/>
</clipPath>
</defs>
</svg>
