<svg width="48" height="48" viewBox="0 0 48 48" fill="none" xmlns="http://www.w3.org/2000/svg">
    <path d="M26 35L33 28C33.3667 27.6333 33.6583 27.2 33.875 26.7C34.0917 26.2 34.2 25.6667 34.2 25.1C34.2 23.9667 33.8 23 33 22.2C32.2 21.4 31.2333 21 30.1 21C29.4667 21 28.8417 21.1833 28.225 21.55C27.6083 21.9167 26.8667 22.5333 26 23.4C25 22.4667 24.2167 21.8333 23.65 21.5C23.0833 21.1667 22.5 21 21.9 21C20.7667 21 19.8 21.4 19 22.2C18.2 23 17.8 23.9667 17.8 25.1C17.8 25.6667 17.9083 26.2 18.125 26.7C18.3417 27.2 18.6333 27.6333 19 28L26 35ZM28.5 42.8C27.7333 43.5667 26.7833 43.95 25.65 43.95C24.5167 43.95 23.5667 43.5667 22.8 42.8L5.2 25.2C4.83333 24.8333 4.54167 24.4 4.325 23.9C4.10833 23.4 4 22.8667 4 22.3V8C4 6.9 4.39167 5.95833 5.175 5.175C5.95833 4.39167 6.9 4 8 4H22.3C22.8667 4 23.4 4.10833 23.9 4.325C24.4 4.54167 24.8333 4.83333 25.2 5.2L42.8 22.85C43.5667 23.6167 43.95 24.5583 43.95 25.675C43.95 26.7917 43.5667 27.7333 42.8 28.5L28.5 42.8ZM25.65 40L39.95 25.7L22.3 8H8V22.3L25.65 40ZM13 16C13.8333 16 14.5417 15.7083 15.125 15.125C15.7083 14.5417 16 13.8333 16 13C16 12.1667 15.7083 11.4583 15.125 10.875C14.5417 10.2917 13.8333 10 13 10C12.1667 10 11.4583 10.2917 10.875 10.875C10.2917 11.4583 10 12.1667 10 13C10 13.8333 10.2917 14.5417 10.875 15.125C11.4583 15.7083 12.1667 16 13 16Z" fill="#8163BF"/>
</svg>