<svg width="298" height="345" viewBox="0 0 298 345" fill="none" xmlns="http://www.w3.org/2000/svg">
            <path fill-rule="evenodd" clip-rule="evenodd" d="M79.1587 78.0093C78.8063 83.7719 78.4533 89.534 78.101 95.2966C80.369 94.6433 94.797 90.3981 93.9059 94.7025C93.2665 97.7897 89.21 101.129 87.1434 103.279C85.2413 105.258 83.2826 107.185 81.2741 109.056C84.9657 107.643 88.6879 106.305 92.4371 105.053C95.274 104.105 98.1316 103.18 101.038 102.471C102.117 102.207 105.031 101.131 106.05 101.865C108.729 103.792 94.1955 117.991 92.2046 119.992C95.0197 118.683 97.9022 117.494 100.834 116.473C102.95 115.736 109.49 112.921 111.363 115.325C113.368 117.898 108.401 123.805 107.024 125.678C105.05 128.362 102.911 130.937 100.667 133.399C109.994 141.776 120.955 149.233 132.62 153.868C141.173 157.266 149.574 158.131 158.6 156.266C167.871 154.35 176.763 150.675 185.216 146.474C190.181 144.007 195.079 141.337 199.746 138.338C197.822 135.997 195.954 133.608 194.139 131.183C191.549 127.72 188.366 123.936 186.889 119.813C185.443 115.778 190.866 116.566 193.467 116.785C197.234 117.102 200.991 117.776 204.682 118.581C202.072 116.766 199.509 114.878 196.998 112.928C193.725 110.388 189.359 107.515 187.217 103.86C185.333 100.646 189.467 101.458 191.379 101.879C195.938 102.883 200.373 104.595 204.721 106.264C207.905 107.486 211.069 108.766 214.203 110.114C212.257 108.423 210.378 106.651 208.571 104.814C206.142 102.345 202.867 99.3294 201.778 95.9291C199.561 89.0043 214.477 94.2279 217.023 95.2966C216.553 88.1231 216.083 80.9496 215.613 73.7761C195.863 79.0313 176.113 84.2871 156.362 89.5428C154.228 90.1109 151.557 91.3479 149.331 91.4138C147.315 91.4741 144.88 90.5663 142.914 90.1909L107.173 83.3622C97.8352 81.5779 88.4969 79.7936 79.1587 78.0093Z" fill="#FF5678"/>
            <path fill-rule="evenodd" clip-rule="evenodd" d="M135.341 1.52012C136.81 0.00371003 137.576 0.566131 138.531 2.12305C139.13 3.09988 139.653 4.84168 140.603 5.36048C142.708 6.51077 143.301 4.38364 144.419 3.51845C145.991 2.30117 147.416 3.88665 148.966 4.31976C150.512 4.75236 152.533 3.99623 153.932 4.88063C155.847 6.09116 155.312 8.35746 155.843 10.1252C156.35 11.8099 157.503 11.0647 158.752 11.7439C160.052 12.4502 159.791 13.4213 159.796 14.8084C159.8 15.4867 159.889 16.2511 159.817 16.9179C159.682 18.158 159.261 18.0729 158.782 18.9282C157.566 21.102 159.953 21.1799 160.89 23.0848C161.368 24.0585 161.134 23.815 161.06 24.6074C161.089 24.2964 160.485 25.7842 160.571 25.643C160.229 26.2028 160.891 26.0911 160.172 26.5648C159.983 26.6889 159.499 26.4676 159.283 26.5393C158.487 26.8031 158.277 27.0337 157.589 27.5567C155.962 28.7952 155.539 28.2214 154.082 26.9257C153.785 27.6309 153.643 28.6716 153.893 29.4231C154.009 29.7721 154.822 30.5427 154.795 30.8133C154.771 31.0444 153.802 31.3918 153.597 31.6395C153.188 32.1324 153.102 32.5442 152.997 33.1819C151.551 32.5509 150.789 33.318 152.332 34.0549C154.028 34.8635 156.8 34.6126 158.656 34.8811C160.734 35.1813 162.947 35.5526 164.823 36.545C166.674 37.525 168.021 39.2081 169.505 40.6492C170.915 42.0181 172.156 43.2868 172.707 45.2233C173.134 46.7299 172.978 48.6503 174.688 49.2616C176.215 49.8074 178.887 49.0279 180.499 49.0678C183.097 49.1317 185.68 49.4745 188.23 49.9683C205.149 53.2473 220.397 62.796 234.506 72.3598C241.344 76.9942 247.879 82.6064 252.565 89.4173C255.061 93.0447 258.314 96.1331 260.887 99.7273C263.358 103.179 265.771 106.724 268.013 110.329C270.289 113.99 271.744 118.032 273.501 121.952C275.328 126.029 277.25 130.061 278.893 134.217C279.74 136.362 280.485 138.538 281.238 140.716C281.561 141.649 281.995 142.582 282.254 143.532C282.452 144.255 282.265 144.841 282.386 145.494C282.676 147.066 283.49 148.651 283.829 150.341C284.242 152.397 284.769 154.413 285.083 156.491C285.741 160.835 286.183 165.351 286.039 169.746C285.966 171.985 285.742 174.218 285.697 176.458C285.665 178.073 286.103 180.058 285.516 181.613C285.218 182.404 284.506 182.795 284.187 183.52C283.836 184.32 284.055 185.068 283.971 185.917C283.825 187.388 283.205 188.341 282.596 189.56C281.168 192.421 279.018 194.355 278.85 197.886C278.155 197.525 277.46 197.164 276.766 196.803C276.766 197.995 277.123 198.467 276.262 199.352C275.848 199.363 275.455 199.459 275.082 199.638C274.964 199.825 274.884 200.027 274.845 200.243C274.929 200.184 274.269 200.745 274.329 200.693L274.247 200.764C273.532 201.394 273.524 201.663 273.334 202.834C272.232 202.807 272.555 201.669 271.901 201.126C271.832 201.48 271.801 201.837 271.807 202.197C271.786 202.237 271.141 202.932 271.106 202.983C270.992 203.144 271.192 203.344 271.012 203.573C270.442 204.305 269.638 204.594 268.771 204.859C266.884 205.437 264.865 205.286 262.996 205.611C261.31 205.904 259.54 205.055 257.921 205.219C257.025 205.309 256.935 205.153 256.516 206.262C256.151 207.227 256.219 208.538 256.043 209.551C255.147 214.726 253.779 219.981 251.967 224.91C251.35 226.588 247.612 231.782 250.158 232.797C251.468 233.319 253.578 232.229 254.979 232.227C257.357 232.221 259.83 232.922 262.153 233.38C267.168 234.369 272.314 235.713 277.09 237.555C279.149 238.349 280.952 239.592 282.425 241.25C283.07 241.976 283.521 242.856 284.324 243.364C285.138 243.879 285.715 243.717 286.397 244.532C288.936 247.566 285.753 252.097 282.383 252.688C281.645 252.818 280.797 252.093 280.208 252.562C279.784 252.9 279.624 253.767 279.23 254.22C278.71 254.819 277.015 256.333 276.529 255.151C276.249 254.47 277.556 254.251 276.916 253.566C276.494 253.114 275.567 254.05 275.36 254.351C274.465 255.659 274.966 256.895 272.833 255.789C273.629 255.505 273.735 255.275 273.149 255.097C273.041 254.869 272.876 254.699 272.654 254.585C271.569 255.072 272.501 255.687 271.91 256.253C271.369 256.771 270.463 256.368 269.814 256.436C268.717 256.552 268.488 257.078 267.266 256.674C267.873 255.341 267.08 255.553 265.865 255.093C265.508 255.696 266.127 256.06 266.496 256.39C265.869 256.813 265.149 257.005 264.425 257.175L264.064 257.259C263.809 256.118 263.803 255.243 262.367 255.87C262.207 255.939 261.784 255.844 261.654 255.98C261.36 256.287 261.974 256.873 261.784 257.087C260.966 258.008 261.263 257.324 260.28 257.195C259.164 257.048 258.204 257.303 257.08 257.383C254.009 257.603 250.913 257.228 247.828 257.472C246.536 257.575 245.718 257.87 244.584 258.278C243.445 258.689 243.458 259.074 242.986 257.68C242.481 258.691 242.215 257.935 241.478 258.423C241.063 258.697 240.7 259.227 240.271 259.457C238.863 260.211 237.898 259.501 236.494 259.537C236.925 260.308 237.693 260.254 236.97 260.871C236.705 261.098 234.959 260.895 234.489 261.076C233.827 261.332 233.382 262 232.727 262.231C232.299 262.383 231.797 262.21 231.374 262.321C230.351 262.588 230.209 262.606 228.989 262.636C229.449 264.268 226.086 263.378 225.549 263.438C223.92 263.618 222.882 265.39 221.056 265.688C221.492 267.24 223.848 268.779 224.945 269.84C226.125 270.981 227.279 272.255 228.586 273.251C231.56 275.519 235.021 277.471 238.185 279.491C244.673 283.633 252.172 286.075 259.046 289.578C262.672 291.425 265.96 293.79 269.197 296.241C272.06 298.409 275.183 300.035 278.017 302.202C284.273 306.987 290.893 311.937 295.577 318.307C301.645 326.556 293.333 332.527 286.033 335.004C278.762 337.472 271.524 338.319 264.007 338.377C259.709 338.41 255.469 339.106 251.165 338.976C248.475 338.895 244.986 340.811 243.557 337.576C242.689 335.61 243.188 335.29 240.831 334.687C239.328 334.303 238.075 334.091 236.54 333.924C232.96 333.535 229.669 331.684 226.115 331.004C218.102 329.468 210.638 326.071 203.011 323.3C201.085 322.601 199.084 322.063 197.184 321.3C195.423 320.592 193.861 319.479 192.115 318.74C188.72 317.303 184.96 316.799 181.474 315.613C178.281 314.527 175.147 312.903 172.131 311.404C169.085 309.891 165.743 309.904 163.139 307.463C160.342 304.842 157.89 300.931 156.187 297.513C155.484 296.103 155.242 294.46 154.498 293.087C153.577 291.388 152.052 291.277 150.607 290.182C148.225 288.376 146.843 284.862 144.304 283.428C141.088 281.612 138.53 284.003 136.204 285.897C134.732 287.095 132.968 288.069 131.808 289.612C130.728 291.048 130.908 292.228 130.726 293.87C130.537 295.564 130.127 300.211 128.03 298.296C127.844 299.835 127.677 299.678 127.002 300.788C126.27 301.992 125.999 303.265 126.284 304.647C125.87 304.374 125.457 304.101 125.044 303.829C125.169 304.543 125.356 305.102 124.867 305.73C124.29 305.067 124.026 302.202 122.49 303.995C121.593 305.041 122.384 306.326 123.248 306.824C122.242 306.824 121.84 306.684 120.941 307.021C120.586 307.154 120.189 307.598 119.778 307.738C119.245 307.919 118.998 307.311 118.079 307.911C117.539 308.264 117.182 308.911 116.704 309.339C113.488 312.218 109.384 313.815 105.398 315.215C96.8291 318.223 89.0953 322.983 81.2795 327.475C75.037 331.062 69.6186 335.717 63.2812 339.196C59.7578 341.13 56.2453 343.804 52.147 344.231C48.677 344.593 44.847 344.819 41.3999 344.395C33.3168 343.4 25.0185 344.112 16.9572 342.343C10.5477 340.937 2.54872 337.939 1.50519 330.573C0.461153 323.2 7.23446 317.757 11.4895 312.671C16.5359 306.638 22.8364 302.942 29.3451 298.669C36.5138 293.962 43.3593 288.603 50.0443 283.237C56.2417 278.263 61.959 272.582 66.7008 266.155C66.0464 266.054 64.8815 265.48 64.2396 265.721C63.799 265.886 63.2277 267.014 62.8998 266.985C62.6138 266.959 62.6268 266.557 62.029 266.514C61.288 266.461 60.5133 266.569 59.6483 266.408C59.038 266.295 57.953 266.292 57.4045 266.059C57.0434 265.904 56.6609 265.431 56.3787 265.321C55.5935 265.014 54.8339 265.622 54.0078 265.303C53.4556 265.089 53.2413 264.378 52.6036 264.355C52.0401 264.335 51.9103 265.049 51.4262 265.085C50.818 265.13 50.118 264.46 49.5467 264.25C48.1099 263.724 46.345 263.351 44.8854 262.934C43.6732 262.588 42.3733 262.309 41.1555 262.042C38.7685 261.518 36.4049 262.457 34.0386 262.502C32.3299 262.536 26.9395 262.673 26.7065 260.345C25.8824 260.731 24.6734 261.494 23.7528 260.883C23.0264 260.401 23.4566 259.957 23.1904 259.257C22.5085 259.727 22.5952 260.475 22.535 261.195C21.6362 260.624 20.9528 259.928 19.8465 259.813C19.5383 259.976 19.2254 260.132 18.9088 260.279C18.4257 260.161 17.9764 259.966 17.5607 259.692C16.7907 259.551 16.2219 259.883 15.4623 259.755C14.8297 259.648 14.0207 259.272 13.4022 259.114C11.4361 258.614 10.4589 256.831 8.46997 256.116C7.65529 255.824 7.04609 255.838 6.30198 255.425C5.45045 254.951 5.48626 254.407 4.32027 254.167C4.46868 254.376 5.27921 255.127 4.999 255.482C3.61196 254.545 2.00542 254.135 1.11394 252.523C-0.231784 250.09 1.56001 248.336 3.39368 246.841L3.59017 246.681C7.63972 243.415 12.506 241.612 17.5654 240.647C22.9734 239.616 28.1688 238.911 33.3075 236.837C38.4296 234.768 43.1174 233.748 48.5826 233.081C47.4036 227.826 45.4084 222.83 44.4842 217.482C44.0447 214.94 43.806 212.353 43.4802 209.794C43.2685 208.133 43.6296 204.88 41.4777 204.645C40.786 204.57 39.4597 204.882 38.8219 204.96C38.3762 205.014 38.1261 204.782 37.6617 204.924C36.9113 205.153 36.4645 205.841 35.5201 206.054C33.5519 206.499 32.2832 205.993 30.4229 205.852C28.7245 205.723 27.2228 205.973 25.6048 205.164C22.0814 203.403 19.3307 201.399 17.336 197.962C15.0466 194.016 13.5843 189.7 12.9004 185.2C12.1454 180.231 11.8709 175.209 11.7925 170.187C11.7189 165.433 11.5045 160.133 12.862 155.522C13.8739 152.085 14.6315 148.263 16.6007 145.251C17.0563 144.554 17.1954 143.681 17.6277 143.032C18.0319 142.424 18.4268 142.521 18.7511 141.792C19.0095 141.21 18.969 140.267 19.2264 139.603C19.6296 138.562 20.1926 137.562 20.6581 136.545C20.9149 136.938 21.1713 137.331 21.4281 137.724C21.6741 136.113 21.6201 134.763 22.5345 133.366C23.248 132.275 24.0517 131.294 24.7279 130.151C26.3759 127.365 27.765 124.53 29.233 121.649C30.3819 119.395 32.1026 117.288 33.0921 115.14C34.3131 112.491 36.175 110.279 38.1209 108.03C41.6775 103.918 44.4988 99.0268 48.3345 95.1511C51.5839 91.869 54.4462 88.3252 57.7081 85.0421C61.7431 80.9805 65.6432 76.8488 70.2885 73.4903C74.9846 70.0945 79.7191 66.7023 84.5865 63.4524C89.239 60.3464 93.8931 57.7103 98.9036 55.1423C102.01 53.5501 105.127 51.9906 108.29 50.5136C110.88 49.3041 113.117 49.1094 115.894 48.6249C118.12 48.2364 119.245 47.3671 120.405 45.4955C121.43 43.842 122.126 41.0293 123.798 39.8941C124.767 39.2366 126.066 39.3353 127.134 38.9105C128.312 38.4421 129.374 37.6673 130.531 37.1433C132.428 36.2843 136.014 35.9675 137.319 34.273C136.735 33.8321 135.298 32.0685 134.398 32.2856C133.553 32.4886 134.116 32.9461 133.706 33.3128C133.079 33.8726 133.05 33.7521 132.254 33.8861C131.071 34.086 129.161 33.8575 128.486 32.7571C127.74 31.5419 128.616 30.7853 129.255 29.6048C127.341 28.7947 124.185 27.9669 123.104 25.9764C122.139 24.2003 123.793 22.5831 123.775 20.711C123.75 17.9815 124.716 17.1069 126.532 15.0811C127.984 13.4603 127.014 12.5245 128.268 10.8305C129.532 9.12294 130.406 9.73989 131.963 8.89859C133.528 8.05314 132.281 7.45593 132.41 6.02676C132.526 4.7321 134.436 2.45541 135.341 1.52012ZM86.2812 250.843C85.055 249.96 82.6665 249.201 81.3547 250.46C80.7875 251.005 80.9136 251.749 80.5416 252.364C80.1472 253.018 79.524 253.483 79.0814 254.109C77.8007 255.922 77.3633 258.305 76.4147 260.297C75.4044 262.419 74.2358 264.465 72.9946 266.46C67.6888 274.982 61.2818 283.042 54.0887 290.05C50.4875 293.559 46.4006 296.522 42.4885 299.665C38.4016 302.947 34.255 306.146 29.8033 308.925C25.65 311.517 22.1074 313.972 18.556 317.352C14.6906 321.03 11.4054 325.23 8.09688 329.401C9.82796 329.93 13.1625 331.643 14.9568 331.521C16.3294 331.429 16.552 330.188 17.2608 329.072C19.408 325.691 22.5225 322.77 25.7621 320.455C26.5036 319.925 28.4168 317.96 29.3778 318.076C31.7098 318.359 30.7114 321.428 29.946 322.593C27.5834 326.188 24.2401 329.516 21.2486 332.589C22.9423 332.791 24.6258 333.074 26.3065 333.365L27.9866 333.656C30.1001 334.02 30.6294 334.16 31.7783 332.339C33.938 328.914 36.1044 325.793 39.3938 323.332C40.6329 322.405 42.5249 320.848 44.1978 321.586C45.6933 322.246 45.7234 323.989 45.1038 325.261C44.2367 327.039 42.0583 328.43 40.6345 329.716C38.948 331.239 37.2719 332.774 35.5824 334.296C38.0534 334.925 40.6044 336.432 42.624 334.193C44.3514 332.276 45.6066 330.541 47.8758 329.103C49.3739 328.154 51.9612 327.06 51.6986 330.032C51.4968 332.314 48.8431 333.906 47.5463 335.562C52.08 337.619 57.1627 334.003 60.93 331.886C62.769 330.853 64.5115 329.997 66.1761 328.679C67.7505 327.433 69.5091 326.818 70.8982 325.416C72.3797 323.921 74.2016 323.003 75.9238 321.814C77.8801 320.464 79.6926 318.763 81.8923 317.807C83.7298 317.008 85.1438 315.915 86.9324 315.017C88.662 314.15 90.5378 313.668 92.2751 312.853C94.2174 311.944 95.8639 310.784 97.9063 310.018C100.177 309.168 102.502 308.473 104.801 307.707C107.931 306.665 111.963 305.856 114.037 303.041C115.353 301.255 115.226 299.203 115.474 297.113C115.768 294.642 116.211 292.258 116.284 289.758C116.444 284.337 116.887 278.932 117.051 273.512C117.124 271.073 117.873 268.062 117.289 265.667C116.808 263.694 115.355 263.348 115.947 261.155C110.2 260.322 104.607 259.196 98.9664 257.825C96.553 257.238 94.1951 256.369 92.0152 255.174C89.8482 253.986 88.2531 252.262 86.2812 250.843ZM198.234 250.198C196.347 252.35 195.083 254.84 193.131 256.941C191.212 259.006 189.114 260.908 186.703 262.383C184.038 264.015 181.154 265.601 178.244 266.737C175.718 267.722 172.581 269.235 169.894 269.599C167.649 269.904 166.614 269.86 167.769 272.536C168.762 274.832 170.02 277.046 170.78 279.438C171.642 282.152 171.881 285.265 171.577 288.094C171.318 290.499 169.56 293.088 170.042 295.495C170.957 300.05 176.967 302.645 180.791 303.947C186.039 305.732 190.971 308.016 196.008 310.298C206.577 315.088 217.325 319.839 228.293 323.616C231.088 324.579 233.99 324.961 236.76 326.058C239.228 327.035 241.729 327.752 244.238 328.6C246.939 329.513 249.384 331.122 252.318 330.88C254.744 330.681 257.167 330.338 259.599 330.139C257.912 328.189 256.061 326.455 254.036 324.862C252.517 323.666 250.464 322.354 249.742 320.463C249.264 319.211 249.2 317.295 250.7 316.79C252.283 316.258 254.864 318.374 256.079 319.139C259.411 321.233 263.464 323.226 265.462 326.789C266.316 328.313 266.506 329.646 268.377 330.088C269.603 330.377 274.018 330.525 274.822 329.288C271.66 325.889 266.82 321.956 265.221 317.445C264.719 316.027 264.671 313.254 266.675 313.062C268.282 312.907 269.949 315.252 270.861 316.256C272.787 318.375 274.627 320.548 276.396 322.8C277.125 323.73 277.904 324.638 278.452 325.69C278.798 326.354 278.932 327.5 279.519 328.005C280.741 329.056 283.04 327.909 284.431 327.538C286.8 326.906 289.298 325.964 291.43 324.744C294.751 322.843 284.971 316.802 283.777 315.765C279.942 312.435 276.286 309.392 271.93 306.738C262.926 301.251 253.715 296.602 244.063 292.349C241.546 291.24 238.808 290.486 236.359 289.27C234.4 288.299 232.617 286.896 230.819 285.667C226.514 282.726 222.716 279.527 219.222 275.658C211.821 267.461 205.2 258.764 198.234 250.198ZM87.3548 132.493C87.6195 130.412 78.9838 129.668 77.7312 130.901C76.7971 131.82 76.8931 133.781 76.3613 134.941C75.5746 136.654 73.9727 138.388 72.2666 139.206C70.386 140.107 67.9492 139.936 66.5612 138.233C65.3417 136.737 65.4632 134.587 65.2857 132.78C60.1278 133.163 56.951 140.269 55.5147 144.312C57.0787 144.85 58.8985 144.48 60.3047 145.497C59.8699 145.566 59.435 145.635 59.0002 145.704C60.2274 150.41 57.2987 153.732 53.7047 156.463C52.2009 157.605 50.8979 158.195 50.4901 160.133C49.9878 162.522 50.0423 165.148 49.7714 167.579C49.4855 170.152 49.2691 172.641 49.1902 175.23C49.156 176.338 48.5406 180.081 49.5005 180.894C50.2986 181.571 53.7384 181.405 54.934 181.661C56.8182 182.066 59.1086 181.401 60.5605 182.765C59.668 182.912 58.775 183.059 57.8824 183.206C60.82 186.512 59.5881 190.748 57.4543 194.103C56.5489 195.527 55.4882 196.903 54.2496 198.054C53.1593 199.067 51.5834 199.881 51.0251 201.341C49.8705 204.362 52.4593 209.599 53.1396 212.533C54.138 216.842 54.9262 221.201 56.5608 225.332C58.953 222.676 63.7694 219.461 66.5897 223.369C64.9401 222.908 62.9999 221.998 61.4349 223.206C66.5129 223.489 69.7763 227.369 67.8735 232.362C67.1994 234.13 63.7949 237.317 64.1379 239.032C64.3377 240.028 66.1466 241.244 66.8658 241.956C67.8206 242.9 68.7219 243.971 69.8972 244.649C71.7907 245.741 75.31 246.155 77.4011 245.387C78.4281 245.01 78.2117 245.379 78.6237 244.159C79.0757 242.82 78.8614 241.837 79.7492 240.59C80.9287 238.933 83.6763 237.258 83.984 235.132C84.1464 234.006 83.3847 232.876 83.2321 231.793C83.024 230.315 83.3489 228.772 83.3489 227.286C82.652 227.655 76.5346 231.679 76.4069 231.575C75.284 230.659 78.9797 227.974 79.6584 227.561C81.5763 226.39 83.5227 225.961 85.0156 224.18C86.0477 222.95 87.3201 220.727 88.911 222.67C87.3896 222.515 86.6455 223.31 86.027 224.585C88.8021 224.585 90.9602 225.176 92.697 222.804C94.6512 220.135 96.3335 217.357 98.5866 214.915C100.311 213.047 102.309 211.545 100.87 208.942C99.7043 206.834 97.6219 205.106 96.1986 203.164C92.9829 198.777 90.2545 194.038 87.1151 189.592C85.7748 187.694 84.8988 185.301 82.4065 185.208C80.3823 185.132 78.7814 184.988 78.2776 182.622C77.9387 181.027 79.1021 178.573 77.7556 177.289C76.7676 176.346 72.8789 176.301 71.6236 176.702C69.8583 177.265 68.6586 179.596 66.5648 179.149C64.6635 178.744 64.6843 176.412 63.195 175.466C62.1328 174.792 60.2471 175.032 59.4423 173.893C58.3157 172.299 60.0691 171.702 61.383 171.422C63.4389 170.986 64.3667 171.144 65.5016 169.206C66.3853 167.696 68.2066 165.84 67.7422 163.998C67.2809 162.168 65.1752 161.15 64.6573 159.359C63.9438 156.894 65.7984 157.523 67.2721 157.933C68.4303 158.256 68.7453 157.82 69.8822 157.921C70.8681 158.008 72.3112 158.962 73.0439 159.576C74.0506 160.421 73.8233 160.984 74.4107 161.956C74.6618 162.371 74.3344 163.568 75.1543 162.456C75.6327 163.086 76.341 163.462 76.7909 163.938C77.1521 164.32 76.7862 163.089 77.4525 164.165C77.7608 164.664 77.0224 167.116 78.4208 164.872C80.1389 166.352 80.2126 167.848 81.2509 169.759C82.4704 168.113 87.6947 160.064 89.9691 163.379C87.9397 162.083 83.5621 167.092 83.0894 169.011C82.2125 172.569 86.4981 166.99 87.2225 166.412C90.7833 163.572 96.4534 165.716 96.4347 170.501C96.4253 172.993 94.7617 175.464 93.1505 177.243C91.7785 178.758 90.7859 179.069 91.4661 181.142C89.7864 180.892 91.6488 182.807 92.0219 183.178C93.0115 184.16 93.4312 184.832 94.1172 186.038C94.4867 186.688 95.0015 187.351 95.5339 187.876C95.9874 188.324 97.2115 188.891 97.5156 189.383C98.1523 190.415 97.2037 192.66 99.4475 191.761C100.695 191.261 101.637 188.652 102.653 187.676C104.124 186.265 105.995 185.076 107.967 184.517C112.516 183.229 115.886 186.507 119.988 187.726C131.043 191.01 124.44 201.762 117.475 205.815C115.969 206.692 114.485 207.17 112.86 207.685C111.058 208.255 110.507 208.523 111.545 210.117C112.532 211.634 114.034 212.963 115.152 214.401C115.735 215.153 115.827 215.989 116.29 216.701C116.345 217.159 116.537 217.549 116.868 217.87C117.307 217.991 117.746 218.114 118.185 218.239C119.018 219.043 118.68 220.59 119.185 221.475C119.751 222.468 120.849 222.348 121.508 223.15C121.989 223.734 121.95 224.736 122.337 225.411C123.183 226.885 124.266 228.083 125.455 229.333C126.217 230.134 125.874 230.357 126.23 231.016C125.946 231.348 126.027 231.625 126.475 231.846C126.844 232.062 127.178 232.322 127.478 232.627C127.824 233.163 127.714 234.14 128.049 234.568C128.51 235.158 129.18 234.382 129.73 235.042C130.122 235.513 129.687 236.572 129.893 237.169C130.219 238.111 131.184 238.815 131.808 239.544C133.031 240.974 132.903 242.436 133.881 243.885C135.026 245.58 135.83 246.691 136.975 244.694C138.108 242.721 138.796 240.974 140.544 239.374C142.074 237.974 143.912 236.832 145.767 235.914C149.688 233.972 155.569 234.982 157.275 239.631C158.788 243.755 156.209 248.542 153.805 251.737C150.781 255.755 146.867 258.217 142.28 260.124C142.866 260.947 144.341 264.11 145.36 264.45C146.389 264.794 149.235 263.256 150.29 263.042C152.882 262.513 155.277 262.582 157.865 261.805C160.146 261.121 162.369 261.033 164.638 260.336C166.448 259.78 168.82 259.216 170.47 258.256C172.455 257.102 172.886 254.237 173.666 252.258C172.982 252.684 169.137 255.601 169.849 253.175C170.366 251.415 175.018 249.278 176.43 248.693C177.685 248.173 179.395 247.578 180.745 248.047C182.228 248.562 181.984 249.71 182.91 250.588C184.752 252.334 187.512 248.719 188.908 247.388C190.233 246.125 191.842 245.014 193.019 243.695C194.023 242.572 194.773 241.579 196.015 240.651C196.306 240.434 198.322 239.313 198.032 238.657C197.684 237.872 195.82 239.256 195.304 239.191C191.928 238.764 193.737 233.649 193.346 231.559C192.735 228.287 189.429 224.585 187.315 222.136C185.627 224.169 183.2 226.321 180.473 226.679C177.918 227.015 176.1 225.573 176.327 222.926C176.418 221.862 177.572 219.755 176.047 220.83C175.639 221.117 174.01 224.473 173.454 224.225C171.501 223.356 177.316 217.886 177.864 217.404C178.908 216.487 181.426 214.962 181.203 213.361C181.049 212.247 179.143 210.603 178.502 209.761C172.71 202.161 166.209 195.148 160.058 187.847C158.674 186.203 156.696 181.535 154.226 182.173C152.897 182.516 151.629 183.898 150.357 184.459C148.72 185.182 147.037 185.503 145.27 185.102C142.111 184.384 140.03 181.621 140.218 178.379C140.327 176.5 141.271 175.061 141.957 173.37C142.923 170.987 142.535 170.64 144.707 169.305C141.122 164.861 136.559 161.192 132.133 157.626C127.733 154.08 123.183 150.509 118.206 147.814C115.754 146.485 113.481 144.969 111.196 143.373C109.793 142.393 108.169 140.453 106.511 141.596C105.81 142.08 105.354 143.123 104.784 143.769C104.012 144.645 103.132 145.438 102.256 146.208C100.612 147.655 98.8684 149.032 97.0683 150.281C93.7903 152.554 88.9188 155.186 84.9217 153.116C81.4071 151.297 81.0257 146.728 81.6842 143.267C82.118 140.988 83.0635 138.841 84.2445 136.857C84.89 135.773 87.1992 133.716 87.3548 132.493ZM70.4343 259.614C69.8355 261.076 68.8911 262.027 68.5569 263.637C69.5029 262.432 71.1286 261.386 70.4343 259.614ZM153.348 238.14C148.682 237.434 143.582 241.642 140.683 244.721C139.762 245.7 138.032 247.208 137.767 248.564C137.541 249.721 138.31 250.483 138.695 251.526C139.364 253.343 139.261 256.45 141.18 257.519C144.874 259.578 151.515 252.097 153.238 249.756C155.261 247.011 159.286 239.039 153.348 238.14ZM180.084 249.917C176.65 249.44 173.971 253.77 173.499 256.64C175.163 256.187 176.65 255.269 178.21 254.563C179.321 254.06 181.285 253.799 181.809 252.522C182.385 251.117 181.396 250.098 180.084 249.917ZM108.888 241.169C108.31 241.016 105.752 246.357 105.328 247.21C104.043 249.792 105.924 249.73 108.17 250.148C114.505 251.327 120.905 251.9 127.327 252.329C127.986 250.986 125.508 248.808 124.796 247.872C123.306 245.913 122.234 243.7 120.752 241.708C118.903 244.146 116.639 248.687 113.126 248.883C110.98 249.003 109.706 247.242 109.253 245.352C109.152 244.931 109.23 241.26 108.888 241.169ZM106.238 217.223C104.021 215.943 103.354 220.414 102.782 221.773C101.29 225.318 98.8123 227.389 98.4174 231.336C98.1061 234.451 96.4243 237.02 93.3721 238.094C92.0629 238.555 90.5913 238.436 89.3921 239.213C88.128 240.032 87.4638 241.555 86.7285 242.799C88.65 243.863 92.6991 247.617 94.9812 246.821C97.39 245.981 99.2861 242.21 102.093 245.005C99.749 244.625 97.6635 245.766 96.471 247.78C97.5068 247.214 98.9405 245.848 100.201 246.566C101.2 247.134 101.031 248.793 102.548 248.806C104.465 248.822 105.208 245.672 105.836 244.342C107.392 241.044 109.254 237.939 110.672 234.567C111.272 233.139 112.298 231.526 112.616 230.012C112.982 228.276 111.74 226.826 110.912 225.383C109.895 223.612 108.805 221.863 107.846 220.059C107.45 219.313 106.999 217.662 106.238 217.223ZM117.447 236.508C115.589 233.361 111.731 236.095 110.651 238.68C109.895 240.489 109.329 244.909 110.955 246.517C112.901 248.441 115.876 245.659 117.219 244.21C118.031 243.334 119.167 242.045 119.322 240.788C119.526 239.129 118.226 237.83 117.447 236.508ZM224.933 136.388C219.91 137.604 215.176 139.473 210.48 141.767C208.191 142.885 208.716 144.416 208.239 146.618C207.707 149.07 206.257 151.349 204.748 153.308C202.519 156.203 198.919 160.571 194.904 160.597C192.795 160.611 191.321 159.247 190.813 157.254C190.643 156.586 190.47 151.907 190.68 151.877C189.58 152.035 189.119 155.707 188.829 156.531C188.205 155.098 189.134 153.618 189.241 152.19C183.034 155.505 177.131 159.144 171.294 163.025C168.143 165.121 165.077 167.265 161.698 168.981C160.87 169.401 158.575 170.207 158.248 171.233C158.005 171.997 158.913 172.955 159.106 173.754C159.544 175.558 159.343 176.856 160.457 178.474C161.27 179.655 162.272 180.709 163.159 181.834C165.529 184.833 167.9 187.827 170.321 190.785C175.169 196.708 180.178 202.508 184.776 208.632C186.382 206.779 186.728 204.596 188.358 202.701C189.841 200.975 191.615 199.469 192.983 197.645C195.757 193.945 196.803 189.195 199.848 185.645C201.194 184.075 203.039 182.511 205.211 182.447C207.433 182.382 208.143 184.366 209.959 184.673C211.486 184.932 213.648 182.131 214.936 181.403C216.768 180.366 218.026 179.178 219.653 177.864C221.568 176.318 228.515 171.176 230.651 173.858C233.131 176.971 228.517 180.754 226.433 182.415C225.083 183.49 223.295 184.321 223.416 186.179C223.529 187.917 224.539 189.686 224.667 191.506C224.756 192.784 224.809 194.907 223.015 194.501C221.476 194.152 220.13 189.645 219.436 188.386C216.755 190.633 214.416 193.254 211.715 195.478C209.049 197.674 206.413 199.809 203.854 202.133C201.399 204.364 198.629 205.994 196.227 208.27C194.637 209.776 192.484 210.569 190.792 212C190.34 212.382 188.95 213.262 188.807 213.882C188.639 214.613 189.275 215.025 189.76 215.667C191.525 217.999 193.227 220.48 194.718 222.992C195.234 223.86 195.859 225.437 197.058 225.479C197.931 225.509 199.216 224.304 200.027 223.998C201.641 223.387 204.859 222.552 205.808 224.612C205.116 224.429 204.424 224.246 203.731 224.063C204.649 226.231 204.664 227.784 203.568 229.88C202.767 231.411 201.411 232.91 201.806 234.744C202.183 236.501 203.849 237.816 204.149 239.663C204.352 240.914 203.905 241.262 203.356 242.266C203.002 242.915 202.603 244.296 202.025 244.748C201.819 244.365 201.612 243.98 201.406 243.596C201.077 245.02 201.007 245.179 202.456 245.59C203.892 245.996 205.333 245.497 206.777 245.562C208.321 245.632 209.746 246.332 211.269 246.512C213.137 246.732 213.875 245.757 215.519 245.423C217.037 245.115 218.662 245.582 220.228 245.325C222.034 245.029 223.767 244.434 225.507 243.885C227.43 243.278 230.626 243.266 231.025 240.912C231.272 239.451 231.01 237.881 231.253 236.381C231.526 234.697 231.986 233.064 232.562 231.461C233.732 228.196 235.149 224.732 237.175 221.895C237.587 221.318 238.968 219.203 239.929 219.855C241.027 220.601 239.099 221.236 238.785 221.558C237.424 222.952 236.92 225.046 236.107 226.763C238.447 225.553 240.284 223.297 242.941 222.731C245.589 222.167 246.465 222.918 247.31 220.008C248.935 214.409 250.565 208.79 251.401 203.008C249.07 204.024 246.453 205.848 243.821 204.794C241.533 203.877 241.044 201.477 240.558 199.314C239.746 200.357 239.456 201.762 238.482 202.686C237.559 201.178 239.067 199.299 239.782 198.018C240.853 196.1 241.74 194.091 242.73 192.132C244.582 188.466 247.119 185.687 250.158 182.98C253.199 180.271 251.764 176.624 251.609 172.919C251.398 167.861 251.28 162.841 250.756 157.799C249.268 158.97 246.454 162.054 244.37 160.432C244.044 160.179 242.841 158.405 242.735 158.107C242.409 157.189 242.849 156.605 243.31 155.709C244.511 153.379 245.486 151.285 246.984 149.14C248.321 147.226 247.064 145.987 245.91 144.27C244.6 142.321 242.972 139.387 240.632 138.503C238.254 137.605 235.131 140.698 233.106 141.824C231.061 142.961 228.22 144.492 226.048 142.774C224.081 141.217 224.708 138.552 224.933 136.388ZM152.295 235.925C147.374 233.558 139.589 241.124 138.268 245.367C142.009 241.051 146.56 237.126 152.295 235.925ZM244.619 226.655C245.312 225.171 245.905 224.145 243.846 224.455C241.934 224.743 240.03 226.234 238.547 227.401C234.964 230.22 233.427 233 232.538 237.419C232.363 238.29 231.809 240.321 232.814 240.668C233.999 241.076 237.112 238.639 237.844 238.015C241.18 235.172 242.812 230.516 244.619 226.655ZM168.493 230.199C175.618 227.292 173.182 237.664 169.317 239.926C165.933 241.906 164.444 231.851 168.493 230.199ZM172.212 232.337C171.996 230.5 170.48 230.37 169.017 231.266C167.486 232.202 167.14 233.919 166.934 235.595L166.898 235.9C167.145 237.683 167.508 239.299 169.39 238.003C170.742 237.072 172.414 234.043 172.212 232.337ZM194.64 233.207C194.449 234.397 193.463 237.373 195.438 237.261C197.632 237.137 195.118 234.036 194.64 233.207ZM65.0968 225.519C62.9869 224.472 59.0988 224.899 57.9966 227.301C57.3423 228.725 58.2913 229.976 59.0567 231.141C60.314 233.054 61.4551 235.041 62.7342 236.941C65.4377 234.705 69.8936 227.899 65.0968 225.519ZM97.3376 229.916C95.3813 232.16 92.8527 234.34 91.3748 236.908C94.8126 236.131 97.458 233.605 97.3376 229.916ZM218.019 214.91C219.269 213.014 221.297 210.378 223.897 211.446C225.956 212.292 227.189 215.196 227.636 217.196C225.533 213.847 223.301 210.621 219.938 214.882C219.53 215.399 215.563 221.312 216.109 221.86C216.166 221.919 222.456 217.502 223.209 217.324C226.705 216.496 229.996 219.773 230.016 223.119C230.035 226.322 227.652 229.174 225.438 231.255C223.336 233.23 219.944 236.138 216.801 235.626C215.115 235.352 214.025 234.103 213.625 232.508C213.467 231.872 213.735 229.378 212.953 229.061C212.252 230.059 211.66 231.27 210.547 231.889C210.345 230.266 211.715 228.852 212.498 227.569C213.291 226.269 213.825 224.962 214.293 223.52C215.276 220.497 216.25 217.588 218.019 214.91ZM112.941 231.66C112.574 232.587 112.246 233.531 111.95 234.483C113.89 233.696 113.569 233.638 112.941 231.66ZM89.6764 227.121C90.3578 225.558 86.2599 226.402 85.4951 226.907C83.4739 228.24 84.0733 232.381 84.9253 234.184C86.4322 231.945 88.5992 229.593 89.6764 227.121ZM114.012 230.452C113.186 230.725 113.988 233.334 113.691 233.753L113.666 233.779L113.737 233.735C115.427 232.657 114.784 232.17 114.056 230.551L114.012 230.452ZM225.284 219.165C223.014 218.746 220.934 220.102 219.269 221.484C216.579 223.717 213.129 227.916 214.721 231.774C217.403 238.275 228.057 226.65 228.71 223.312C229.125 221.192 227.21 219.52 225.284 219.165ZM202.593 225.656C201.468 225.015 198.782 226.518 198.484 227.636C198.095 229.099 199.816 230.791 200.455 231.928C201.921 232.116 204.087 226.509 202.593 225.656ZM136.639 207.71C137.866 207.827 138.622 208.749 137.663 209.861C137.216 207.054 133.878 210.655 133.124 211.494C135.673 211.774 139.238 212.096 139.963 215.161C140.553 217.657 138.498 220.156 136.946 221.858C134.52 224.519 128.88 229.678 125.005 226.885C121.42 224.3 125.516 218.414 127.122 215.809C128.58 213.447 130.272 211.721 132.471 210.036C133.54 209.217 135.158 207.568 136.639 207.71ZM133.326 212.95C130.017 212.927 127.843 217.251 126.576 219.765C125.144 222.609 123.797 226.571 128.591 225.327C132.295 224.367 135.498 221.441 137.599 218.33C138.705 216.694 139.466 215.285 137.526 214.101C136.542 213.5 134.449 212.957 133.326 212.95ZM185.94 220.961C186.867 218.744 183.519 217.829 182.006 217.927C179.384 218.098 178.729 219.8 178.034 222.049C176.465 227.125 184.888 223.479 185.94 220.961ZM154.551 199.125C157.971 197.314 162.047 198.37 164.997 200.653C168.893 203.667 170.295 207.754 167.806 212.25C165.942 215.617 162.526 218.612 158.618 219.13C154.35 219.696 151.593 216.498 151.318 212.381C151.163 210.069 151.68 207.66 152.624 205.556C153.431 203.754 155.723 202.09 156.124 200.24C153.738 200.714 152.153 202.689 150.316 204.112C148.954 202.338 153.43 199.719 154.551 199.125ZM80.6696 198.731C82.5163 198.514 81.7933 199.796 82.7118 200.788C83.4097 201.543 84.6506 201.764 85.4017 202.558C87.5114 204.788 86.4773 207.61 84.9837 209.885C82.8489 213.139 74.3135 222.453 70.9783 215.931C69.8372 213.699 70.3029 210.871 71.14 208.633C71.4751 207.738 74.5217 203.813 74.0597 203.099C73.0143 203.856 71.427 206.078 70.0414 205.954C68.3298 205.8 72.1946 202.604 72.4883 202.395C73.7915 201.466 75.1337 200.947 76.6268 200.446C77.8656 200.03 79.3955 198.88 80.6696 198.731ZM160.29 200.379C156.203 199.745 153.339 205.503 152.638 208.817C151.817 212.703 153.323 217.578 157.977 217.4C162.649 217.222 167.09 212.625 167.961 208.143C168.707 204.302 163.502 200.877 160.29 200.379ZM85.3874 204.941C84.8624 201.981 77.9163 201.647 76.2835 203.302C73.9589 205.657 71.9136 208.836 71.5217 212.251C71.0034 216.771 74.5714 216.433 77.4946 214.633C79.766 213.234 85.9728 208.245 85.3874 204.941ZM116.071 187.124C113.281 184.315 109.001 185.061 105.885 186.854C104.408 187.704 103.043 188.827 102.008 190.189C101.489 190.873 100.804 191.794 100.648 192.656C100.408 193.972 101.072 193.927 101.362 194.991C101.514 195.55 101.081 195.948 101.421 196.494C101.648 196.857 102.491 196.842 102.799 197.215C103.44 197.99 103.778 199.137 104.471 199.993C105.163 200.848 105.426 201.759 105.99 202.696C106.345 203.285 107.456 205.342 107.977 205.66C108.575 206.025 108.364 205.212 109.089 205.452C109.381 205.549 109.665 206 109.909 206.049C111.208 206.309 112.019 206.251 113.341 205.735C116.197 204.618 118.809 203 120.988 200.832C124.659 197.182 127.363 191.561 120.86 189.383C118.484 188.587 115.894 188.534 113.506 189.288C110.597 190.206 108.316 193.12 105.415 193.679C105.466 190.11 113.463 187.536 116.071 187.124ZM252.271 187.759C250.737 187.231 248.31 190.507 247.319 191.423C245.175 193.405 242.678 195.263 242.089 198.291C240.889 204.471 249.74 203.993 251.753 199.817C252.465 198.339 252.069 196.408 252.066 194.835C252.061 192.48 252.199 190.114 252.271 187.759ZM82.02 199.896C81.8081 198.977 80.0382 199.866 80.2408 200.283C80.6707 200.5 82.2318 200.811 82.02 199.896ZM91.0339 95.1698C87.6216 95.9695 84.2113 96.762 80.8249 97.6667C78.0508 98.4083 75.3198 99.7471 72.5551 100.368C71.6667 100.568 70.4888 100.219 69.6798 100.6C68.5014 101.154 68.1495 102.515 66.7049 102.925C65.9022 103.152 65.4554 103.073 64.8187 103.44C63.9744 103.927 63.1613 104.881 62.3015 105.459C61.1116 106.258 60.1641 106.297 58.9478 106.858C58.0682 107.263 57.3547 108.351 56.6028 108.965C55.4498 109.907 54.3269 110.511 53.0592 111.222C51.9887 111.822 51.9804 112.558 51.1247 113.255C50.6878 113.611 49.9499 113.677 49.5005 114.02C48.9749 114.422 49.0096 114.881 48.3506 115.307C47.5531 115.823 46.3674 115.637 45.6424 116.359C45.2076 116.793 45.2766 117.336 44.9746 117.87C44.8236 118.137 44.2923 118.195 44.1169 118.46C43.3349 119.639 43.7422 120.272 42.1082 119.353C42.3116 120.07 41.3573 122.02 40.7253 122.373C39.8961 122.836 39.1058 121.9 38.578 122.203C37.9289 122.577 38.5656 123.942 38.1349 124.518C37.7592 125.02 36.6819 124.754 36.2575 125.188C35.5845 125.876 35.8564 126.532 36.1122 127.344C34.3126 127.713 35.6384 128.362 34.7516 129.67C34.0708 130.674 33.0107 131.35 32.3459 132.512C31.5946 133.828 30.8832 134.774 29.8277 135.838C29.4722 136.197 28.9165 136.496 28.7281 137.002C28.3815 137.935 29.0286 138.06 29.0073 138.869C28.9637 140.527 28.505 140.106 27.4495 141.111C26.6115 141.91 26.53 142.912 26.2057 143.954C26.0879 144.334 25.6593 144.499 25.6121 145.01C25.5773 145.388 26.3572 145.33 26.2784 145.831C26.159 146.587 25.0693 147.233 24.6251 147.806C23.9843 148.633 23.0788 149.858 22.6305 150.805C22.1323 151.86 22.2636 153.035 21.9725 154.147C21.8583 154.581 21.4198 154.787 21.4297 155.257C21.4364 155.579 21.9439 155.69 21.931 156.022C21.8853 157.209 21.2294 158.253 20.9855 159.406C20.6845 160.831 20.8698 162.012 21.205 163.38C21.4048 164.194 22.083 165.699 21.9922 166.464C21.8967 167.266 21.7307 166.857 21.4416 167.503C21.3093 167.799 21.1609 168.322 21.0052 168.673C20.4557 169.912 20.1278 170.468 21.6507 171.144C21.2937 171.415 19.9358 171.505 20.5112 172.183C20.8039 172.528 21.9818 172.048 22.3694 171.979C22.2501 172.365 22.0036 172.64 21.6295 172.803C22.8432 173.637 23.4664 173.509 23.9194 175.073C24.3096 176.42 24.3911 177.954 24.4477 179.346C24.4975 180.579 24.3127 181.83 24.4072 183.059C24.5162 184.468 25.1331 184.627 25.7719 185.646C27.0137 187.629 27.6114 190.576 29.9247 191.959C30.1883 191.567 30.439 191.532 30.6766 191.856C30.8852 192.002 31.0767 192.169 31.2505 192.357C31.8255 192.717 32.1841 193.405 32.7351 193.81C33.8731 194.644 34.5544 194.273 34.2592 195.97C36.3125 195.071 41.0408 201.196 42.1082 198.966C42.3801 198.398 41.94 197.108 41.8643 196.502C41.6775 195 41.5851 193.483 41.5031 191.973C41.3391 188.936 41.309 185.895 41.2421 182.855C41.1113 176.889 41.1139 170.948 41.4248 164.985C41.568 162.243 41.954 159.538 42.418 156.834C42.8051 154.579 43.6047 152.145 43.7604 149.883C43.1185 150.339 42.4968 150.813 41.7024 150.966C41.6775 149.825 42.432 149.643 43.0661 148.921C43.8237 148.057 44.3021 147.308 44.7089 146.219C45.6269 143.758 46.3777 141.236 47.3144 138.778C48.7876 134.911 51.1859 131.935 53.6648 128.761C54.3596 127.872 54.5609 127.425 55.4457 126.75C56.1093 126.243 57.0226 125.661 57.7615 125.252C59.2902 124.408 61.1261 124.368 62.7877 123.861C64.8877 123.219 66.9457 122.488 69.1313 122.179C71.1411 121.896 73.1612 122.139 75.1802 122.01C79.6875 121.721 83.5813 123.024 87.9168 124.127C86.4613 119.34 91.1117 116.597 94.1982 113.673C97.5566 110.49 101.222 107.598 104.159 103.996C99.3349 103.738 93.6819 106.94 89.3412 108.741C86.6569 109.854 84.0022 110.956 81.4393 112.333C80.1664 113.016 76.7416 115.813 75.1652 114.947C71.2381 112.79 78.5241 107.738 79.8535 106.63C83.9041 103.255 87.8981 99.4199 91.0339 95.1698ZM203.336 95.1521C203.948 96.8659 206.016 97.6828 207.333 98.8445C209.284 100.567 211.023 102.446 212.798 104.345C213.941 105.566 221.859 111.543 218.411 113.601C216.825 114.548 214.164 112.571 212.847 111.84C210.503 110.539 208.036 109.505 205.539 108.527C200.083 106.388 194.468 104.487 188.848 102.828C190.773 106 194.727 108.192 197.718 110.252C200.533 112.19 203.603 113.81 206.244 115.991C207.794 117.271 212.025 121.081 209.241 123.298C207.417 124.75 203.85 122.327 202.026 121.728C198.361 120.524 194.765 119.815 190.94 119.366C189.453 119.192 188.829 118.683 189.048 120.24C189.173 121.137 190.16 122.217 190.643 122.915C192.021 124.905 193.306 127.048 194.859 128.897C196.074 130.344 198.891 133.574 200.795 134.059C202.761 134.56 206.442 131.779 208.214 130.947C210.819 129.723 213.733 129.16 216.243 127.794C218.762 126.423 221.859 125.524 224.672 124.735C227.693 123.887 230.491 124.254 233.501 124.689C235.604 124.993 237.251 124.845 239.185 125.911C240.441 126.603 241.57 127.54 242.698 128.417C244.872 130.107 246.934 131.912 248.609 134.116C252.731 139.543 254.967 147.006 256.102 153.64C257.375 161.089 257.295 168.622 257.363 176.152C257.432 183.666 256.797 191.468 257.666 198.935C258.968 197.194 260.468 198.165 262.047 197.718C263.475 197.315 265.009 196.225 266.478 195.734C269.739 194.642 273.196 192.407 275.612 189.81C278.167 187.064 279.431 183.25 279.271 179.505C279.198 177.795 278.513 176.221 278.287 174.53C277.99 172.308 278.122 170.05 277.953 167.819C277.592 163.07 274.465 159.194 272.064 155.293C269.708 151.464 267.891 147.258 265.702 143.367C264.699 141.582 263.01 140.146 261.848 138.415C260.245 136.025 258.675 133.573 256.765 131.411C253.387 127.586 249.264 124.158 245.292 120.967C241.84 118.196 238.026 115.898 234.432 113.359C230.633 110.675 226.101 108.381 222.712 105.177C222.245 104.736 221.961 104.146 221.481 103.718C221.161 103.591 220.836 103.479 220.506 103.382C220.211 103.001 219.925 102.613 219.649 102.218C219.108 101.867 218.026 101.834 217.407 101.645C216.538 101.379 215.743 100.856 214.97 100.465C213.976 99.9641 213.826 99.7632 212.565 99.5824C211.382 99.4137 210.404 99.0964 209.333 98.5448C207.287 97.4922 205.521 95.9431 203.336 95.1521ZM33.3417 197.176C33.4969 197.803 33.6199 198.304 33.7553 198.854C34.7215 198.025 34.7215 198.025 33.3417 197.176ZM137.197 193.834C139.202 191.821 139.744 191.753 142.065 193.224C139.973 193.593 138.859 197.53 136.859 198.429C135.905 198.859 134.853 198.938 134.596 197.561C134.315 196.052 136.322 194.712 137.197 193.834ZM58.3723 188.224C58.6992 185.694 56.7709 183.797 54.3762 185.185C51.0163 187.132 49.596 189.767 50.0376 193.481C50.2322 195.113 50.4065 196.747 50.612 198.378C53.7556 196.366 57.8747 192.079 58.3723 188.224ZM138.848 194.702C137.612 195.249 136.915 195.663 136.305 196.913C137.182 196.199 138.024 195.48 138.848 194.702ZM204.725 188.839C201.164 188.221 199.032 191.186 197.174 193.841C198.095 194.579 203.782 189.794 204.725 188.839ZM252.371 183.352C250.011 184.543 246.318 187.696 245.663 190.397C248.012 188.301 251.181 186.295 252.371 183.352ZM54.3191 183.14C53.1708 183.072 50.5166 182.068 49.5254 182.855C48.6111 183.581 49.4777 186.333 49.581 187.28C51.1605 185.9 52.7401 184.52 54.3191 183.14ZM208.97 185.097C207.014 182.086 202.436 184.816 201.049 186.835C202.036 187.011 203.05 186.197 204.087 186.24C204.894 186.273 205.501 186.717 206.243 186.918C207.626 187.291 209.911 186.547 208.97 185.097ZM182.553 166.726C184.87 166.83 183.913 169.081 184.383 170.516C185.056 172.57 186.633 173.521 186.536 175.887C186.473 177.429 185.784 178.87 184.945 180.129C183.287 182.617 180.571 185.081 177.557 185.618C174.278 186.203 171.943 184.031 172.052 180.733C172.076 180.011 174.869 172.808 174.726 172.711C173.555 173.954 173.006 173.559 173.775 172.061C174.604 170.445 176.099 169.297 177.688 168.545C178.835 168.002 181.24 166.667 182.553 166.726ZM79.085 179.134C79.0077 180.776 78.7202 184.016 81.3101 183.577C83.3297 183.235 79.6314 179.801 79.085 179.134ZM181.418 170.848C179.839 170.061 179.071 170.69 177.939 171.907C176.098 173.885 172.231 179.093 173.433 182.062C174.298 184.199 177.704 183.232 179.252 182.521C181.672 181.408 186.051 177.588 185.013 174.639C184.53 173.265 182.678 171.477 181.418 170.848ZM147.093 171.899C146.097 170.852 146.384 170.928 145.349 171.556C144.978 171.781 144.516 172.474 144.256 172.809C143.476 173.812 142.802 174.92 142.32 176.097C139.148 183.848 148.571 184.229 153.252 180.706C154.662 180.181 147.951 172.802 147.093 171.899ZM22.7654 180.021C22.6564 180.229 21.9771 181.212 22.2356 181.464C22.4431 181.667 23.1577 181.592 23.3279 181.357C23.6543 180.904 23.0347 180.227 22.7654 180.021ZM20.9601 175.909C21.1334 177.519 20.8615 179.353 22.756 179.98C22.7088 178.181 22.5433 176.951 20.9601 175.909ZM95.1867 169.373C94.6258 167.195 91.997 166.785 90.1087 167.085C88.1607 167.396 85.7135 168.569 85.2154 170.671C84.6492 173.058 86.7358 178.513 89.8933 177.98C91.998 177.625 95.6823 171.297 95.1867 169.373ZM69.644 176.709C69.4479 175.54 65.9592 176.005 65.1913 176.159C66.228 178.254 67.8756 177.686 69.644 176.709ZM123.774 163.459C125.364 162.922 124.933 163.39 126.299 164.075C131.651 166.756 123.451 173.599 120.682 174.776C118.628 175.65 116.533 175.367 117.208 172.698C117.389 171.981 120.433 167.626 119.838 167.141C119.49 167.587 118.169 169.905 117.776 168.392C117.56 167.56 119.331 165.924 119.9 165.462C120.943 164.616 122.522 163.882 123.774 163.459ZM20.9222 172.977C20.7395 173.648 20.5564 174.318 20.3737 174.989C20.5735 175.076 22.194 175.271 22.18 174.878C22.1577 174.286 21.1464 173.598 20.9222 172.977ZM155.84 172.513C156.184 172.966 157.577 175.399 158.061 174.426C158.55 173.443 156.482 172.511 155.84 172.513ZM227.28 154.795C229.26 154.487 232.369 155.273 233.061 157.458C230.254 156.385 227.727 155.054 225.06 157.198C223.101 158.774 221.71 161.408 221.095 163.829C223.818 161.722 226.764 159.081 230.417 159.219C236.547 159.451 232.071 166.731 229.797 168.752C228.036 170.316 225.29 172.363 222.882 172.547C219.867 172.777 219.329 170.087 218.84 167.726C216.958 169.724 215.075 171.722 213.193 173.72C212.052 172.1 217.092 168.138 217.905 167.079C219.683 164.765 220.2 161.858 221.71 159.391C222.976 157.323 224.776 155.186 227.28 154.795ZM126.459 167.205C126.559 165.824 125.176 165.416 123.963 165.727C121.331 166.402 119.11 171.25 118.116 173.468C120.466 172.999 122.526 171.625 124.175 169.939C124.826 169.274 126.387 168.204 126.459 167.205ZM73.1191 171.356C72.223 170.157 70.7742 166.463 68.8999 167.456C68.4754 167.681 67.2627 169.046 66.8964 169.435C66.4263 169.936 65.3334 170.371 66.6997 170.786C68.7655 171.412 70.9973 171.168 73.1191 171.356ZM231.729 163.682C234.196 159.906 227.386 161.576 225.925 162.293C224.083 163.197 221.274 164.495 220.449 166.55C219.473 168.981 221.076 170.782 223.506 170.317C226.817 169.683 229.946 166.411 231.729 163.682ZM203.152 163.942C208.645 166.452 200.507 172.517 198.839 169.306C197.568 166.857 200.514 162.736 203.152 163.942ZM182.802 168.262C181.185 167.898 181.46 169.072 182.64 169.532C184.216 170.147 184.062 168.546 182.802 168.262ZM203.773 166.11C203.184 166.133 199.457 167.573 200.006 168.548C200.759 169.887 203.479 166.648 203.773 166.11ZM110.353 154.676C112.822 153.281 113.82 153.615 116.36 154.493C125.765 157.745 112.125 169.512 106.391 168.681C101.163 167.924 103.216 161.87 105.252 159.178C106.613 157.38 108.371 155.797 110.353 154.676ZM154.511 166.632C154.1 166.053 152.293 167.1 151.864 167.239C151.386 169.249 154.928 167.219 154.511 166.632ZM117.581 156.812C116.442 155.699 114.536 155.669 113.066 155.733C109.659 155.88 107.301 158.417 105.541 161.12C104.37 162.918 103.077 166.633 106.388 167.021C110.017 167.445 114.422 163.841 116.59 161.367C117.736 160.06 119.137 158.333 117.581 156.812ZM166.023 157.08C162.121 157.927 158.432 159.601 154.475 160.176C151.013 160.68 148.319 160.037 145.173 158.751C141.722 157.341 144.431 159.791 145.527 160.806C146.602 161.802 147.539 162.952 148.492 164.059C149.902 165.697 150.628 166.103 152.764 165.653C155.641 165.047 157.353 164.681 159.617 162.709C161.76 160.842 163.884 158.952 166.023 157.08ZM21.1329 162.726C21.1192 162.055 23.4571 160.54 23.6044 161.583C23.9111 163.757 21.5195 161.953 21.1329 162.726ZM249.194 151.681C248.323 152.507 242.155 157.531 245.39 158.685C246.398 159.045 248.626 157.425 249.31 156.684C250.825 155.043 250.011 153.516 249.194 151.681ZM207.399 143.242C203.504 144.818 199.197 146.676 195.569 148.792C194.326 149.517 193.169 149.803 192.558 151.176C192.083 152.241 191.818 154.116 191.775 155.281C191.656 158.469 194.322 158.969 196.761 157.832C199.016 156.781 201.023 154.887 202.686 153.061C204.744 150.803 208.084 146.542 207.399 143.242ZM51.3307 155.867C53.6466 154.523 62.8463 145.947 54.8546 146.986C52.6332 147.275 51.7074 154.042 51.3307 155.867ZM212.928 77.4424C203.362 81.1794 192.965 83.0951 182.97 85.336C174.309 87.2772 165.663 89.3264 157.013 91.3268C153.151 92.2201 149.093 93.9842 145.137 93.1792C141.078 92.3535 137.151 91.277 133.052 90.6304C128.56 89.9216 124.154 88.7837 119.67 88.0406C115.224 87.3032 111.096 85.6647 106.711 84.7133C98.0469 82.8339 89.2883 81.6286 80.6786 79.4267C81.0185 80.456 80.7901 81.5476 81.13 82.5768C81.2976 82.1422 81.4995 81.7241 81.7351 81.3222C82.7656 83.091 81.5021 85.5328 81.485 87.4345C81.4767 88.3771 81.5529 88.6991 81.3065 89.6219C81.1669 90.1433 80.5079 90.8875 80.9152 91.4733C82.0272 93.0723 87.9474 90.7172 89.2727 90.443C92.7214 89.7299 96.7097 88.5552 96.8809 93.414C97.021 97.4055 92.7432 100.401 90.2675 103.036C93.7322 101.943 97.0117 100.372 100.539 99.4651C102.527 98.9541 105.342 98.0006 107.323 98.9764C114.216 102.371 102.564 111.929 100.245 114.207C104.63 113.881 113.352 109.959 113.244 117.819C113.171 123.16 108.171 127.285 105.073 131.107C114.248 137.427 123.897 142.921 132.787 149.616C134.853 151.173 136.322 151.303 138.834 151.165C141.226 151.034 143.063 151.653 145.318 152.349C150.265 153.875 154.216 152.74 159.055 151.559C163.909 150.375 168.646 149.488 173.565 148.639C178.343 147.814 181.877 145.416 185.92 142.834C187.686 141.707 189.344 140.292 191.275 139.45C192.821 138.775 194.81 138.661 193.824 136.794C193.335 135.868 192.017 134.967 191.319 134.106C190.623 133.248 189.976 132.352 189.313 131.468C188.06 129.797 186.734 128.173 185.555 126.449C183.38 123.265 181.256 119.066 183.019 115.206C185.059 110.742 189.712 113.519 193.187 114.2C189.688 110.914 182.532 107.144 183.999 101.308C186.076 93.0437 197.745 101.219 202.268 102.379C200.782 100.658 198.53 99.597 197.794 97.3115C197.119 95.2119 197.646 92.743 199.355 91.3133C203.626 87.7394 209.896 90.3438 214.121 92.3411C213.512 87.3946 213.114 82.4231 212.928 77.4424ZM96.8597 135.378C95.3024 134.757 91.6229 132.37 89.911 133.082C88.4243 133.7 87.8286 136.133 87.0482 137.383C86.9667 136.845 86.8852 136.307 86.8043 135.769C84.3581 138.914 80.2043 146.391 83.6597 150.06C86.4099 152.98 91.324 151.136 94.2397 149.527C98.6712 147.083 102.401 143.603 105.694 139.798C102.997 137.873 99.9197 136.598 96.8597 135.378ZM233.491 135.301C232.78 135.204 232.699 135.34 231.932 135.387C231.162 135.435 230.405 135.319 229.626 135.361C225.628 135.582 224.339 141.979 229.007 141.057C231.96 140.474 234.893 138.454 237.301 136.717C236.409 136.213 235.802 136.074 234.868 135.867C234.197 136.439 233.813 136.359 233.716 135.628C233.641 135.519 233.566 135.41 233.491 135.301ZM76.1298 131.971C76.7432 129.458 71.5562 131.092 70.3015 131.238C68.1018 131.496 66.5949 131.278 66.6271 133.961C66.7142 141.162 75.0567 136.366 76.1298 131.971ZM139.511 94.7643C142.564 94.6682 141.899 114.398 141.909 116.751C141.928 121.318 141.995 125.889 141.942 130.454C141.926 131.808 142.71 137.304 140.517 136.694C139.89 136.519 138.124 133.824 137.929 133.202C137.487 131.791 137.839 129.69 137.806 128.216C137.714 124.023 137.616 119.83 137.504 115.637C137.389 111.27 137.162 106.896 137.12 102.529C137.106 101.015 136.88 98.9096 137.494 97.4892C137.689 97.0372 138.984 94.7813 139.511 94.7643ZM272.412 133.916C270.887 132.235 270.887 132.235 269.73 132.946C270.709 133.013 271.05 134.566 272.412 133.916ZM157.066 98.2682C158.77 98.096 158.879 101.794 158.989 102.713C159.239 104.808 158.914 106.818 159.071 108.82C159.427 113.382 159.943 117.942 159.979 122.521C159.997 124.832 160.349 128.248 159.373 130.483C158.948 131.455 158.513 132.077 157.377 131.554C156.072 130.953 156.162 129.019 155.991 127.86C154.76 119.563 154.882 111.61 155.58 103.298C155.664 102.299 155.525 98.4237 157.066 98.2682ZM183.025 54.5529C184.729 58.238 186.369 62.0394 184.74 66.0734C184.113 67.6246 183.117 69.0221 181.652 69.8707C180.457 70.5619 178.714 70.7354 177.988 72.0721C184.85 69.6837 191.493 68.8601 198.738 69.14C201.441 69.2444 207.541 68.36 209.541 70.6834C210.986 72.3613 209.608 73.8201 207.799 73.8035C204.657 73.7749 201.581 73.6763 198.404 73.8326C191.226 74.1852 184.771 75.4913 177.874 77.4278C172.205 79.019 166.634 81.0189 161.087 82.9819C160.077 83.3392 157.059 83.763 156.61 84.9003C155.636 87.366 160.405 86.2744 161.259 86.0308C172.481 82.8375 183.757 79.2407 195.231 77.0368C200.988 75.9306 206.651 74.732 212.383 73.4722C215.275 72.837 216.231 74.247 216.955 76.9438C217.567 79.2257 217.807 81.6306 218.01 83.9774C218.2 86.1887 217.578 90.0374 218.563 92.0092C219.126 93.1361 219.723 92.9783 220.786 93.2852C221.902 93.6077 221.697 93.7817 222.392 94.2999C223.667 95.2518 224.646 95.0098 226.204 95.485C227.987 96.0293 229.854 97.8936 231.396 98.926C233.196 100.131 234.846 101.363 236.712 102.364C237.479 102.776 238.341 103.283 239.065 103.766C239.326 103.941 239.328 104.471 239.625 104.621C239.77 104.695 240.487 104.521 240.487 104.521C240.954 104.919 240.987 105.56 241.451 105.893C241.878 106.199 242.375 106.014 242.802 106.218C243.79 106.691 245.745 107.919 245.663 109.224C247.739 107.229 250.403 112.409 252.05 112.948C253.6 113.453 253.5 112.691 254.733 114.088C255.965 115.483 257.586 116.496 258.759 117.938C259.821 119.242 260.105 119.757 261.389 120.847C262.525 121.813 262.943 123.359 263.907 124.351C264.409 124.868 265.081 124.904 265.57 125.367C266.029 125.801 266.119 126.715 266.378 127.271C266.999 128.601 267.768 129.973 269.447 129.84C269.23 128.811 269.008 128.21 268.604 127.283C268.088 126.099 267.934 127.148 267.872 125.792C267.822 124.674 268.66 124.952 267.706 123.849C267.132 123.185 266.471 122.699 266.306 123.961C265.583 122.855 265.676 121.679 265.536 120.457C265.507 120.209 265.265 118.863 265.439 118.683C262.466 118.569 261.924 114.227 260.33 112.256C259.329 111.017 258.182 109.931 257.318 108.579C256.409 107.156 255.821 105.65 254.735 104.339C253.755 103.16 253.259 101.884 252.239 100.874C251.293 99.9387 250.629 98.9504 249.73 97.8001C249.399 97.3759 249.067 96.6722 248.66 96.3627C248.304 96.0921 248.025 96.4915 247.81 96.3242C247.517 96.0952 245.779 94.8426 246.9 94.6827C246.857 94.61 246.27 94.2459 246.279 94.2823C245.886 92.6366 245.698 92.7077 244.548 91.7283C243.314 90.6772 242.234 90.2004 242.005 88.7245C240.921 90.1033 238.838 86.0469 242.003 88.7178C241.842 87.7991 240.158 87.7825 239.751 87.3935C239.212 86.8789 239.147 86.0101 238.945 85.3386C237.86 86.2463 237.854 85.7094 237.102 84.838C236.335 83.9489 235.898 84.0065 235.062 83.494C234.21 82.9731 234.566 83.2623 234.298 82.0279C234.11 81.1612 234.044 80.7011 233.277 80.1085C233.189 80.8081 233.101 81.5081 233.013 82.2076C232.626 81.4982 231.809 81.3809 231.336 80.7894C231.084 80.4746 230.972 79.6038 230.746 79.4215C230.488 79.2143 229.95 79.0626 229.654 78.8549C229.503 78.7495 229.034 78.1086 228.838 77.9476C228.612 77.7633 228.147 78.1237 227.859 77.8064C227.448 77.3525 227.667 76.7169 227.667 76.1851C225.232 76.7439 223.012 73.6539 221.984 71.7054C221.835 72.2705 221.686 72.8365 221.537 73.4021C221.189 73.01 220.881 72.1972 220.42 71.9319C219.748 71.545 219.834 71.8618 219.095 71.6888C217.667 71.3549 217.225 68.3231 216.074 70.1335C215.482 68.2089 215.532 68.8824 213.912 68.319C212.976 67.9934 211.937 67.2144 211.269 66.4764C210.906 66.074 210.526 64.9699 209.807 64.8063C209.818 64.8089 209.073 64.6292 209.187 64.6754C209.357 64.745 208.647 65.0416 208.77 65.1646C207.525 64.5659 206.256 63.5495 205.33 62.6293C205.043 62.3437 204.367 61.8747 204.042 61.8457C203.506 61.7979 203.347 62.4637 202.717 62.2476C201.874 61.9589 202.268 61.2573 201.99 60.7297C201.73 60.2342 201.799 59.2273 201.017 59.0455C200.588 58.9458 200.653 59.2875 200.372 59.3104C200.151 59.328 199.698 59.9751 199.28 60.0442C198.336 60.2015 198.378 59.7731 197.863 59.4402C197.215 59.0206 198.026 58.9437 197.001 58.6539C196.742 58.5807 196.191 59.099 195.961 59.0413C195.486 58.9224 195.365 58.3777 194.983 58.2203C194.358 57.9632 193.906 58.0308 193.2 57.9259C189.835 57.4252 186.372 55.4534 183.025 54.5529ZM110.104 117.33C106.889 116.793 102.428 118.221 99.4905 119.448C95.9417 120.929 92.4832 122.661 89.0475 124.385C90.4704 125.922 93.0415 126.249 94.9101 126.949C96.6106 127.587 98.6167 129.108 100.341 128.148C102.24 127.089 104.2 124.801 105.769 123.284C107.543 121.569 109.198 119.659 110.104 117.33ZM48.4923 104.919C48.1617 105.043 46.9984 105.455 47.1571 105.757C47.6543 106.699 48.3325 105.352 48.4923 104.919ZM78.6725 76.0485C77.7685 75.9441 77.5677 76.8908 76.8656 77.2149C76.3109 77.4709 75.4656 76.99 75.0292 77.5841C74.6447 78.1081 75.1014 78.657 74.5741 79.274C74.2623 79.6385 73.4305 79.7429 73.0226 79.9901C71.2064 81.0911 69.6897 82.89 67.9326 84.1197C66.2597 85.2908 65.5296 86.7444 64.5291 88.5038C64.2759 88.1611 64.0216 87.8183 63.7679 87.4756C63.635 87.6293 63.5245 88.4644 63.3829 88.6731C63.2718 88.8383 62.6823 88.8377 62.4987 89.0304C62.0737 89.476 61.8401 90.0935 61.3804 90.5349C60.9969 90.9036 60.5232 90.9602 60.1942 91.4177C59.5279 92.3447 59.5876 92.9518 58.776 93.7998C58.0718 94.5362 57.4009 95.0665 56.5354 95.4996C55.2801 96.1279 55.0321 96.2868 54.2537 97.6594C53.6015 98.8087 53.0161 99.9387 51.9793 100.798C51.6083 101.106 50.9426 101.318 50.6375 101.659C50.4647 101.852 50.0428 102.706 50.0137 102.73C49.8679 102.848 49.9707 103.051 49.6604 103.251C49.2177 103.536 48.429 103.097 48.0377 103.45C47.3782 104.045 48.0076 104.552 48.513 104.861C49.32 105.354 50.3681 104.755 51.0448 104.343C52.8651 103.234 54.2241 101.956 56.2141 101.058C58.4709 100.038 60.3566 98.4976 62.7015 97.6179C64.9687 96.7667 67.3452 96.2474 69.5672 95.2711C71.3367 94.4936 73.4471 94.8442 74.9436 93.6627C76.7032 92.2741 75.5113 91.3201 75.5798 89.4277C75.7375 85.0358 75.7002 79.5648 78.6725 76.0485ZM152.914 88.7012C152.945 87.9715 147.081 88.7297 146.541 88.7614C147.13 89.1722 152.822 90.8942 152.914 88.7012ZM108.285 76.9786C102.383 76.8991 96.333 76.1472 90.4565 76.9106C90.3858 77.8858 99.7163 78.7417 100.896 78.9728C104.938 79.7642 108.767 80.8994 112.696 82.098C116.525 83.2665 120.494 83.8777 124.382 84.8099C128.359 85.7644 132.304 86.7787 136.331 87.5104C138.905 87.9778 141.842 88.5054 143.081 85.4502C143.524 84.3597 143.337 84.4178 142.093 83.8606C140.786 83.2748 139.326 83.0915 137.992 82.5727C134.32 81.1446 130.527 80.0493 126.707 79.0143C120.757 77.4013 114.42 77.0612 108.285 76.9786ZM161.104 58.4099C158.889 56.5948 158.959 55.0743 156.57 57.6922C154.923 59.4973 153.36 61.1851 150.736 60.6102C149.625 60.3667 148.159 59.9309 147.206 59.3031C146.446 58.8019 145.894 57.4398 145.142 57.1017C143.563 56.3928 141.149 59.8369 139.647 60.6798C137.184 62.0617 134.99 62.1344 132.671 60.5557C129.996 58.7355 129.525 59.745 127.416 61.681C125.212 63.7038 123.634 63.0578 121.886 60.9C121.625 62.9882 121.595 65.0956 121.522 67.1962C121.433 69.7585 122.618 72.5846 125.121 73.44C128.362 74.5472 132.082 75.4186 135.442 76.0153C133.8 74.4667 132.061 69.5056 135.048 68.2348C137.055 67.3806 137.894 70.4191 138.193 71.8763C138.589 73.7957 136.72 76.6551 138.308 77.7451C139.162 78.3314 140.726 78.2156 141.702 78.5355C143.368 79.0813 144.811 80.1937 146.237 81.1731C147.552 82.0762 149.14 83.4441 150.774 83.6581C152.488 83.8824 153.582 82.676 154.837 81.6909C158.057 79.1623 161.757 77.1874 165.607 75.7951C166.685 75.4056 168.584 75.3781 169.478 74.6733C170.747 73.6742 170.262 71.6675 170.133 70.2545C169.748 66.0693 169.238 61.7096 167.875 57.7176C165.639 59.4454 163.574 60.4347 161.104 58.4099ZM148.478 68.862C150.647 67.534 154.439 82.5499 151.463 82.7687C148.732 82.9691 146.127 70.3012 148.478 68.862ZM104.139 58.5558C103.844 58.8606 103.191 58.5018 102.899 58.8227C102.661 59.085 103.417 59.4293 103.3 59.5617C102.786 60.1454 102.051 60.5095 101.226 60.967C101.182 60.7712 101.131 60.5765 101.075 60.3838C101.032 60.3667 99.9451 62.1619 99.8247 62.2648C99.0391 62.9394 98.2296 62.6693 97.4139 63.1642C96.9453 63.4483 96.814 63.8913 96.416 64.194C95.0528 65.2311 92.6757 66.4193 91.2902 66.761C90.0412 67.0685 88.6277 68.683 88.2655 70.134C87.2199 69.5092 85.8334 71.0817 84.8968 71.7257C84.2725 72.1541 81.7356 73.467 81.6064 73.9666C80.9048 74.6302 80.0097 75.1163 79.4228 75.8989C80.9017 77.2055 82.8014 74.5144 84.2871 73.763C86.7119 72.5369 89.4216 71.7387 92.0873 71.2521C97.6562 70.2363 103.029 71.8903 108.53 71.2957C103.904 68.9842 103.22 63.1154 104.139 58.5558ZM157.021 75.757C153.636 75.272 155.099 66.492 157.867 68.6074C159.367 69.7533 159.81 76.1564 157.021 75.757ZM173.433 71.0376V73.3678L175.946 72.4091C175.108 71.9516 174.271 71.4946 173.433 71.0376ZM116.618 58.2385C113.475 57.3375 110.355 58.333 108.298 60.8491C105.957 63.7126 108.339 65.7733 111.197 66.8176C114.025 67.8516 117.057 68.0292 116.368 71.6966C117.189 71.8187 118.01 71.9407 118.831 72.0627C118.661 70.4913 119.066 68.3122 118.01 66.9796C116.925 65.6102 114.326 65.4004 112.81 64.6474C111.143 63.8186 110.093 61.5055 112.87 61.5715C114.828 61.6182 117.128 63.1621 118.189 64.7185C118.745 61.8644 120.297 59.2937 116.618 58.2385ZM178.877 58.1419C177.696 58.0401 176.349 58.4654 175.292 58.9609C174.672 59.2512 173.192 60.6834 172.464 60.0883C171.912 59.6375 172.379 58.6181 171.316 58.7942C171.756 60.1246 172.197 61.4551 172.637 62.7856C173.754 60.7037 178.751 60.941 176.907 63.5594C176.174 64.6012 174.635 64.53 173.841 65.5095C172.926 66.6374 173.348 68.2052 173.441 69.5092C176.332 68.0707 181.575 66.3305 182.251 62.6506C182.65 60.4757 181.056 58.3304 178.877 58.1419ZM117.512 51.8182L114.08 53.2655C115.224 53.9178 116.369 54.5695 117.512 55.2218V51.8182ZM177.621 52.8853C175.742 52.2684 173.984 52.5748 174.5 54.9029C175.54 54.2304 176.58 53.5579 177.621 52.8853Z" fill="black"/>
        </svg>